G04 #@! TF.GenerationSoftware,KiCad,Pcbnew,(5.1.4)-1*
G04 #@! TF.CreationDate,2020-09-16T20:01:52+02:00*
G04 #@! TF.ProjectId,RPM,52504d2e-6b69-4636-9164-5f7063625858,rev?*
G04 #@! TF.SameCoordinates,Original*
G04 #@! TF.FileFunction,Legend,Top*
G04 #@! TF.FilePolarity,Positive*
%FSLAX46Y46*%
G04 Gerber Fmt 4.6, Leading zero omitted, Abs format (unit mm)*
G04 Created by KiCad (PCBNEW (5.1.4)-1) date 2020-09-16 20:01:53*
%MOMM*%
%LPD*%
G04 APERTURE LIST*
%ADD10C,0.120000*%
%ADD11C,0.150000*%
G04 APERTURE END LIST*
D10*
X221410000Y-111797936D02*
X221410000Y-113002064D01*
X219590000Y-111797936D02*
X219590000Y-113002064D01*
X231110000Y-102802064D02*
X231110000Y-101597936D01*
X229290000Y-102802064D02*
X229290000Y-101597936D01*
X186790000Y-112877064D02*
X186790000Y-111672936D01*
X188610000Y-112877064D02*
X188610000Y-111672936D01*
X189510000Y-108102064D02*
X189510000Y-106897936D01*
X187690000Y-108102064D02*
X187690000Y-106897936D01*
X183862500Y-99060000D02*
X186547500Y-99060000D01*
X186547500Y-99060000D02*
X186547500Y-97140000D01*
X186547500Y-97140000D02*
X183862500Y-97140000D01*
X186547500Y-99165000D02*
X183862500Y-99165000D01*
X186547500Y-101085000D02*
X186547500Y-99165000D01*
X183862500Y-101085000D02*
X186547500Y-101085000D01*
X197900000Y-95800000D02*
X197900000Y-93800000D01*
X197900000Y-93800000D02*
X194000000Y-93800000D01*
X197900000Y-95800000D02*
X194000000Y-95800000D01*
X229000000Y-105000000D02*
X227000000Y-105000000D01*
X227000000Y-105000000D02*
X227000000Y-108900000D01*
X229000000Y-105000000D02*
X229000000Y-108900000D01*
X229400000Y-109500000D02*
X229400000Y-105600000D01*
X231400000Y-109500000D02*
X231400000Y-105600000D01*
X229400000Y-109500000D02*
X231400000Y-109500000D01*
X185887500Y-94990000D02*
X183202500Y-94990000D01*
X183202500Y-94990000D02*
X183202500Y-96910000D01*
X183202500Y-96910000D02*
X185887500Y-96910000D01*
X246210000Y-111290000D02*
X252370000Y-111290000D01*
X246210000Y-106170000D02*
X252370000Y-106170000D01*
X246210000Y-111290000D02*
X246210000Y-106170000D01*
X246210000Y-105770000D02*
X247330000Y-105770000D01*
X247330000Y-105770000D02*
X247330000Y-106170000D01*
X247330000Y-106170000D02*
X246210000Y-106170000D01*
X246210000Y-106170000D02*
X246210000Y-105770000D01*
X246080000Y-110000000D02*
X246210000Y-110000000D01*
X246210000Y-110000000D02*
X246210000Y-110000000D01*
X246210000Y-110000000D02*
X246080000Y-110000000D01*
X246080000Y-110000000D02*
X246080000Y-110000000D01*
X246080000Y-107460000D02*
X246210000Y-107460000D01*
X246210000Y-107460000D02*
X246210000Y-107460000D01*
X246210000Y-107460000D02*
X246080000Y-107460000D01*
X246080000Y-107460000D02*
X246080000Y-107460000D01*
X252370000Y-106170000D02*
G75*
G02X252370000Y-111290000I0J-2560000D01*
G01*
X183202500Y-94810000D02*
X185887500Y-94810000D01*
X183202500Y-92890000D02*
X183202500Y-94810000D01*
X185887500Y-92890000D02*
X183202500Y-92890000D01*
X191421078Y-97060000D02*
X190903922Y-97060000D01*
X191421078Y-95640000D02*
X190903922Y-95640000D01*
X205240000Y-110390000D02*
X205240000Y-115110000D01*
X205240000Y-115110000D02*
X211360000Y-115110000D01*
X211360000Y-115110000D02*
X211360000Y-110390000D01*
X211360000Y-110390000D02*
X205240000Y-110390000D01*
X207000000Y-110390000D02*
X207000000Y-110190000D01*
X207000000Y-110190000D02*
X206700000Y-110190000D01*
X206700000Y-110190000D02*
X206700000Y-110390000D01*
X207000000Y-110290000D02*
X206700000Y-110290000D01*
X207800000Y-110390000D02*
X207800000Y-111000000D01*
X207800000Y-111000000D02*
X205850000Y-111000000D01*
X205850000Y-111000000D02*
X205850000Y-114500000D01*
X205850000Y-114500000D02*
X210750000Y-114500000D01*
X210750000Y-114500000D02*
X210750000Y-111000000D01*
X210750000Y-111000000D02*
X208800000Y-111000000D01*
X208800000Y-111000000D02*
X208800000Y-110390000D01*
X205240000Y-111700000D02*
X205850000Y-111700000D01*
X205240000Y-113000000D02*
X205850000Y-113000000D01*
X211360000Y-111700000D02*
X210750000Y-111700000D01*
X211360000Y-113000000D02*
X210750000Y-113000000D01*
X208200000Y-114500000D02*
X208200000Y-114000000D01*
X208200000Y-114000000D02*
X208400000Y-114000000D01*
X208400000Y-114000000D02*
X208400000Y-114500000D01*
X208300000Y-114500000D02*
X208300000Y-114000000D01*
X206190000Y-110090000D02*
X204940000Y-110090000D01*
X204940000Y-110090000D02*
X204940000Y-111340000D01*
X217470000Y-101770000D02*
X220130000Y-101770000D01*
X217470000Y-101770000D02*
X217470000Y-109450000D01*
X217470000Y-109450000D02*
X220130000Y-109450000D01*
X220130000Y-101770000D02*
X220130000Y-109450000D01*
X220130000Y-99170000D02*
X220130000Y-100500000D01*
X218800000Y-99170000D02*
X220130000Y-99170000D01*
X220800000Y-100750000D02*
G75*
G02X221500000Y-100050000I700000J0D01*
G01*
X222100000Y-100050000D02*
G75*
G02X222800000Y-100750000I0J-700000D01*
G01*
X222800000Y-102150000D02*
G75*
G02X222100000Y-102850000I-700000J0D01*
G01*
X221500000Y-102850000D02*
G75*
G02X220800000Y-102150000I0J700000D01*
G01*
X222100000Y-102850000D02*
X221500000Y-102850000D01*
X222800000Y-100750000D02*
X222800000Y-102150000D01*
X221500000Y-100050000D02*
X222100000Y-100050000D01*
X220800000Y-102150000D02*
X220800000Y-100750000D01*
D11*
X221400000Y-104700000D02*
X226400000Y-104700000D01*
X226400000Y-109700000D02*
X221400000Y-109700000D01*
D10*
X204630000Y-113140000D02*
X203700000Y-113140000D01*
X201470000Y-113140000D02*
X202400000Y-113140000D01*
X201470000Y-113140000D02*
X201470000Y-115300000D01*
X204630000Y-113140000D02*
X204630000Y-114600000D01*
X197870000Y-114660000D02*
X197870000Y-113200000D01*
X201030000Y-114660000D02*
X201030000Y-112500000D01*
X201030000Y-114660000D02*
X200100000Y-114660000D01*
X197870000Y-114660000D02*
X198800000Y-114660000D01*
X242260000Y-113580000D02*
X242260000Y-112650000D01*
X242260000Y-110420000D02*
X242260000Y-111350000D01*
X242260000Y-110420000D02*
X240100000Y-110420000D01*
X242260000Y-113580000D02*
X240800000Y-113580000D01*
X236740000Y-110420000D02*
X238200000Y-110420000D01*
X236740000Y-113580000D02*
X238900000Y-113580000D01*
X236740000Y-113580000D02*
X236740000Y-112650000D01*
X236740000Y-110420000D02*
X236740000Y-111350000D01*
X246210000Y-102290000D02*
X252370000Y-102290000D01*
X246210000Y-97170000D02*
X252370000Y-97170000D01*
X246210000Y-102290000D02*
X246210000Y-97170000D01*
X246210000Y-96770000D02*
X247330000Y-96770000D01*
X247330000Y-96770000D02*
X247330000Y-97170000D01*
X247330000Y-97170000D02*
X246210000Y-97170000D01*
X246210000Y-97170000D02*
X246210000Y-96770000D01*
X246080000Y-101000000D02*
X246210000Y-101000000D01*
X246210000Y-101000000D02*
X246210000Y-101000000D01*
X246210000Y-101000000D02*
X246080000Y-101000000D01*
X246080000Y-101000000D02*
X246080000Y-101000000D01*
X246080000Y-98460000D02*
X246210000Y-98460000D01*
X246210000Y-98460000D02*
X246210000Y-98460000D01*
X246210000Y-98460000D02*
X246080000Y-98460000D01*
X246080000Y-98460000D02*
X246080000Y-98460000D01*
X252370000Y-97170000D02*
G75*
G02X252370000Y-102290000I0J-2560000D01*
G01*
X228880000Y-93860000D02*
X228880000Y-94350000D01*
X228880000Y-95650000D02*
X228880000Y-98800000D01*
X222040000Y-93860000D02*
X222040000Y-94350000D01*
X222040000Y-95650000D02*
X222040000Y-98800000D01*
X228880000Y-98800000D02*
X222040000Y-98800000D01*
X228880000Y-93860000D02*
X222040000Y-93860000D01*
D11*
X222300000Y-110600000D02*
X231000000Y-110600000D01*
X222300000Y-115000000D02*
X231000000Y-115000000D01*
X222300000Y-115000000D02*
X222300000Y-110600000D01*
X231000000Y-115000000D02*
X231000000Y-110600000D01*
X224650000Y-115000000D02*
X224650000Y-120000000D01*
X224650000Y-120000000D02*
X225050000Y-120000000D01*
X225050000Y-120000000D02*
X225550000Y-119500000D01*
X225550000Y-119500000D02*
X226050000Y-120000000D01*
X226050000Y-120000000D02*
X226450000Y-120000000D01*
X226450000Y-120000000D02*
X226450000Y-115000000D01*
X235200000Y-88800000D02*
X235200000Y-93800000D01*
X235600000Y-88800000D02*
X235200000Y-88800000D01*
X236100000Y-89300000D02*
X235600000Y-88800000D01*
X236600000Y-88800000D02*
X236100000Y-89300000D01*
X237000000Y-88800000D02*
X236600000Y-88800000D01*
X237000000Y-93800000D02*
X237000000Y-88800000D01*
X230650000Y-93800000D02*
X230650000Y-98200000D01*
X239350000Y-93800000D02*
X239350000Y-98200000D01*
X239350000Y-93800000D02*
X230650000Y-93800000D01*
X239350000Y-98200000D02*
X230650000Y-98200000D01*
D10*
X216700000Y-110190000D02*
X214900000Y-110190000D01*
X214900000Y-113410000D02*
X217350000Y-113410000D01*
X194575000Y-108085000D02*
X196525000Y-108085000D01*
X194575000Y-108085000D02*
X192625000Y-108085000D01*
X194575000Y-97965000D02*
X196525000Y-97965000D01*
X194575000Y-97965000D02*
X191125000Y-97965000D01*
X239000000Y-101410000D02*
X237120000Y-101410000D01*
X239000000Y-101410000D02*
X240880000Y-101410000D01*
X239000000Y-106590000D02*
X237120000Y-106590000D01*
X239000000Y-106590000D02*
X242525000Y-106590000D01*
X224200000Y-104160000D02*
X226650000Y-104160000D01*
X226000000Y-100940000D02*
X224200000Y-100940000D01*
D11*
X214375000Y-100625000D02*
X214150000Y-100625000D01*
X214375000Y-107875000D02*
X214050000Y-107875000D01*
X207125000Y-107875000D02*
X207450000Y-107875000D01*
X207125000Y-100625000D02*
X207450000Y-100625000D01*
X214375000Y-100625000D02*
X214375000Y-100950000D01*
X207125000Y-100625000D02*
X207125000Y-100950000D01*
X207125000Y-107875000D02*
X207125000Y-107550000D01*
X214375000Y-107875000D02*
X214375000Y-107550000D01*
X214150000Y-100625000D02*
X214150000Y-99200000D01*
X195575000Y-115180000D02*
X195575000Y-115130000D01*
X191425000Y-115180000D02*
X191425000Y-115035000D01*
X191425000Y-110030000D02*
X191425000Y-110175000D01*
X195575000Y-110030000D02*
X195575000Y-110175000D01*
X195575000Y-115180000D02*
X191425000Y-115180000D01*
X195575000Y-110030000D02*
X191425000Y-110030000D01*
X195575000Y-115130000D02*
X196975000Y-115130000D01*
D10*
X211425000Y-98525000D02*
X205175000Y-98525000D01*
X211425000Y-93475000D02*
X205175000Y-93475000D01*
X211425000Y-93475000D02*
G75*
G02X211425000Y-98525000I0J-2525000D01*
G01*
X205175000Y-93475000D02*
G75*
G03X205175000Y-98525000I0J-2525000D01*
G01*
X214024721Y-114910000D02*
X214350279Y-114910000D01*
X214024721Y-113890000D02*
X214350279Y-113890000D01*
X194249721Y-108590000D02*
X194575279Y-108590000D01*
X194249721Y-109610000D02*
X194575279Y-109610000D01*
X194950279Y-96340000D02*
X194624721Y-96340000D01*
X194950279Y-97360000D02*
X194624721Y-97360000D01*
X200325279Y-102910000D02*
X199999721Y-102910000D01*
X200325279Y-101890000D02*
X199999721Y-101890000D01*
X205725279Y-108765000D02*
X205399721Y-108765000D01*
X205725279Y-109785000D02*
X205399721Y-109785000D01*
X215574721Y-97240000D02*
X215900279Y-97240000D01*
X215574721Y-98260000D02*
X215900279Y-98260000D01*
X216221078Y-95290000D02*
X215703922Y-95290000D01*
X216221078Y-96710000D02*
X215703922Y-96710000D01*
X200303922Y-97040000D02*
X200821078Y-97040000D01*
X200303922Y-98460000D02*
X200821078Y-98460000D01*
X240497936Y-98590000D02*
X241702064Y-98590000D01*
X240497936Y-100410000D02*
X241702064Y-100410000D01*
X239049721Y-107490000D02*
X239375279Y-107490000D01*
X239049721Y-108510000D02*
X239375279Y-108510000D01*
X213510000Y-111378922D02*
X213510000Y-111896078D01*
X212090000Y-111378922D02*
X212090000Y-111896078D01*
X218090000Y-112124721D02*
X218090000Y-112450279D01*
X219110000Y-112124721D02*
X219110000Y-112450279D01*
X188974721Y-99190000D02*
X189300279Y-99190000D01*
X188974721Y-100210000D02*
X189300279Y-100210000D01*
X188974721Y-101785000D02*
X189300279Y-101785000D01*
X188974721Y-100765000D02*
X189300279Y-100765000D01*
X236565000Y-99950279D02*
X236565000Y-99624721D01*
X237585000Y-99950279D02*
X237585000Y-99624721D01*
X181424721Y-97640000D02*
X181750279Y-97640000D01*
X181424721Y-98660000D02*
X181750279Y-98660000D01*
X236300279Y-108485000D02*
X235974721Y-108485000D01*
X236300279Y-107465000D02*
X235974721Y-107465000D01*
X235040000Y-99950279D02*
X235040000Y-99624721D01*
X236060000Y-99950279D02*
X236060000Y-99624721D01*
X181424721Y-100635000D02*
X181750279Y-100635000D01*
X181424721Y-99615000D02*
X181750279Y-99615000D01*
X199999721Y-100340000D02*
X200325279Y-100340000D01*
X199999721Y-101360000D02*
X200325279Y-101360000D01*
X228710000Y-102750279D02*
X228710000Y-102424721D01*
X227690000Y-102750279D02*
X227690000Y-102424721D01*
X227592780Y-100310000D02*
X227267222Y-100310000D01*
X227592780Y-99290000D02*
X227267222Y-99290000D01*
X233690000Y-112603922D02*
X233690000Y-113121078D01*
X235110000Y-112603922D02*
X235110000Y-113121078D01*
X231830000Y-108150000D02*
X234570000Y-108150000D01*
X234570000Y-108150000D02*
X234570000Y-101610000D01*
X234570000Y-101610000D02*
X231830000Y-101610000D01*
X231830000Y-101610000D02*
X231830000Y-108150000D01*
X233200000Y-108920000D02*
X233200000Y-108150000D01*
X233200000Y-100840000D02*
X233200000Y-101610000D01*
X241549721Y-96510000D02*
X241875279Y-96510000D01*
X241549721Y-95490000D02*
X241875279Y-95490000D01*
X181449721Y-94360000D02*
X181775279Y-94360000D01*
X181449721Y-93340000D02*
X181775279Y-93340000D01*
X181424721Y-96460000D02*
X181750279Y-96460000D01*
X181424721Y-95440000D02*
X181750279Y-95440000D01*
X245303922Y-103290000D02*
X245821078Y-103290000D01*
X245303922Y-104710000D02*
X245821078Y-104710000D01*
X186235000Y-113121078D02*
X186235000Y-112603922D01*
X184815000Y-113121078D02*
X184815000Y-112603922D01*
D11*
X222677142Y-112566666D02*
X222724761Y-112614285D01*
X222772380Y-112757142D01*
X222772380Y-112852380D01*
X222724761Y-112995238D01*
X222629523Y-113090476D01*
X222534285Y-113138095D01*
X222343809Y-113185714D01*
X222200952Y-113185714D01*
X222010476Y-113138095D01*
X221915238Y-113090476D01*
X221820000Y-112995238D01*
X221772380Y-112852380D01*
X221772380Y-112757142D01*
X221820000Y-112614285D01*
X221867619Y-112566666D01*
X221772380Y-111661904D02*
X221772380Y-112138095D01*
X222248571Y-112185714D01*
X222200952Y-112138095D01*
X222153333Y-112042857D01*
X222153333Y-111804761D01*
X222200952Y-111709523D01*
X222248571Y-111661904D01*
X222343809Y-111614285D01*
X222581904Y-111614285D01*
X222677142Y-111661904D01*
X222724761Y-111709523D01*
X222772380Y-111804761D01*
X222772380Y-112042857D01*
X222724761Y-112138095D01*
X222677142Y-112185714D01*
X230033333Y-102557142D02*
X229985714Y-102604761D01*
X229842857Y-102652380D01*
X229747619Y-102652380D01*
X229604761Y-102604761D01*
X229509523Y-102509523D01*
X229461904Y-102414285D01*
X229414285Y-102223809D01*
X229414285Y-102080952D01*
X229461904Y-101890476D01*
X229509523Y-101795238D01*
X229604761Y-101700000D01*
X229747619Y-101652380D01*
X229842857Y-101652380D01*
X229985714Y-101700000D01*
X230033333Y-101747619D01*
X230604761Y-102080952D02*
X230509523Y-102033333D01*
X230461904Y-101985714D01*
X230414285Y-101890476D01*
X230414285Y-101842857D01*
X230461904Y-101747619D01*
X230509523Y-101700000D01*
X230604761Y-101652380D01*
X230795238Y-101652380D01*
X230890476Y-101700000D01*
X230938095Y-101747619D01*
X230985714Y-101842857D01*
X230985714Y-101890476D01*
X230938095Y-101985714D01*
X230890476Y-102033333D01*
X230795238Y-102080952D01*
X230604761Y-102080952D01*
X230509523Y-102128571D01*
X230461904Y-102176190D01*
X230414285Y-102271428D01*
X230414285Y-102461904D01*
X230461904Y-102557142D01*
X230509523Y-102604761D01*
X230604761Y-102652380D01*
X230795238Y-102652380D01*
X230890476Y-102604761D01*
X230938095Y-102557142D01*
X230985714Y-102461904D01*
X230985714Y-102271428D01*
X230938095Y-102176190D01*
X230890476Y-102128571D01*
X230795238Y-102080952D01*
X184557142Y-110657142D02*
X184509523Y-110704761D01*
X184366666Y-110752380D01*
X184271428Y-110752380D01*
X184128571Y-110704761D01*
X184033333Y-110609523D01*
X183985714Y-110514285D01*
X183938095Y-110323809D01*
X183938095Y-110180952D01*
X183985714Y-109990476D01*
X184033333Y-109895238D01*
X184128571Y-109800000D01*
X184271428Y-109752380D01*
X184366666Y-109752380D01*
X184509523Y-109800000D01*
X184557142Y-109847619D01*
X185509523Y-110752380D02*
X184938095Y-110752380D01*
X185223809Y-110752380D02*
X185223809Y-109752380D01*
X185128571Y-109895238D01*
X185033333Y-109990476D01*
X184938095Y-110038095D01*
X186461904Y-110752380D02*
X185890476Y-110752380D01*
X186176190Y-110752380D02*
X186176190Y-109752380D01*
X186080952Y-109895238D01*
X185985714Y-109990476D01*
X185890476Y-110038095D01*
X187137142Y-108142857D02*
X187184761Y-108190476D01*
X187232380Y-108333333D01*
X187232380Y-108428571D01*
X187184761Y-108571428D01*
X187089523Y-108666666D01*
X186994285Y-108714285D01*
X186803809Y-108761904D01*
X186660952Y-108761904D01*
X186470476Y-108714285D01*
X186375238Y-108666666D01*
X186280000Y-108571428D01*
X186232380Y-108428571D01*
X186232380Y-108333333D01*
X186280000Y-108190476D01*
X186327619Y-108142857D01*
X187232380Y-107190476D02*
X187232380Y-107761904D01*
X187232380Y-107476190D02*
X186232380Y-107476190D01*
X186375238Y-107571428D01*
X186470476Y-107666666D01*
X186518095Y-107761904D01*
X186232380Y-106857142D02*
X186232380Y-106238095D01*
X186613333Y-106571428D01*
X186613333Y-106428571D01*
X186660952Y-106333333D01*
X186708571Y-106285714D01*
X186803809Y-106238095D01*
X187041904Y-106238095D01*
X187137142Y-106285714D01*
X187184761Y-106333333D01*
X187232380Y-106428571D01*
X187232380Y-106714285D01*
X187184761Y-106809523D01*
X187137142Y-106857142D01*
X186861904Y-97352380D02*
X186861904Y-96352380D01*
X187100000Y-96352380D01*
X187242857Y-96400000D01*
X187338095Y-96495238D01*
X187385714Y-96590476D01*
X187433333Y-96780952D01*
X187433333Y-96923809D01*
X187385714Y-97114285D01*
X187338095Y-97209523D01*
X187242857Y-97304761D01*
X187100000Y-97352380D01*
X186861904Y-97352380D01*
X188385714Y-97352380D02*
X187814285Y-97352380D01*
X188100000Y-97352380D02*
X188100000Y-96352380D01*
X188004761Y-96495238D01*
X187909523Y-96590476D01*
X187814285Y-96638095D01*
X182261904Y-102352380D02*
X182261904Y-101352380D01*
X182500000Y-101352380D01*
X182642857Y-101400000D01*
X182738095Y-101495238D01*
X182785714Y-101590476D01*
X182833333Y-101780952D01*
X182833333Y-101923809D01*
X182785714Y-102114285D01*
X182738095Y-102209523D01*
X182642857Y-102304761D01*
X182500000Y-102352380D01*
X182261904Y-102352380D01*
X183214285Y-101447619D02*
X183261904Y-101400000D01*
X183357142Y-101352380D01*
X183595238Y-101352380D01*
X183690476Y-101400000D01*
X183738095Y-101447619D01*
X183785714Y-101542857D01*
X183785714Y-101638095D01*
X183738095Y-101780952D01*
X183166666Y-102352380D01*
X183785714Y-102352380D01*
X198161904Y-95852380D02*
X198161904Y-94852380D01*
X198400000Y-94852380D01*
X198542857Y-94900000D01*
X198638095Y-94995238D01*
X198685714Y-95090476D01*
X198733333Y-95280952D01*
X198733333Y-95423809D01*
X198685714Y-95614285D01*
X198638095Y-95709523D01*
X198542857Y-95804761D01*
X198400000Y-95852380D01*
X198161904Y-95852380D01*
X199066666Y-94852380D02*
X199685714Y-94852380D01*
X199352380Y-95233333D01*
X199495238Y-95233333D01*
X199590476Y-95280952D01*
X199638095Y-95328571D01*
X199685714Y-95423809D01*
X199685714Y-95661904D01*
X199638095Y-95757142D01*
X199590476Y-95804761D01*
X199495238Y-95852380D01*
X199209523Y-95852380D01*
X199114285Y-95804761D01*
X199066666Y-95757142D01*
X228452380Y-107938095D02*
X227452380Y-107938095D01*
X227452380Y-107700000D01*
X227500000Y-107557142D01*
X227595238Y-107461904D01*
X227690476Y-107414285D01*
X227880952Y-107366666D01*
X228023809Y-107366666D01*
X228214285Y-107414285D01*
X228309523Y-107461904D01*
X228404761Y-107557142D01*
X228452380Y-107700000D01*
X228452380Y-107938095D01*
X227785714Y-106509523D02*
X228452380Y-106509523D01*
X227404761Y-106747619D02*
X228119047Y-106985714D01*
X228119047Y-106366666D01*
X230852380Y-107988095D02*
X229852380Y-107988095D01*
X229852380Y-107750000D01*
X229900000Y-107607142D01*
X229995238Y-107511904D01*
X230090476Y-107464285D01*
X230280952Y-107416666D01*
X230423809Y-107416666D01*
X230614285Y-107464285D01*
X230709523Y-107511904D01*
X230804761Y-107607142D01*
X230852380Y-107750000D01*
X230852380Y-107988095D01*
X229852380Y-106511904D02*
X229852380Y-106988095D01*
X230328571Y-107035714D01*
X230280952Y-106988095D01*
X230233333Y-106892857D01*
X230233333Y-106654761D01*
X230280952Y-106559523D01*
X230328571Y-106511904D01*
X230423809Y-106464285D01*
X230661904Y-106464285D01*
X230757142Y-106511904D01*
X230804761Y-106559523D01*
X230852380Y-106654761D01*
X230852380Y-106892857D01*
X230804761Y-106988095D01*
X230757142Y-107035714D01*
X186861904Y-96152380D02*
X186861904Y-95152380D01*
X187100000Y-95152380D01*
X187242857Y-95200000D01*
X187338095Y-95295238D01*
X187385714Y-95390476D01*
X187433333Y-95580952D01*
X187433333Y-95723809D01*
X187385714Y-95914285D01*
X187338095Y-96009523D01*
X187242857Y-96104761D01*
X187100000Y-96152380D01*
X186861904Y-96152380D01*
X188290476Y-95152380D02*
X188100000Y-95152380D01*
X188004761Y-95200000D01*
X187957142Y-95247619D01*
X187861904Y-95390476D01*
X187814285Y-95580952D01*
X187814285Y-95961904D01*
X187861904Y-96057142D01*
X187909523Y-96104761D01*
X188004761Y-96152380D01*
X188195238Y-96152380D01*
X188290476Y-96104761D01*
X188338095Y-96057142D01*
X188385714Y-95961904D01*
X188385714Y-95723809D01*
X188338095Y-95628571D01*
X188290476Y-95580952D01*
X188195238Y-95533333D01*
X188004761Y-95533333D01*
X187909523Y-95580952D01*
X187861904Y-95628571D01*
X187814285Y-95723809D01*
X244261904Y-112552380D02*
X244261904Y-111552380D01*
X244500000Y-111552380D01*
X244642857Y-111600000D01*
X244738095Y-111695238D01*
X244785714Y-111790476D01*
X244833333Y-111980952D01*
X244833333Y-112123809D01*
X244785714Y-112314285D01*
X244738095Y-112409523D01*
X244642857Y-112504761D01*
X244500000Y-112552380D01*
X244261904Y-112552380D01*
X245166666Y-111552380D02*
X245833333Y-111552380D01*
X245404761Y-112552380D01*
X186861904Y-94352380D02*
X186861904Y-93352380D01*
X187100000Y-93352380D01*
X187242857Y-93400000D01*
X187338095Y-93495238D01*
X187385714Y-93590476D01*
X187433333Y-93780952D01*
X187433333Y-93923809D01*
X187385714Y-94114285D01*
X187338095Y-94209523D01*
X187242857Y-94304761D01*
X187100000Y-94352380D01*
X186861904Y-94352380D01*
X188004761Y-93780952D02*
X187909523Y-93733333D01*
X187861904Y-93685714D01*
X187814285Y-93590476D01*
X187814285Y-93542857D01*
X187861904Y-93447619D01*
X187909523Y-93400000D01*
X188004761Y-93352380D01*
X188195238Y-93352380D01*
X188290476Y-93400000D01*
X188338095Y-93447619D01*
X188385714Y-93542857D01*
X188385714Y-93590476D01*
X188338095Y-93685714D01*
X188290476Y-93733333D01*
X188195238Y-93780952D01*
X188004761Y-93780952D01*
X187909523Y-93828571D01*
X187861904Y-93876190D01*
X187814285Y-93971428D01*
X187814285Y-94161904D01*
X187861904Y-94257142D01*
X187909523Y-94304761D01*
X188004761Y-94352380D01*
X188195238Y-94352380D01*
X188290476Y-94304761D01*
X188338095Y-94257142D01*
X188385714Y-94161904D01*
X188385714Y-93971428D01*
X188338095Y-93876190D01*
X188290476Y-93828571D01*
X188195238Y-93780952D01*
X190766666Y-94728571D02*
X190433333Y-94728571D01*
X190433333Y-95252380D02*
X190433333Y-94252380D01*
X190909523Y-94252380D01*
X191814285Y-95252380D02*
X191242857Y-95252380D01*
X191528571Y-95252380D02*
X191528571Y-94252380D01*
X191433333Y-94395238D01*
X191338095Y-94490476D01*
X191242857Y-94538095D01*
X203866666Y-111152380D02*
X203866666Y-111866666D01*
X203819047Y-112009523D01*
X203723809Y-112104761D01*
X203580952Y-112152380D01*
X203485714Y-112152380D01*
X204295238Y-111247619D02*
X204342857Y-111200000D01*
X204438095Y-111152380D01*
X204676190Y-111152380D01*
X204771428Y-111200000D01*
X204819047Y-111247619D01*
X204866666Y-111342857D01*
X204866666Y-111438095D01*
X204819047Y-111580952D01*
X204247619Y-112152380D01*
X204866666Y-112152380D01*
X216466666Y-99652380D02*
X216466666Y-100366666D01*
X216419047Y-100509523D01*
X216323809Y-100604761D01*
X216180952Y-100652380D01*
X216085714Y-100652380D01*
X217371428Y-99985714D02*
X217371428Y-100652380D01*
X217133333Y-99604761D02*
X216895238Y-100319047D01*
X217514285Y-100319047D01*
X220966666Y-103252380D02*
X220966666Y-103966666D01*
X220919047Y-104109523D01*
X220823809Y-104204761D01*
X220680952Y-104252380D01*
X220585714Y-104252380D01*
X221442857Y-104252380D02*
X221442857Y-103252380D01*
X221823809Y-103252380D01*
X221919047Y-103300000D01*
X221966666Y-103347619D01*
X222014285Y-103442857D01*
X222014285Y-103585714D01*
X221966666Y-103680952D01*
X221919047Y-103728571D01*
X221823809Y-103776190D01*
X221442857Y-103776190D01*
X222966666Y-104252380D02*
X222395238Y-104252380D01*
X222680952Y-104252380D02*
X222680952Y-103252380D01*
X222585714Y-103395238D01*
X222490476Y-103490476D01*
X222395238Y-103538095D01*
X227233333Y-104852380D02*
X226757142Y-104852380D01*
X226757142Y-103852380D01*
X228090476Y-104852380D02*
X227519047Y-104852380D01*
X227804761Y-104852380D02*
X227804761Y-103852380D01*
X227709523Y-103995238D01*
X227614285Y-104090476D01*
X227519047Y-104138095D01*
X202347619Y-111895238D02*
X202300000Y-111990476D01*
X202204761Y-112085714D01*
X202061904Y-112228571D01*
X202014285Y-112323809D01*
X202014285Y-112419047D01*
X202252380Y-112371428D02*
X202204761Y-112466666D01*
X202109523Y-112561904D01*
X201919047Y-112609523D01*
X201585714Y-112609523D01*
X201395238Y-112561904D01*
X201300000Y-112466666D01*
X201252380Y-112371428D01*
X201252380Y-112180952D01*
X201300000Y-112085714D01*
X201395238Y-111990476D01*
X201585714Y-111942857D01*
X201919047Y-111942857D01*
X202109523Y-111990476D01*
X202204761Y-112085714D01*
X202252380Y-112180952D01*
X202252380Y-112371428D01*
X202252380Y-110990476D02*
X202252380Y-111561904D01*
X202252380Y-111276190D02*
X201252380Y-111276190D01*
X201395238Y-111371428D01*
X201490476Y-111466666D01*
X201538095Y-111561904D01*
X198647619Y-111395238D02*
X198600000Y-111490476D01*
X198504761Y-111585714D01*
X198361904Y-111728571D01*
X198314285Y-111823809D01*
X198314285Y-111919047D01*
X198552380Y-111871428D02*
X198504761Y-111966666D01*
X198409523Y-112061904D01*
X198219047Y-112109523D01*
X197885714Y-112109523D01*
X197695238Y-112061904D01*
X197600000Y-111966666D01*
X197552380Y-111871428D01*
X197552380Y-111680952D01*
X197600000Y-111585714D01*
X197695238Y-111490476D01*
X197885714Y-111442857D01*
X198219047Y-111442857D01*
X198409523Y-111490476D01*
X198504761Y-111585714D01*
X198552380Y-111680952D01*
X198552380Y-111871428D01*
X197647619Y-111061904D02*
X197600000Y-111014285D01*
X197552380Y-110919047D01*
X197552380Y-110680952D01*
X197600000Y-110585714D01*
X197647619Y-110538095D01*
X197742857Y-110490476D01*
X197838095Y-110490476D01*
X197980952Y-110538095D01*
X198552380Y-111109523D01*
X198552380Y-110490476D01*
X241404761Y-115047619D02*
X241309523Y-115000000D01*
X241214285Y-114904761D01*
X241071428Y-114761904D01*
X240976190Y-114714285D01*
X240880952Y-114714285D01*
X240928571Y-114952380D02*
X240833333Y-114904761D01*
X240738095Y-114809523D01*
X240690476Y-114619047D01*
X240690476Y-114285714D01*
X240738095Y-114095238D01*
X240833333Y-114000000D01*
X240928571Y-113952380D01*
X241119047Y-113952380D01*
X241214285Y-114000000D01*
X241309523Y-114095238D01*
X241357142Y-114285714D01*
X241357142Y-114619047D01*
X241309523Y-114809523D01*
X241214285Y-114904761D01*
X241119047Y-114952380D01*
X240928571Y-114952380D01*
X241690476Y-113952380D02*
X242309523Y-113952380D01*
X241976190Y-114333333D01*
X242119047Y-114333333D01*
X242214285Y-114380952D01*
X242261904Y-114428571D01*
X242309523Y-114523809D01*
X242309523Y-114761904D01*
X242261904Y-114857142D01*
X242214285Y-114904761D01*
X242119047Y-114952380D01*
X241833333Y-114952380D01*
X241738095Y-114904761D01*
X241690476Y-114857142D01*
X237404761Y-115047619D02*
X237309523Y-115000000D01*
X237214285Y-114904761D01*
X237071428Y-114761904D01*
X236976190Y-114714285D01*
X236880952Y-114714285D01*
X236928571Y-114952380D02*
X236833333Y-114904761D01*
X236738095Y-114809523D01*
X236690476Y-114619047D01*
X236690476Y-114285714D01*
X236738095Y-114095238D01*
X236833333Y-114000000D01*
X236928571Y-113952380D01*
X237119047Y-113952380D01*
X237214285Y-114000000D01*
X237309523Y-114095238D01*
X237357142Y-114285714D01*
X237357142Y-114619047D01*
X237309523Y-114809523D01*
X237214285Y-114904761D01*
X237119047Y-114952380D01*
X236928571Y-114952380D01*
X238214285Y-114285714D02*
X238214285Y-114952380D01*
X237976190Y-113904761D02*
X237738095Y-114619047D01*
X238357142Y-114619047D01*
X244904761Y-97047619D02*
X244809523Y-97000000D01*
X244714285Y-96904761D01*
X244571428Y-96761904D01*
X244476190Y-96714285D01*
X244380952Y-96714285D01*
X244428571Y-96952380D02*
X244333333Y-96904761D01*
X244238095Y-96809523D01*
X244190476Y-96619047D01*
X244190476Y-96285714D01*
X244238095Y-96095238D01*
X244333333Y-96000000D01*
X244428571Y-95952380D01*
X244619047Y-95952380D01*
X244714285Y-96000000D01*
X244809523Y-96095238D01*
X244857142Y-96285714D01*
X244857142Y-96619047D01*
X244809523Y-96809523D01*
X244714285Y-96904761D01*
X244619047Y-96952380D01*
X244428571Y-96952380D01*
X245761904Y-95952380D02*
X245285714Y-95952380D01*
X245238095Y-96428571D01*
X245285714Y-96380952D01*
X245380952Y-96333333D01*
X245619047Y-96333333D01*
X245714285Y-96380952D01*
X245761904Y-96428571D01*
X245809523Y-96523809D01*
X245809523Y-96761904D01*
X245761904Y-96857142D01*
X245714285Y-96904761D01*
X245619047Y-96952380D01*
X245380952Y-96952380D01*
X245285714Y-96904761D01*
X245238095Y-96857142D01*
X230462380Y-95595238D02*
X229986190Y-95928571D01*
X230462380Y-96166666D02*
X229462380Y-96166666D01*
X229462380Y-95785714D01*
X229510000Y-95690476D01*
X229557619Y-95642857D01*
X229652857Y-95595238D01*
X229795714Y-95595238D01*
X229890952Y-95642857D01*
X229938571Y-95690476D01*
X229986190Y-95785714D01*
X229986190Y-96166666D01*
X229462380Y-95309523D02*
X230462380Y-94976190D01*
X229462380Y-94642857D01*
X230462380Y-93785714D02*
X230462380Y-94357142D01*
X230462380Y-94071428D02*
X229462380Y-94071428D01*
X229605238Y-94166666D01*
X229700476Y-94261904D01*
X229748095Y-94357142D01*
X226166666Y-111004761D02*
X226309523Y-111052380D01*
X226547619Y-111052380D01*
X226642857Y-111004761D01*
X226690476Y-110957142D01*
X226738095Y-110861904D01*
X226738095Y-110766666D01*
X226690476Y-110671428D01*
X226642857Y-110623809D01*
X226547619Y-110576190D01*
X226357142Y-110528571D01*
X226261904Y-110480952D01*
X226214285Y-110433333D01*
X226166666Y-110338095D01*
X226166666Y-110242857D01*
X226214285Y-110147619D01*
X226261904Y-110100000D01*
X226357142Y-110052380D01*
X226595238Y-110052380D01*
X226738095Y-110100000D01*
X227071428Y-110052380D02*
X227309523Y-111052380D01*
X227500000Y-110338095D01*
X227690476Y-111052380D01*
X227928571Y-110052380D01*
X228261904Y-110147619D02*
X228309523Y-110100000D01*
X228404761Y-110052380D01*
X228642857Y-110052380D01*
X228738095Y-110100000D01*
X228785714Y-110147619D01*
X228833333Y-110242857D01*
X228833333Y-110338095D01*
X228785714Y-110480952D01*
X228214285Y-111052380D01*
X228833333Y-111052380D01*
X232066666Y-98104761D02*
X232209523Y-98152380D01*
X232447619Y-98152380D01*
X232542857Y-98104761D01*
X232590476Y-98057142D01*
X232638095Y-97961904D01*
X232638095Y-97866666D01*
X232590476Y-97771428D01*
X232542857Y-97723809D01*
X232447619Y-97676190D01*
X232257142Y-97628571D01*
X232161904Y-97580952D01*
X232114285Y-97533333D01*
X232066666Y-97438095D01*
X232066666Y-97342857D01*
X232114285Y-97247619D01*
X232161904Y-97200000D01*
X232257142Y-97152380D01*
X232495238Y-97152380D01*
X232638095Y-97200000D01*
X232971428Y-97152380D02*
X233209523Y-98152380D01*
X233400000Y-97438095D01*
X233590476Y-98152380D01*
X233828571Y-97152380D01*
X234114285Y-97152380D02*
X234733333Y-97152380D01*
X234400000Y-97533333D01*
X234542857Y-97533333D01*
X234638095Y-97580952D01*
X234685714Y-97628571D01*
X234733333Y-97723809D01*
X234733333Y-97961904D01*
X234685714Y-98057142D01*
X234638095Y-98104761D01*
X234542857Y-98152380D01*
X234257142Y-98152380D01*
X234161904Y-98104761D01*
X234114285Y-98057142D01*
X216338095Y-113652380D02*
X216338095Y-114461904D01*
X216385714Y-114557142D01*
X216433333Y-114604761D01*
X216528571Y-114652380D01*
X216719047Y-114652380D01*
X216814285Y-114604761D01*
X216861904Y-114557142D01*
X216909523Y-114461904D01*
X216909523Y-113652380D01*
X217909523Y-114652380D02*
X217338095Y-114652380D01*
X217623809Y-114652380D02*
X217623809Y-113652380D01*
X217528571Y-113795238D01*
X217433333Y-113890476D01*
X217338095Y-113938095D01*
X196738095Y-96652380D02*
X196738095Y-97461904D01*
X196785714Y-97557142D01*
X196833333Y-97604761D01*
X196928571Y-97652380D01*
X197119047Y-97652380D01*
X197214285Y-97604761D01*
X197261904Y-97557142D01*
X197309523Y-97461904D01*
X197309523Y-96652380D01*
X197738095Y-96747619D02*
X197785714Y-96700000D01*
X197880952Y-96652380D01*
X198119047Y-96652380D01*
X198214285Y-96700000D01*
X198261904Y-96747619D01*
X198309523Y-96842857D01*
X198309523Y-96938095D01*
X198261904Y-97080952D01*
X197690476Y-97652380D01*
X198309523Y-97652380D01*
X238238095Y-101952380D02*
X238238095Y-102761904D01*
X238285714Y-102857142D01*
X238333333Y-102904761D01*
X238428571Y-102952380D01*
X238619047Y-102952380D01*
X238714285Y-102904761D01*
X238761904Y-102857142D01*
X238809523Y-102761904D01*
X238809523Y-101952380D01*
X239190476Y-101952380D02*
X239809523Y-101952380D01*
X239476190Y-102333333D01*
X239619047Y-102333333D01*
X239714285Y-102380952D01*
X239761904Y-102428571D01*
X239809523Y-102523809D01*
X239809523Y-102761904D01*
X239761904Y-102857142D01*
X239714285Y-102904761D01*
X239619047Y-102952380D01*
X239333333Y-102952380D01*
X239238095Y-102904761D01*
X239190476Y-102857142D01*
X224038095Y-99652380D02*
X224038095Y-100461904D01*
X224085714Y-100557142D01*
X224133333Y-100604761D01*
X224228571Y-100652380D01*
X224419047Y-100652380D01*
X224514285Y-100604761D01*
X224561904Y-100557142D01*
X224609523Y-100461904D01*
X224609523Y-99652380D01*
X225514285Y-99985714D02*
X225514285Y-100652380D01*
X225276190Y-99604761D02*
X225038095Y-100319047D01*
X225657142Y-100319047D01*
X216252380Y-105011904D02*
X217061904Y-105011904D01*
X217157142Y-104964285D01*
X217204761Y-104916666D01*
X217252380Y-104821428D01*
X217252380Y-104630952D01*
X217204761Y-104535714D01*
X217157142Y-104488095D01*
X217061904Y-104440476D01*
X216252380Y-104440476D01*
X216252380Y-103488095D02*
X216252380Y-103964285D01*
X216728571Y-104011904D01*
X216680952Y-103964285D01*
X216633333Y-103869047D01*
X216633333Y-103630952D01*
X216680952Y-103535714D01*
X216728571Y-103488095D01*
X216823809Y-103440476D01*
X217061904Y-103440476D01*
X217157142Y-103488095D01*
X217204761Y-103535714D01*
X217252380Y-103630952D01*
X217252380Y-103869047D01*
X217204761Y-103964285D01*
X217157142Y-104011904D01*
X197338095Y-108752380D02*
X197338095Y-109561904D01*
X197385714Y-109657142D01*
X197433333Y-109704761D01*
X197528571Y-109752380D01*
X197719047Y-109752380D01*
X197814285Y-109704761D01*
X197861904Y-109657142D01*
X197909523Y-109561904D01*
X197909523Y-108752380D01*
X198814285Y-108752380D02*
X198623809Y-108752380D01*
X198528571Y-108800000D01*
X198480952Y-108847619D01*
X198385714Y-108990476D01*
X198338095Y-109180952D01*
X198338095Y-109561904D01*
X198385714Y-109657142D01*
X198433333Y-109704761D01*
X198528571Y-109752380D01*
X198719047Y-109752380D01*
X198814285Y-109704761D01*
X198861904Y-109657142D01*
X198909523Y-109561904D01*
X198909523Y-109323809D01*
X198861904Y-109228571D01*
X198814285Y-109180952D01*
X198719047Y-109133333D01*
X198528571Y-109133333D01*
X198433333Y-109180952D01*
X198385714Y-109228571D01*
X198338095Y-109323809D01*
X214523809Y-93976190D02*
X214523809Y-94452380D01*
X214190476Y-93452380D02*
X214523809Y-93976190D01*
X214857142Y-93452380D01*
X215714285Y-94452380D02*
X215142857Y-94452380D01*
X215428571Y-94452380D02*
X215428571Y-93452380D01*
X215333333Y-93595238D01*
X215238095Y-93690476D01*
X215142857Y-93738095D01*
X214020833Y-113327142D02*
X213973214Y-113374761D01*
X213830357Y-113422380D01*
X213735119Y-113422380D01*
X213592261Y-113374761D01*
X213497023Y-113279523D01*
X213449404Y-113184285D01*
X213401785Y-112993809D01*
X213401785Y-112850952D01*
X213449404Y-112660476D01*
X213497023Y-112565238D01*
X213592261Y-112470000D01*
X213735119Y-112422380D01*
X213830357Y-112422380D01*
X213973214Y-112470000D01*
X214020833Y-112517619D01*
X214973214Y-113422380D02*
X214401785Y-113422380D01*
X214687500Y-113422380D02*
X214687500Y-112422380D01*
X214592261Y-112565238D01*
X214497023Y-112660476D01*
X214401785Y-112708095D01*
X191583333Y-109507142D02*
X191535714Y-109554761D01*
X191392857Y-109602380D01*
X191297619Y-109602380D01*
X191154761Y-109554761D01*
X191059523Y-109459523D01*
X191011904Y-109364285D01*
X190964285Y-109173809D01*
X190964285Y-109030952D01*
X191011904Y-108840476D01*
X191059523Y-108745238D01*
X191154761Y-108650000D01*
X191297619Y-108602380D01*
X191392857Y-108602380D01*
X191535714Y-108650000D01*
X191583333Y-108697619D01*
X191964285Y-108697619D02*
X192011904Y-108650000D01*
X192107142Y-108602380D01*
X192345238Y-108602380D01*
X192440476Y-108650000D01*
X192488095Y-108697619D01*
X192535714Y-108792857D01*
X192535714Y-108888095D01*
X192488095Y-109030952D01*
X191916666Y-109602380D01*
X192535714Y-109602380D01*
X194683333Y-95757142D02*
X194635714Y-95804761D01*
X194492857Y-95852380D01*
X194397619Y-95852380D01*
X194254761Y-95804761D01*
X194159523Y-95709523D01*
X194111904Y-95614285D01*
X194064285Y-95423809D01*
X194064285Y-95280952D01*
X194111904Y-95090476D01*
X194159523Y-94995238D01*
X194254761Y-94900000D01*
X194397619Y-94852380D01*
X194492857Y-94852380D01*
X194635714Y-94900000D01*
X194683333Y-94947619D01*
X195016666Y-94852380D02*
X195635714Y-94852380D01*
X195302380Y-95233333D01*
X195445238Y-95233333D01*
X195540476Y-95280952D01*
X195588095Y-95328571D01*
X195635714Y-95423809D01*
X195635714Y-95661904D01*
X195588095Y-95757142D01*
X195540476Y-95804761D01*
X195445238Y-95852380D01*
X195159523Y-95852380D01*
X195064285Y-95804761D01*
X195016666Y-95757142D01*
X199995833Y-104187142D02*
X199948214Y-104234761D01*
X199805357Y-104282380D01*
X199710119Y-104282380D01*
X199567261Y-104234761D01*
X199472023Y-104139523D01*
X199424404Y-104044285D01*
X199376785Y-103853809D01*
X199376785Y-103710952D01*
X199424404Y-103520476D01*
X199472023Y-103425238D01*
X199567261Y-103330000D01*
X199710119Y-103282380D01*
X199805357Y-103282380D01*
X199948214Y-103330000D01*
X199995833Y-103377619D01*
X200852976Y-103615714D02*
X200852976Y-104282380D01*
X200614880Y-103234761D02*
X200376785Y-103949047D01*
X200995833Y-103949047D01*
X205333333Y-108457142D02*
X205285714Y-108504761D01*
X205142857Y-108552380D01*
X205047619Y-108552380D01*
X204904761Y-108504761D01*
X204809523Y-108409523D01*
X204761904Y-108314285D01*
X204714285Y-108123809D01*
X204714285Y-107980952D01*
X204761904Y-107790476D01*
X204809523Y-107695238D01*
X204904761Y-107600000D01*
X205047619Y-107552380D01*
X205142857Y-107552380D01*
X205285714Y-107600000D01*
X205333333Y-107647619D01*
X206190476Y-107552380D02*
X206000000Y-107552380D01*
X205904761Y-107600000D01*
X205857142Y-107647619D01*
X205761904Y-107790476D01*
X205714285Y-107980952D01*
X205714285Y-108361904D01*
X205761904Y-108457142D01*
X205809523Y-108504761D01*
X205904761Y-108552380D01*
X206095238Y-108552380D01*
X206190476Y-108504761D01*
X206238095Y-108457142D01*
X206285714Y-108361904D01*
X206285714Y-108123809D01*
X206238095Y-108028571D01*
X206190476Y-107980952D01*
X206095238Y-107933333D01*
X205904761Y-107933333D01*
X205809523Y-107980952D01*
X205761904Y-108028571D01*
X205714285Y-108123809D01*
X218033333Y-98257142D02*
X217985714Y-98304761D01*
X217842857Y-98352380D01*
X217747619Y-98352380D01*
X217604761Y-98304761D01*
X217509523Y-98209523D01*
X217461904Y-98114285D01*
X217414285Y-97923809D01*
X217414285Y-97780952D01*
X217461904Y-97590476D01*
X217509523Y-97495238D01*
X217604761Y-97400000D01*
X217747619Y-97352380D01*
X217842857Y-97352380D01*
X217985714Y-97400000D01*
X218033333Y-97447619D01*
X218366666Y-97352380D02*
X219033333Y-97352380D01*
X218604761Y-98352380D01*
X218433333Y-96357142D02*
X218385714Y-96404761D01*
X218242857Y-96452380D01*
X218147619Y-96452380D01*
X218004761Y-96404761D01*
X217909523Y-96309523D01*
X217861904Y-96214285D01*
X217814285Y-96023809D01*
X217814285Y-95880952D01*
X217861904Y-95690476D01*
X217909523Y-95595238D01*
X218004761Y-95500000D01*
X218147619Y-95452380D01*
X218242857Y-95452380D01*
X218385714Y-95500000D01*
X218433333Y-95547619D01*
X218909523Y-96452380D02*
X219100000Y-96452380D01*
X219195238Y-96404761D01*
X219242857Y-96357142D01*
X219338095Y-96214285D01*
X219385714Y-96023809D01*
X219385714Y-95642857D01*
X219338095Y-95547619D01*
X219290476Y-95500000D01*
X219195238Y-95452380D01*
X219004761Y-95452380D01*
X218909523Y-95500000D01*
X218861904Y-95547619D01*
X218814285Y-95642857D01*
X218814285Y-95880952D01*
X218861904Y-95976190D01*
X218909523Y-96023809D01*
X219004761Y-96071428D01*
X219195238Y-96071428D01*
X219290476Y-96023809D01*
X219338095Y-95976190D01*
X219385714Y-95880952D01*
X200457142Y-96657142D02*
X200409523Y-96704761D01*
X200266666Y-96752380D01*
X200171428Y-96752380D01*
X200028571Y-96704761D01*
X199933333Y-96609523D01*
X199885714Y-96514285D01*
X199838095Y-96323809D01*
X199838095Y-96180952D01*
X199885714Y-95990476D01*
X199933333Y-95895238D01*
X200028571Y-95800000D01*
X200171428Y-95752380D01*
X200266666Y-95752380D01*
X200409523Y-95800000D01*
X200457142Y-95847619D01*
X201409523Y-96752380D02*
X200838095Y-96752380D01*
X201123809Y-96752380D02*
X201123809Y-95752380D01*
X201028571Y-95895238D01*
X200933333Y-95990476D01*
X200838095Y-96038095D01*
X202028571Y-95752380D02*
X202123809Y-95752380D01*
X202219047Y-95800000D01*
X202266666Y-95847619D01*
X202314285Y-95942857D01*
X202361904Y-96133333D01*
X202361904Y-96371428D01*
X202314285Y-96561904D01*
X202266666Y-96657142D01*
X202219047Y-96704761D01*
X202123809Y-96752380D01*
X202028571Y-96752380D01*
X201933333Y-96704761D01*
X201885714Y-96657142D01*
X201838095Y-96561904D01*
X201790476Y-96371428D01*
X201790476Y-96133333D01*
X201838095Y-95942857D01*
X201885714Y-95847619D01*
X201933333Y-95800000D01*
X202028571Y-95752380D01*
X241357142Y-98037142D02*
X241309523Y-98084761D01*
X241166666Y-98132380D01*
X241071428Y-98132380D01*
X240928571Y-98084761D01*
X240833333Y-97989523D01*
X240785714Y-97894285D01*
X240738095Y-97703809D01*
X240738095Y-97560952D01*
X240785714Y-97370476D01*
X240833333Y-97275238D01*
X240928571Y-97180000D01*
X241071428Y-97132380D01*
X241166666Y-97132380D01*
X241309523Y-97180000D01*
X241357142Y-97227619D01*
X242309523Y-98132380D02*
X241738095Y-98132380D01*
X242023809Y-98132380D02*
X242023809Y-97132380D01*
X241928571Y-97275238D01*
X241833333Y-97370476D01*
X241738095Y-97418095D01*
X242690476Y-97227619D02*
X242738095Y-97180000D01*
X242833333Y-97132380D01*
X243071428Y-97132380D01*
X243166666Y-97180000D01*
X243214285Y-97227619D01*
X243261904Y-97322857D01*
X243261904Y-97418095D01*
X243214285Y-97560952D01*
X242642857Y-98132380D01*
X243261904Y-98132380D01*
X241457142Y-108557142D02*
X241409523Y-108604761D01*
X241266666Y-108652380D01*
X241171428Y-108652380D01*
X241028571Y-108604761D01*
X240933333Y-108509523D01*
X240885714Y-108414285D01*
X240838095Y-108223809D01*
X240838095Y-108080952D01*
X240885714Y-107890476D01*
X240933333Y-107795238D01*
X241028571Y-107700000D01*
X241171428Y-107652380D01*
X241266666Y-107652380D01*
X241409523Y-107700000D01*
X241457142Y-107747619D01*
X242409523Y-108652380D02*
X241838095Y-108652380D01*
X242123809Y-108652380D02*
X242123809Y-107652380D01*
X242028571Y-107795238D01*
X241933333Y-107890476D01*
X241838095Y-107938095D01*
X243266666Y-107985714D02*
X243266666Y-108652380D01*
X243028571Y-107604761D02*
X242790476Y-108319047D01*
X243409523Y-108319047D01*
X214902380Y-111804166D02*
X214426190Y-112137500D01*
X214902380Y-112375595D02*
X213902380Y-112375595D01*
X213902380Y-111994642D01*
X213950000Y-111899404D01*
X213997619Y-111851785D01*
X214092857Y-111804166D01*
X214235714Y-111804166D01*
X214330952Y-111851785D01*
X214378571Y-111899404D01*
X214426190Y-111994642D01*
X214426190Y-112375595D01*
X214902380Y-110851785D02*
X214902380Y-111423214D01*
X214902380Y-111137500D02*
X213902380Y-111137500D01*
X214045238Y-111232738D01*
X214140476Y-111327976D01*
X214188095Y-111423214D01*
X220482380Y-112454166D02*
X220006190Y-112787500D01*
X220482380Y-113025595D02*
X219482380Y-113025595D01*
X219482380Y-112644642D01*
X219530000Y-112549404D01*
X219577619Y-112501785D01*
X219672857Y-112454166D01*
X219815714Y-112454166D01*
X219910952Y-112501785D01*
X219958571Y-112549404D01*
X220006190Y-112644642D01*
X220006190Y-113025595D01*
X219577619Y-112073214D02*
X219530000Y-112025595D01*
X219482380Y-111930357D01*
X219482380Y-111692261D01*
X219530000Y-111597023D01*
X219577619Y-111549404D01*
X219672857Y-111501785D01*
X219768095Y-111501785D01*
X219910952Y-111549404D01*
X220482380Y-112120833D01*
X220482380Y-111501785D01*
X188970833Y-98722380D02*
X188637500Y-98246190D01*
X188399404Y-98722380D02*
X188399404Y-97722380D01*
X188780357Y-97722380D01*
X188875595Y-97770000D01*
X188923214Y-97817619D01*
X188970833Y-97912857D01*
X188970833Y-98055714D01*
X188923214Y-98150952D01*
X188875595Y-98198571D01*
X188780357Y-98246190D01*
X188399404Y-98246190D01*
X189304166Y-97722380D02*
X189923214Y-97722380D01*
X189589880Y-98103333D01*
X189732738Y-98103333D01*
X189827976Y-98150952D01*
X189875595Y-98198571D01*
X189923214Y-98293809D01*
X189923214Y-98531904D01*
X189875595Y-98627142D01*
X189827976Y-98674761D01*
X189732738Y-98722380D01*
X189447023Y-98722380D01*
X189351785Y-98674761D01*
X189304166Y-98627142D01*
X189589880Y-100011666D02*
X189113690Y-100345000D01*
X189589880Y-100583095D02*
X188589880Y-100583095D01*
X188589880Y-100202142D01*
X188637500Y-100106904D01*
X188685119Y-100059285D01*
X188780357Y-100011666D01*
X188923214Y-100011666D01*
X189018452Y-100059285D01*
X189066071Y-100106904D01*
X189113690Y-100202142D01*
X189113690Y-100583095D01*
X188923214Y-99154523D02*
X189589880Y-99154523D01*
X188542261Y-99392619D02*
X189256547Y-99630714D01*
X189256547Y-99011666D01*
X237733333Y-98052380D02*
X237400000Y-97576190D01*
X237161904Y-98052380D02*
X237161904Y-97052380D01*
X237542857Y-97052380D01*
X237638095Y-97100000D01*
X237685714Y-97147619D01*
X237733333Y-97242857D01*
X237733333Y-97385714D01*
X237685714Y-97480952D01*
X237638095Y-97528571D01*
X237542857Y-97576190D01*
X237161904Y-97576190D01*
X238638095Y-97052380D02*
X238161904Y-97052380D01*
X238114285Y-97528571D01*
X238161904Y-97480952D01*
X238257142Y-97433333D01*
X238495238Y-97433333D01*
X238590476Y-97480952D01*
X238638095Y-97528571D01*
X238685714Y-97623809D01*
X238685714Y-97861904D01*
X238638095Y-97957142D01*
X238590476Y-98004761D01*
X238495238Y-98052380D01*
X238257142Y-98052380D01*
X238161904Y-98004761D01*
X238114285Y-97957142D01*
X182833333Y-97552380D02*
X182500000Y-97076190D01*
X182261904Y-97552380D02*
X182261904Y-96552380D01*
X182642857Y-96552380D01*
X182738095Y-96600000D01*
X182785714Y-96647619D01*
X182833333Y-96742857D01*
X182833333Y-96885714D01*
X182785714Y-96980952D01*
X182738095Y-97028571D01*
X182642857Y-97076190D01*
X182261904Y-97076190D01*
X183690476Y-96552380D02*
X183500000Y-96552380D01*
X183404761Y-96600000D01*
X183357142Y-96647619D01*
X183261904Y-96790476D01*
X183214285Y-96980952D01*
X183214285Y-97361904D01*
X183261904Y-97457142D01*
X183309523Y-97504761D01*
X183404761Y-97552380D01*
X183595238Y-97552380D01*
X183690476Y-97504761D01*
X183738095Y-97457142D01*
X183785714Y-97361904D01*
X183785714Y-97123809D01*
X183738095Y-97028571D01*
X183690476Y-96980952D01*
X183595238Y-96933333D01*
X183404761Y-96933333D01*
X183309523Y-96980952D01*
X183261904Y-97028571D01*
X183214285Y-97123809D01*
X235970833Y-109857380D02*
X235637500Y-109381190D01*
X235399404Y-109857380D02*
X235399404Y-108857380D01*
X235780357Y-108857380D01*
X235875595Y-108905000D01*
X235923214Y-108952619D01*
X235970833Y-109047857D01*
X235970833Y-109190714D01*
X235923214Y-109285952D01*
X235875595Y-109333571D01*
X235780357Y-109381190D01*
X235399404Y-109381190D01*
X236304166Y-108857380D02*
X236970833Y-108857380D01*
X236542261Y-109857380D01*
X235733333Y-98052380D02*
X235400000Y-97576190D01*
X235161904Y-98052380D02*
X235161904Y-97052380D01*
X235542857Y-97052380D01*
X235638095Y-97100000D01*
X235685714Y-97147619D01*
X235733333Y-97242857D01*
X235733333Y-97385714D01*
X235685714Y-97480952D01*
X235638095Y-97528571D01*
X235542857Y-97576190D01*
X235161904Y-97576190D01*
X236304761Y-97480952D02*
X236209523Y-97433333D01*
X236161904Y-97385714D01*
X236114285Y-97290476D01*
X236114285Y-97242857D01*
X236161904Y-97147619D01*
X236209523Y-97100000D01*
X236304761Y-97052380D01*
X236495238Y-97052380D01*
X236590476Y-97100000D01*
X236638095Y-97147619D01*
X236685714Y-97242857D01*
X236685714Y-97290476D01*
X236638095Y-97385714D01*
X236590476Y-97433333D01*
X236495238Y-97480952D01*
X236304761Y-97480952D01*
X236209523Y-97528571D01*
X236161904Y-97576190D01*
X236114285Y-97671428D01*
X236114285Y-97861904D01*
X236161904Y-97957142D01*
X236209523Y-98004761D01*
X236304761Y-98052380D01*
X236495238Y-98052380D01*
X236590476Y-98004761D01*
X236638095Y-97957142D01*
X236685714Y-97861904D01*
X236685714Y-97671428D01*
X236638095Y-97576190D01*
X236590476Y-97528571D01*
X236495238Y-97480952D01*
X180933333Y-101952380D02*
X180600000Y-101476190D01*
X180361904Y-101952380D02*
X180361904Y-100952380D01*
X180742857Y-100952380D01*
X180838095Y-101000000D01*
X180885714Y-101047619D01*
X180933333Y-101142857D01*
X180933333Y-101285714D01*
X180885714Y-101380952D01*
X180838095Y-101428571D01*
X180742857Y-101476190D01*
X180361904Y-101476190D01*
X181409523Y-101952380D02*
X181600000Y-101952380D01*
X181695238Y-101904761D01*
X181742857Y-101857142D01*
X181838095Y-101714285D01*
X181885714Y-101523809D01*
X181885714Y-101142857D01*
X181838095Y-101047619D01*
X181790476Y-101000000D01*
X181695238Y-100952380D01*
X181504761Y-100952380D01*
X181409523Y-101000000D01*
X181361904Y-101047619D01*
X181314285Y-101142857D01*
X181314285Y-101380952D01*
X181361904Y-101476190D01*
X181409523Y-101523809D01*
X181504761Y-101571428D01*
X181695238Y-101571428D01*
X181790476Y-101523809D01*
X181838095Y-101476190D01*
X181885714Y-101380952D01*
X199519642Y-99872380D02*
X199186309Y-99396190D01*
X198948214Y-99872380D02*
X198948214Y-98872380D01*
X199329166Y-98872380D01*
X199424404Y-98920000D01*
X199472023Y-98967619D01*
X199519642Y-99062857D01*
X199519642Y-99205714D01*
X199472023Y-99300952D01*
X199424404Y-99348571D01*
X199329166Y-99396190D01*
X198948214Y-99396190D01*
X200472023Y-99872380D02*
X199900595Y-99872380D01*
X200186309Y-99872380D02*
X200186309Y-98872380D01*
X200091071Y-99015238D01*
X199995833Y-99110476D01*
X199900595Y-99158095D01*
X201091071Y-98872380D02*
X201186309Y-98872380D01*
X201281547Y-98920000D01*
X201329166Y-98967619D01*
X201376785Y-99062857D01*
X201424404Y-99253333D01*
X201424404Y-99491428D01*
X201376785Y-99681904D01*
X201329166Y-99777142D01*
X201281547Y-99824761D01*
X201186309Y-99872380D01*
X201091071Y-99872380D01*
X200995833Y-99824761D01*
X200948214Y-99777142D01*
X200900595Y-99681904D01*
X200852976Y-99491428D01*
X200852976Y-99253333D01*
X200900595Y-99062857D01*
X200948214Y-98967619D01*
X200995833Y-98920000D01*
X201091071Y-98872380D01*
X227222380Y-103230357D02*
X226746190Y-103563690D01*
X227222380Y-103801785D02*
X226222380Y-103801785D01*
X226222380Y-103420833D01*
X226270000Y-103325595D01*
X226317619Y-103277976D01*
X226412857Y-103230357D01*
X226555714Y-103230357D01*
X226650952Y-103277976D01*
X226698571Y-103325595D01*
X226746190Y-103420833D01*
X226746190Y-103801785D01*
X227222380Y-102277976D02*
X227222380Y-102849404D01*
X227222380Y-102563690D02*
X226222380Y-102563690D01*
X226365238Y-102658928D01*
X226460476Y-102754166D01*
X226508095Y-102849404D01*
X227222380Y-101325595D02*
X227222380Y-101897023D01*
X227222380Y-101611309D02*
X226222380Y-101611309D01*
X226365238Y-101706547D01*
X226460476Y-101801785D01*
X226508095Y-101897023D01*
X229757142Y-99452380D02*
X229423809Y-98976190D01*
X229185714Y-99452380D02*
X229185714Y-98452380D01*
X229566666Y-98452380D01*
X229661904Y-98500000D01*
X229709523Y-98547619D01*
X229757142Y-98642857D01*
X229757142Y-98785714D01*
X229709523Y-98880952D01*
X229661904Y-98928571D01*
X229566666Y-98976190D01*
X229185714Y-98976190D01*
X230709523Y-99452380D02*
X230138095Y-99452380D01*
X230423809Y-99452380D02*
X230423809Y-98452380D01*
X230328571Y-98595238D01*
X230233333Y-98690476D01*
X230138095Y-98738095D01*
X231090476Y-98547619D02*
X231138095Y-98500000D01*
X231233333Y-98452380D01*
X231471428Y-98452380D01*
X231566666Y-98500000D01*
X231614285Y-98547619D01*
X231661904Y-98642857D01*
X231661904Y-98738095D01*
X231614285Y-98880952D01*
X231042857Y-99452380D01*
X231661904Y-99452380D01*
X232852380Y-113505357D02*
X232376190Y-113838690D01*
X232852380Y-114076785D02*
X231852380Y-114076785D01*
X231852380Y-113695833D01*
X231900000Y-113600595D01*
X231947619Y-113552976D01*
X232042857Y-113505357D01*
X232185714Y-113505357D01*
X232280952Y-113552976D01*
X232328571Y-113600595D01*
X232376190Y-113695833D01*
X232376190Y-114076785D01*
X232852380Y-112552976D02*
X232852380Y-113124404D01*
X232852380Y-112838690D02*
X231852380Y-112838690D01*
X231995238Y-112933928D01*
X232090476Y-113029166D01*
X232138095Y-113124404D01*
X231852380Y-112219642D02*
X231852380Y-111600595D01*
X232233333Y-111933928D01*
X232233333Y-111791071D01*
X232280952Y-111695833D01*
X232328571Y-111648214D01*
X232423809Y-111600595D01*
X232661904Y-111600595D01*
X232757142Y-111648214D01*
X232804761Y-111695833D01*
X232852380Y-111791071D01*
X232852380Y-112076785D01*
X232804761Y-112172023D01*
X232757142Y-112219642D01*
X233852380Y-105542857D02*
X233376190Y-105876190D01*
X233852380Y-106114285D02*
X232852380Y-106114285D01*
X232852380Y-105733333D01*
X232900000Y-105638095D01*
X232947619Y-105590476D01*
X233042857Y-105542857D01*
X233185714Y-105542857D01*
X233280952Y-105590476D01*
X233328571Y-105638095D01*
X233376190Y-105733333D01*
X233376190Y-106114285D01*
X233852380Y-104590476D02*
X233852380Y-105161904D01*
X233852380Y-104876190D02*
X232852380Y-104876190D01*
X232995238Y-104971428D01*
X233090476Y-105066666D01*
X233138095Y-105161904D01*
X233185714Y-103733333D02*
X233852380Y-103733333D01*
X232804761Y-103971428D02*
X233519047Y-104209523D01*
X233519047Y-103590476D01*
X241057142Y-95022380D02*
X240723809Y-94546190D01*
X240485714Y-95022380D02*
X240485714Y-94022380D01*
X240866666Y-94022380D01*
X240961904Y-94070000D01*
X241009523Y-94117619D01*
X241057142Y-94212857D01*
X241057142Y-94355714D01*
X241009523Y-94450952D01*
X240961904Y-94498571D01*
X240866666Y-94546190D01*
X240485714Y-94546190D01*
X242009523Y-95022380D02*
X241438095Y-95022380D01*
X241723809Y-95022380D02*
X241723809Y-94022380D01*
X241628571Y-94165238D01*
X241533333Y-94260476D01*
X241438095Y-94308095D01*
X242914285Y-94022380D02*
X242438095Y-94022380D01*
X242390476Y-94498571D01*
X242438095Y-94450952D01*
X242533333Y-94403333D01*
X242771428Y-94403333D01*
X242866666Y-94450952D01*
X242914285Y-94498571D01*
X242961904Y-94593809D01*
X242961904Y-94831904D01*
X242914285Y-94927142D01*
X242866666Y-94974761D01*
X242771428Y-95022380D01*
X242533333Y-95022380D01*
X242438095Y-94974761D01*
X242390476Y-94927142D01*
X243857142Y-106052380D02*
X243523809Y-105576190D01*
X243285714Y-106052380D02*
X243285714Y-105052380D01*
X243666666Y-105052380D01*
X243761904Y-105100000D01*
X243809523Y-105147619D01*
X243857142Y-105242857D01*
X243857142Y-105385714D01*
X243809523Y-105480952D01*
X243761904Y-105528571D01*
X243666666Y-105576190D01*
X243285714Y-105576190D01*
X244809523Y-106052380D02*
X244238095Y-106052380D01*
X244523809Y-106052380D02*
X244523809Y-105052380D01*
X244428571Y-105195238D01*
X244333333Y-105290476D01*
X244238095Y-105338095D01*
X245380952Y-105480952D02*
X245285714Y-105433333D01*
X245238095Y-105385714D01*
X245190476Y-105290476D01*
X245190476Y-105242857D01*
X245238095Y-105147619D01*
X245285714Y-105100000D01*
X245380952Y-105052380D01*
X245571428Y-105052380D01*
X245666666Y-105100000D01*
X245714285Y-105147619D01*
X245761904Y-105242857D01*
X245761904Y-105290476D01*
X245714285Y-105385714D01*
X245666666Y-105433333D01*
X245571428Y-105480952D01*
X245380952Y-105480952D01*
X245285714Y-105528571D01*
X245238095Y-105576190D01*
X245190476Y-105671428D01*
X245190476Y-105861904D01*
X245238095Y-105957142D01*
X245285714Y-106004761D01*
X245380952Y-106052380D01*
X245571428Y-106052380D01*
X245666666Y-106004761D01*
X245714285Y-105957142D01*
X245761904Y-105861904D01*
X245761904Y-105671428D01*
X245714285Y-105576190D01*
X245666666Y-105528571D01*
X245571428Y-105480952D01*
X184327380Y-113505357D02*
X183851190Y-113838690D01*
X184327380Y-114076785D02*
X183327380Y-114076785D01*
X183327380Y-113695833D01*
X183375000Y-113600595D01*
X183422619Y-113552976D01*
X183517857Y-113505357D01*
X183660714Y-113505357D01*
X183755952Y-113552976D01*
X183803571Y-113600595D01*
X183851190Y-113695833D01*
X183851190Y-114076785D01*
X184327380Y-112552976D02*
X184327380Y-113124404D01*
X184327380Y-112838690D02*
X183327380Y-112838690D01*
X183470238Y-112933928D01*
X183565476Y-113029166D01*
X183613095Y-113124404D01*
X184327380Y-112076785D02*
X184327380Y-111886309D01*
X184279761Y-111791071D01*
X184232142Y-111743452D01*
X184089285Y-111648214D01*
X183898809Y-111600595D01*
X183517857Y-111600595D01*
X183422619Y-111648214D01*
X183375000Y-111695833D01*
X183327380Y-111791071D01*
X183327380Y-111981547D01*
X183375000Y-112076785D01*
X183422619Y-112124404D01*
X183517857Y-112172023D01*
X183755952Y-112172023D01*
X183851190Y-112124404D01*
X183898809Y-112076785D01*
X183946428Y-111981547D01*
X183946428Y-111791071D01*
X183898809Y-111695833D01*
X183851190Y-111648214D01*
X183755952Y-111600595D01*
M02*
