G04 #@! TF.GenerationSoftware,KiCad,Pcbnew,(5.1.4)-1*
G04 #@! TF.CreationDate,2020-09-16T20:01:52+02:00*
G04 #@! TF.ProjectId,RPM,52504d2e-6b69-4636-9164-5f7063625858,rev?*
G04 #@! TF.SameCoordinates,Original*
G04 #@! TF.FileFunction,Copper,L2,Bot*
G04 #@! TF.FilePolarity,Positive*
%FSLAX46Y46*%
G04 Gerber Fmt 4.6, Leading zero omitted, Abs format (unit mm)*
G04 Created by KiCad (PCBNEW (5.1.4)-1) date 2020-09-16 20:01:52*
%MOMM*%
%LPD*%
G04 APERTURE LIST*
%ADD10R,1.800000X1.800000*%
%ADD11C,1.800000*%
%ADD12R,2.300000X0.500000*%
%ADD13R,2.500000X2.000000*%
%ADD14C,0.100000*%
%ADD15C,1.200000*%
%ADD16O,1.200000X1.750000*%
%ADD17R,1.700000X1.700000*%
%ADD18O,1.700000X1.700000*%
%ADD19C,0.500000*%
%ADD20C,1.440000*%
%ADD21C,1.524000*%
%ADD22O,1.000000X1.800000*%
%ADD23R,2.950000X4.500000*%
%ADD24C,0.600000*%
%ADD25C,1.500000*%
%ADD26C,1.600000*%
%ADD27O,1.600000X1.600000*%
%ADD28C,0.800000*%
%ADD29C,0.250000*%
%ADD30C,0.500000*%
%ADD31C,0.200000*%
G04 APERTURE END LIST*
D10*
X245000000Y-110000000D03*
D11*
X245000000Y-107460000D03*
D12*
X187600000Y-105800000D03*
X187600000Y-105000000D03*
X187600000Y-104200000D03*
X187600000Y-103400000D03*
X187600000Y-102600000D03*
D13*
X187600000Y-108650000D03*
X187600000Y-99750000D03*
X182100000Y-108650000D03*
X182100000Y-99750000D03*
D14*
G36*
X207674505Y-111326204D02*
G01*
X207698773Y-111329804D01*
X207722572Y-111335765D01*
X207745671Y-111344030D01*
X207767850Y-111354520D01*
X207788893Y-111367132D01*
X207808599Y-111381747D01*
X207826777Y-111398223D01*
X207843253Y-111416401D01*
X207857868Y-111436107D01*
X207870480Y-111457150D01*
X207880970Y-111479329D01*
X207889235Y-111502428D01*
X207895196Y-111526227D01*
X207898796Y-111550495D01*
X207900000Y-111574999D01*
X207900000Y-112825001D01*
X207898796Y-112849505D01*
X207895196Y-112873773D01*
X207889235Y-112897572D01*
X207880970Y-112920671D01*
X207870480Y-112942850D01*
X207857868Y-112963893D01*
X207843253Y-112983599D01*
X207826777Y-113001777D01*
X207808599Y-113018253D01*
X207788893Y-113032868D01*
X207767850Y-113045480D01*
X207745671Y-113055970D01*
X207722572Y-113064235D01*
X207698773Y-113070196D01*
X207674505Y-113073796D01*
X207650001Y-113075000D01*
X206949999Y-113075000D01*
X206925495Y-113073796D01*
X206901227Y-113070196D01*
X206877428Y-113064235D01*
X206854329Y-113055970D01*
X206832150Y-113045480D01*
X206811107Y-113032868D01*
X206791401Y-113018253D01*
X206773223Y-113001777D01*
X206756747Y-112983599D01*
X206742132Y-112963893D01*
X206729520Y-112942850D01*
X206719030Y-112920671D01*
X206710765Y-112897572D01*
X206704804Y-112873773D01*
X206701204Y-112849505D01*
X206700000Y-112825001D01*
X206700000Y-111574999D01*
X206701204Y-111550495D01*
X206704804Y-111526227D01*
X206710765Y-111502428D01*
X206719030Y-111479329D01*
X206729520Y-111457150D01*
X206742132Y-111436107D01*
X206756747Y-111416401D01*
X206773223Y-111398223D01*
X206791401Y-111381747D01*
X206811107Y-111367132D01*
X206832150Y-111354520D01*
X206854329Y-111344030D01*
X206877428Y-111335765D01*
X206901227Y-111329804D01*
X206925495Y-111326204D01*
X206949999Y-111325000D01*
X207650001Y-111325000D01*
X207674505Y-111326204D01*
X207674505Y-111326204D01*
G37*
D15*
X207300000Y-112200000D03*
D16*
X209300000Y-112200000D03*
D17*
X203025000Y-104975000D03*
D18*
X200485000Y-104975000D03*
X203025000Y-107515000D03*
X200485000Y-107515000D03*
X203025000Y-110055000D03*
X200485000Y-110055000D03*
D17*
X218800000Y-100500000D03*
D18*
X218800000Y-103040000D03*
X218800000Y-105580000D03*
X218800000Y-108120000D03*
D19*
X225600000Y-100800000D03*
D14*
G36*
X224850602Y-100800000D02*
G01*
X224850602Y-100775466D01*
X224855412Y-100726635D01*
X224864984Y-100678510D01*
X224879228Y-100631555D01*
X224898005Y-100586222D01*
X224921136Y-100542949D01*
X224948396Y-100502150D01*
X224979524Y-100464221D01*
X225014221Y-100429524D01*
X225052150Y-100398396D01*
X225092949Y-100371136D01*
X225136222Y-100348005D01*
X225181555Y-100329228D01*
X225228510Y-100314984D01*
X225276635Y-100305412D01*
X225325466Y-100300602D01*
X225350000Y-100300602D01*
X225350000Y-100300000D01*
X225850000Y-100300000D01*
X225850000Y-100300602D01*
X225874534Y-100300602D01*
X225923365Y-100305412D01*
X225971490Y-100314984D01*
X226018445Y-100329228D01*
X226063778Y-100348005D01*
X226107051Y-100371136D01*
X226147850Y-100398396D01*
X226185779Y-100429524D01*
X226220476Y-100464221D01*
X226251604Y-100502150D01*
X226278864Y-100542949D01*
X226301995Y-100586222D01*
X226320772Y-100631555D01*
X226335016Y-100678510D01*
X226344588Y-100726635D01*
X226349398Y-100775466D01*
X226349398Y-100800000D01*
X226350000Y-100800000D01*
X226350000Y-101300000D01*
X224850000Y-101300000D01*
X224850000Y-100800000D01*
X224850602Y-100800000D01*
X224850602Y-100800000D01*
G37*
D19*
X225600000Y-102100000D03*
D14*
G36*
X226350000Y-101600000D02*
G01*
X226350000Y-102100000D01*
X226349398Y-102100000D01*
X226349398Y-102124534D01*
X226344588Y-102173365D01*
X226335016Y-102221490D01*
X226320772Y-102268445D01*
X226301995Y-102313778D01*
X226278864Y-102357051D01*
X226251604Y-102397850D01*
X226220476Y-102435779D01*
X226185779Y-102470476D01*
X226147850Y-102501604D01*
X226107051Y-102528864D01*
X226063778Y-102551995D01*
X226018445Y-102570772D01*
X225971490Y-102585016D01*
X225923365Y-102594588D01*
X225874534Y-102599398D01*
X225850000Y-102599398D01*
X225850000Y-102600000D01*
X225350000Y-102600000D01*
X225350000Y-102599398D01*
X225325466Y-102599398D01*
X225276635Y-102594588D01*
X225228510Y-102585016D01*
X225181555Y-102570772D01*
X225136222Y-102551995D01*
X225092949Y-102528864D01*
X225052150Y-102501604D01*
X225014221Y-102470476D01*
X224979524Y-102435779D01*
X224948396Y-102397850D01*
X224921136Y-102357051D01*
X224898005Y-102313778D01*
X224879228Y-102268445D01*
X224864984Y-102221490D01*
X224855412Y-102173365D01*
X224850602Y-102124534D01*
X224850602Y-102100000D01*
X224850000Y-102100000D01*
X224850000Y-101600000D01*
X226350000Y-101600000D01*
X226350000Y-101600000D01*
G37*
D10*
X245000000Y-101000000D03*
D11*
X245000000Y-98460000D03*
D20*
X222920000Y-95000000D03*
X225460000Y-97540000D03*
X228000000Y-95000000D03*
D21*
X224650000Y-112800000D03*
X226650000Y-112800000D03*
X228650000Y-112800000D03*
D22*
X222500000Y-112800000D03*
X230800000Y-112800000D03*
X230850000Y-96000000D03*
X239150000Y-96000000D03*
D21*
X233000000Y-96000000D03*
X235000000Y-96000000D03*
X237000000Y-96000000D03*
D23*
X193500000Y-112605000D03*
D24*
X194100000Y-114405000D03*
X194100000Y-113205000D03*
X192900000Y-113205000D03*
X192900000Y-114405000D03*
X194100000Y-110805000D03*
X194100000Y-111905000D03*
X192900000Y-111905000D03*
X192900000Y-110805000D03*
D25*
X210750000Y-96000000D03*
X205850000Y-96000000D03*
D26*
X233200000Y-109960000D03*
D27*
X233200000Y-99800000D03*
D28*
X210200000Y-106000000D03*
X232300000Y-104700000D03*
X182300000Y-103200000D03*
X182300000Y-104900000D03*
X186900000Y-107100000D03*
X188400000Y-98500000D03*
X189500000Y-102600000D03*
X195900000Y-94400000D03*
X195900000Y-94400000D03*
X194700000Y-98900000D03*
X198400000Y-114900000D03*
X205600000Y-110400000D03*
X242000000Y-107100000D03*
X190700000Y-109300000D03*
X192500000Y-94700000D03*
X196500000Y-109600000D03*
X189300000Y-114500000D03*
X211200000Y-113500000D03*
X218600000Y-110200000D03*
X210475000Y-102775000D03*
X187350000Y-97950000D03*
X186950000Y-101350002D03*
X210875000Y-101500000D03*
X229900000Y-110200000D03*
X220150000Y-106550000D03*
X212475000Y-96925000D03*
X199400000Y-94275000D03*
X238475000Y-104250000D03*
X192475000Y-108625000D03*
X188850000Y-96650000D03*
X189675000Y-104825000D03*
X189704881Y-103775191D03*
X202250000Y-102400000D03*
X213200000Y-103800000D03*
X224000000Y-100000000D03*
X234600000Y-104600000D03*
X199500000Y-111900000D03*
X216500000Y-109500000D03*
X211900000Y-103015697D03*
X239800000Y-106000000D03*
X216800000Y-101800000D03*
X181575000Y-94925000D03*
X188850000Y-112600000D03*
X181625000Y-97100000D03*
X189225000Y-111325000D03*
D29*
X188951999Y-115225001D02*
X190574999Y-115225001D01*
X187700000Y-114900000D02*
X188626998Y-114900000D01*
X188626998Y-114900000D02*
X188951999Y-115225001D01*
X190574999Y-115225001D02*
X191100000Y-114700000D01*
X188965685Y-98500000D02*
X189300000Y-98834315D01*
X188400000Y-98500000D02*
X188965685Y-98500000D01*
X189100000Y-99750000D02*
X187600000Y-99750000D01*
X189300000Y-99550000D02*
X189100000Y-99750000D01*
X189300000Y-98834315D02*
X189300000Y-99550000D01*
D30*
X190300001Y-108900001D02*
X190200001Y-108900001D01*
X190700000Y-109300000D02*
X190300001Y-108900001D01*
X189950000Y-108650000D02*
X187600000Y-108650000D01*
X190200001Y-108900001D02*
X189950000Y-108650000D01*
X191574999Y-95625001D02*
X192500000Y-94700000D01*
X196474999Y-109574999D02*
X196500000Y-109600000D01*
X191574999Y-109574999D02*
X196474999Y-109574999D01*
X191574999Y-109574999D02*
X191574999Y-95625001D01*
D29*
X191574999Y-111659316D02*
X191574999Y-109574999D01*
X189300000Y-113934315D02*
X191574999Y-111659316D01*
X189300000Y-114500000D02*
X189300000Y-113934315D01*
D30*
X211765685Y-113500000D02*
X212865685Y-114600000D01*
X211200000Y-113500000D02*
X211765685Y-113500000D01*
X222850000Y-114600000D02*
X224650000Y-112800000D01*
D29*
X218500000Y-110865685D02*
X218500000Y-114600000D01*
X218600000Y-110765685D02*
X218500000Y-110865685D01*
X218600000Y-110200000D02*
X218600000Y-110765685D01*
D30*
X212865685Y-114600000D02*
X218500000Y-114600000D01*
X218500000Y-114600000D02*
X222850000Y-114600000D01*
D29*
X187350000Y-96440588D02*
X187350000Y-97950000D01*
X190265598Y-93524990D02*
X187350000Y-96440588D01*
X193034401Y-93524989D02*
X190265598Y-93524990D01*
X211040685Y-102775000D02*
X211600001Y-102215684D01*
X210475000Y-102775000D02*
X211040685Y-102775000D01*
X211600001Y-102215684D02*
X211600001Y-101151999D01*
X211600001Y-101151999D02*
X208448002Y-98000000D01*
X208448002Y-98000000D02*
X197509412Y-98000000D01*
X197509412Y-98000000D02*
X193034401Y-93524989D01*
X192848001Y-93974999D02*
X200373002Y-101500000D01*
X190451999Y-93974999D02*
X192848001Y-93974999D01*
X188124999Y-96301999D02*
X190451999Y-93974999D01*
X188124999Y-96998001D02*
X188124999Y-96301999D01*
X186950000Y-101350002D02*
X187349999Y-101750001D01*
X210309315Y-101500000D02*
X210875000Y-101500000D01*
X187349999Y-101750001D02*
X189579873Y-101750001D01*
X200373002Y-101500000D02*
X210309315Y-101500000D01*
X189579873Y-101750001D02*
X189979872Y-101350002D01*
X189979872Y-98852874D02*
X188124999Y-96998001D01*
X189979872Y-101350002D02*
X189979872Y-98852874D01*
X229900000Y-110200000D02*
X226250000Y-106550000D01*
X226250000Y-106550000D02*
X220150000Y-106550000D01*
D30*
X210801002Y-94275000D02*
X199400000Y-94275000D01*
X212475000Y-96925000D02*
X212475000Y-95948998D01*
X212475000Y-95948998D02*
X210801002Y-94275000D01*
D29*
X196500000Y-110165685D02*
X196500000Y-109600000D01*
X200078822Y-114550010D02*
X196500000Y-110971188D01*
X208533151Y-114550010D02*
X200078822Y-114550010D01*
X210358161Y-112725000D02*
X208533151Y-114550010D01*
X214348002Y-112725000D02*
X210358161Y-112725000D01*
X217598002Y-109475000D02*
X214348002Y-112725000D01*
X219350000Y-109475000D02*
X217598002Y-109475000D01*
X220960001Y-111085001D02*
X219350000Y-109475000D01*
X196500000Y-110971188D02*
X196500000Y-110165685D01*
X235788001Y-111085001D02*
X220960001Y-111085001D01*
X240525001Y-106348001D02*
X235788001Y-111085001D01*
X240525001Y-104525001D02*
X240525001Y-106348001D01*
X240250000Y-104250000D02*
X240525001Y-104525001D01*
X238475000Y-104250000D02*
X240250000Y-104250000D01*
D30*
X200316998Y-113975000D02*
X207800000Y-113975000D01*
X192475000Y-108625000D02*
X196783002Y-108625000D01*
X198649999Y-110491997D02*
X198649999Y-112308001D01*
X198649999Y-112308001D02*
X200316998Y-113975000D01*
X196783002Y-108625000D02*
X198649999Y-110491997D01*
X207800000Y-113975000D02*
X209300000Y-112475000D01*
X209300000Y-112475000D02*
X209300000Y-112200000D01*
X189958002Y-105800000D02*
X190554882Y-105203120D01*
X187600000Y-105800000D02*
X189958002Y-105800000D01*
X189249999Y-97049999D02*
X188850000Y-96650000D01*
X190554882Y-98354882D02*
X189249999Y-97049999D01*
X190554882Y-105203120D02*
X190554882Y-98354882D01*
D29*
X189500000Y-105000000D02*
X189675000Y-104825000D01*
X187600000Y-105000000D02*
X189500000Y-105000000D01*
X189280072Y-104200000D02*
X189304882Y-104175190D01*
X189304882Y-104175190D02*
X189704881Y-103775191D01*
X187600000Y-104200000D02*
X189280072Y-104200000D01*
X202250000Y-102400000D02*
X203650000Y-103800000D01*
X203650000Y-103800000D02*
X212634315Y-103800000D01*
X212634315Y-103800000D02*
X213200000Y-103800000D01*
X225600000Y-100800000D02*
X224800000Y-100800000D01*
X224800000Y-100800000D02*
X224000000Y-100000000D01*
X225600000Y-102100000D02*
X232100000Y-102100000D01*
X232100000Y-102100000D02*
X234600000Y-104600000D01*
X208211810Y-109500000D02*
X216500000Y-109500000D01*
X199500000Y-111900000D02*
X205811810Y-111900000D01*
X205811810Y-111900000D02*
X208211810Y-109500000D01*
X227213338Y-101000000D02*
X225488337Y-99274999D01*
X225488337Y-99274999D02*
X215640698Y-99274999D01*
X212299999Y-102615698D02*
X211900000Y-103015697D01*
X215640698Y-99274999D02*
X212299999Y-102615698D01*
X245000000Y-101000000D02*
X227213338Y-101000000D01*
X216800000Y-102779002D02*
X216800000Y-101800000D01*
X218235999Y-104215001D02*
X216800000Y-102779002D01*
X219215001Y-104215001D02*
X218235999Y-104215001D01*
X239800000Y-106000000D02*
X221000000Y-106000000D01*
X221000000Y-106000000D02*
X219215001Y-104215001D01*
X186325000Y-112600000D02*
X188850000Y-112600000D01*
X183875000Y-110150000D02*
X186325000Y-112600000D01*
X181575000Y-94925000D02*
X183875000Y-97225000D01*
X183875000Y-97225000D02*
X183875000Y-110150000D01*
X181923001Y-94199999D02*
X185850000Y-98126998D01*
X181226999Y-94199999D02*
X181923001Y-94199999D01*
X180849999Y-94576999D02*
X181226999Y-94199999D01*
X181625000Y-97100000D02*
X180849999Y-96324999D01*
X180849999Y-96324999D02*
X180849999Y-94576999D01*
X187439998Y-111325000D02*
X189225000Y-111325000D01*
X185850000Y-98126998D02*
X185850000Y-109735002D01*
X185850000Y-109735002D02*
X187439998Y-111325000D01*
D31*
G36*
X183250000Y-97483883D02*
G01*
X183250000Y-98448674D01*
X182200000Y-98450000D01*
X182125000Y-98525000D01*
X182125000Y-99725000D01*
X182145000Y-99725000D01*
X182145000Y-99775000D01*
X182125000Y-99775000D01*
X182125000Y-100975000D01*
X182200000Y-101050000D01*
X183250000Y-101051326D01*
X183250001Y-107348674D01*
X182200000Y-107350000D01*
X182125000Y-107425000D01*
X182125000Y-108625000D01*
X182145000Y-108625000D01*
X182145000Y-108675000D01*
X182125000Y-108675000D01*
X182125000Y-109875000D01*
X182200000Y-109950000D01*
X183250001Y-109951326D01*
X183250001Y-110119296D01*
X183246977Y-110150000D01*
X183250001Y-110180704D01*
X183259044Y-110272521D01*
X183294782Y-110390334D01*
X183352818Y-110498911D01*
X183430921Y-110594080D01*
X183454772Y-110613654D01*
X185861346Y-113020229D01*
X185880920Y-113044080D01*
X185926281Y-113081307D01*
X185976087Y-113122182D01*
X186067907Y-113171261D01*
X186084666Y-113180219D01*
X186202479Y-113215957D01*
X186294296Y-113225000D01*
X186294305Y-113225000D01*
X186324999Y-113228023D01*
X186355693Y-113225000D01*
X188202207Y-113225000D01*
X188276283Y-113299076D01*
X188423690Y-113397570D01*
X188587480Y-113465414D01*
X188761358Y-113500000D01*
X188847907Y-113500000D01*
X188777818Y-113585404D01*
X188719781Y-113693981D01*
X188684043Y-113811794D01*
X188680616Y-113846591D01*
X188600924Y-113926283D01*
X188502430Y-114073690D01*
X188434586Y-114237480D01*
X188427123Y-114275000D01*
X187669296Y-114275000D01*
X187577479Y-114284043D01*
X187459666Y-114319781D01*
X187351089Y-114377817D01*
X187255920Y-114455920D01*
X187177817Y-114551089D01*
X187119781Y-114659666D01*
X187084043Y-114777479D01*
X187071976Y-114900000D01*
X187084043Y-115022521D01*
X187119781Y-115140334D01*
X187165036Y-115225000D01*
X180400000Y-115225000D01*
X180400000Y-109650000D01*
X180548548Y-109650000D01*
X180554340Y-109708810D01*
X180571495Y-109765361D01*
X180599352Y-109817478D01*
X180636841Y-109863159D01*
X180682522Y-109900648D01*
X180734639Y-109928505D01*
X180791190Y-109945660D01*
X180850000Y-109951452D01*
X182000000Y-109950000D01*
X182075000Y-109875000D01*
X182075000Y-108675000D01*
X180625000Y-108675000D01*
X180550000Y-108750000D01*
X180548548Y-109650000D01*
X180400000Y-109650000D01*
X180400000Y-107650000D01*
X180548548Y-107650000D01*
X180550000Y-108550000D01*
X180625000Y-108625000D01*
X182075000Y-108625000D01*
X182075000Y-107425000D01*
X182000000Y-107350000D01*
X180850000Y-107348548D01*
X180791190Y-107354340D01*
X180734639Y-107371495D01*
X180682522Y-107399352D01*
X180636841Y-107436841D01*
X180599352Y-107482522D01*
X180571495Y-107534639D01*
X180554340Y-107591190D01*
X180548548Y-107650000D01*
X180400000Y-107650000D01*
X180400000Y-100750000D01*
X180548548Y-100750000D01*
X180554340Y-100808810D01*
X180571495Y-100865361D01*
X180599352Y-100917478D01*
X180636841Y-100963159D01*
X180682522Y-101000648D01*
X180734639Y-101028505D01*
X180791190Y-101045660D01*
X180850000Y-101051452D01*
X182000000Y-101050000D01*
X182075000Y-100975000D01*
X182075000Y-99775000D01*
X180625000Y-99775000D01*
X180550000Y-99850000D01*
X180548548Y-100750000D01*
X180400000Y-100750000D01*
X180400000Y-98750000D01*
X180548548Y-98750000D01*
X180550000Y-99650000D01*
X180625000Y-99725000D01*
X182075000Y-99725000D01*
X182075000Y-98525000D01*
X182000000Y-98450000D01*
X180850000Y-98448548D01*
X180791190Y-98454340D01*
X180734639Y-98471495D01*
X180682522Y-98499352D01*
X180636841Y-98536841D01*
X180599352Y-98582522D01*
X180571495Y-98634639D01*
X180554340Y-98691190D01*
X180548548Y-98750000D01*
X180400000Y-98750000D01*
X180400000Y-96761867D01*
X180405919Y-96769079D01*
X180429775Y-96788657D01*
X180725000Y-97083882D01*
X180725000Y-97188642D01*
X180759586Y-97362520D01*
X180827430Y-97526310D01*
X180925924Y-97673717D01*
X181051283Y-97799076D01*
X181198690Y-97897570D01*
X181362480Y-97965414D01*
X181536358Y-98000000D01*
X181713642Y-98000000D01*
X181887520Y-97965414D01*
X182051310Y-97897570D01*
X182198717Y-97799076D01*
X182324076Y-97673717D01*
X182422570Y-97526310D01*
X182490414Y-97362520D01*
X182525000Y-97188642D01*
X182525000Y-97011358D01*
X182490414Y-96837480D01*
X182422570Y-96673690D01*
X182387860Y-96621742D01*
X183250000Y-97483883D01*
X183250000Y-97483883D01*
G37*
X183250000Y-97483883D02*
X183250000Y-98448674D01*
X182200000Y-98450000D01*
X182125000Y-98525000D01*
X182125000Y-99725000D01*
X182145000Y-99725000D01*
X182145000Y-99775000D01*
X182125000Y-99775000D01*
X182125000Y-100975000D01*
X182200000Y-101050000D01*
X183250000Y-101051326D01*
X183250001Y-107348674D01*
X182200000Y-107350000D01*
X182125000Y-107425000D01*
X182125000Y-108625000D01*
X182145000Y-108625000D01*
X182145000Y-108675000D01*
X182125000Y-108675000D01*
X182125000Y-109875000D01*
X182200000Y-109950000D01*
X183250001Y-109951326D01*
X183250001Y-110119296D01*
X183246977Y-110150000D01*
X183250001Y-110180704D01*
X183259044Y-110272521D01*
X183294782Y-110390334D01*
X183352818Y-110498911D01*
X183430921Y-110594080D01*
X183454772Y-110613654D01*
X185861346Y-113020229D01*
X185880920Y-113044080D01*
X185926281Y-113081307D01*
X185976087Y-113122182D01*
X186067907Y-113171261D01*
X186084666Y-113180219D01*
X186202479Y-113215957D01*
X186294296Y-113225000D01*
X186294305Y-113225000D01*
X186324999Y-113228023D01*
X186355693Y-113225000D01*
X188202207Y-113225000D01*
X188276283Y-113299076D01*
X188423690Y-113397570D01*
X188587480Y-113465414D01*
X188761358Y-113500000D01*
X188847907Y-113500000D01*
X188777818Y-113585404D01*
X188719781Y-113693981D01*
X188684043Y-113811794D01*
X188680616Y-113846591D01*
X188600924Y-113926283D01*
X188502430Y-114073690D01*
X188434586Y-114237480D01*
X188427123Y-114275000D01*
X187669296Y-114275000D01*
X187577479Y-114284043D01*
X187459666Y-114319781D01*
X187351089Y-114377817D01*
X187255920Y-114455920D01*
X187177817Y-114551089D01*
X187119781Y-114659666D01*
X187084043Y-114777479D01*
X187071976Y-114900000D01*
X187084043Y-115022521D01*
X187119781Y-115140334D01*
X187165036Y-115225000D01*
X180400000Y-115225000D01*
X180400000Y-109650000D01*
X180548548Y-109650000D01*
X180554340Y-109708810D01*
X180571495Y-109765361D01*
X180599352Y-109817478D01*
X180636841Y-109863159D01*
X180682522Y-109900648D01*
X180734639Y-109928505D01*
X180791190Y-109945660D01*
X180850000Y-109951452D01*
X182000000Y-109950000D01*
X182075000Y-109875000D01*
X182075000Y-108675000D01*
X180625000Y-108675000D01*
X180550000Y-108750000D01*
X180548548Y-109650000D01*
X180400000Y-109650000D01*
X180400000Y-107650000D01*
X180548548Y-107650000D01*
X180550000Y-108550000D01*
X180625000Y-108625000D01*
X182075000Y-108625000D01*
X182075000Y-107425000D01*
X182000000Y-107350000D01*
X180850000Y-107348548D01*
X180791190Y-107354340D01*
X180734639Y-107371495D01*
X180682522Y-107399352D01*
X180636841Y-107436841D01*
X180599352Y-107482522D01*
X180571495Y-107534639D01*
X180554340Y-107591190D01*
X180548548Y-107650000D01*
X180400000Y-107650000D01*
X180400000Y-100750000D01*
X180548548Y-100750000D01*
X180554340Y-100808810D01*
X180571495Y-100865361D01*
X180599352Y-100917478D01*
X180636841Y-100963159D01*
X180682522Y-101000648D01*
X180734639Y-101028505D01*
X180791190Y-101045660D01*
X180850000Y-101051452D01*
X182000000Y-101050000D01*
X182075000Y-100975000D01*
X182075000Y-99775000D01*
X180625000Y-99775000D01*
X180550000Y-99850000D01*
X180548548Y-100750000D01*
X180400000Y-100750000D01*
X180400000Y-98750000D01*
X180548548Y-98750000D01*
X180550000Y-99650000D01*
X180625000Y-99725000D01*
X182075000Y-99725000D01*
X182075000Y-98525000D01*
X182000000Y-98450000D01*
X180850000Y-98448548D01*
X180791190Y-98454340D01*
X180734639Y-98471495D01*
X180682522Y-98499352D01*
X180636841Y-98536841D01*
X180599352Y-98582522D01*
X180571495Y-98634639D01*
X180554340Y-98691190D01*
X180548548Y-98750000D01*
X180400000Y-98750000D01*
X180400000Y-96761867D01*
X180405919Y-96769079D01*
X180429775Y-96788657D01*
X180725000Y-97083882D01*
X180725000Y-97188642D01*
X180759586Y-97362520D01*
X180827430Y-97526310D01*
X180925924Y-97673717D01*
X181051283Y-97799076D01*
X181198690Y-97897570D01*
X181362480Y-97965414D01*
X181536358Y-98000000D01*
X181713642Y-98000000D01*
X181887520Y-97965414D01*
X182051310Y-97897570D01*
X182198717Y-97799076D01*
X182324076Y-97673717D01*
X182422570Y-97526310D01*
X182490414Y-97362520D01*
X182525000Y-97188642D01*
X182525000Y-97011358D01*
X182490414Y-96837480D01*
X182422570Y-96673690D01*
X182387860Y-96621742D01*
X183250000Y-97483883D01*
G36*
X195875000Y-110940494D02*
G01*
X195871977Y-110971188D01*
X195875000Y-111001882D01*
X195875000Y-111001891D01*
X195884043Y-111093708D01*
X195919781Y-111211521D01*
X195977817Y-111320098D01*
X196055920Y-111415268D01*
X196079776Y-111434846D01*
X199615173Y-114970245D01*
X199634742Y-114994090D01*
X199658587Y-115013659D01*
X199658591Y-115013663D01*
X199729910Y-115072193D01*
X199744926Y-115080219D01*
X199838488Y-115130229D01*
X199956301Y-115165967D01*
X200048118Y-115175010D01*
X200048120Y-115175010D01*
X200078822Y-115178034D01*
X200109524Y-115175010D01*
X208502457Y-115175010D01*
X208533151Y-115178033D01*
X208563845Y-115175010D01*
X208563855Y-115175010D01*
X208655672Y-115165967D01*
X208773485Y-115130229D01*
X208882062Y-115072193D01*
X208977231Y-114994090D01*
X208996809Y-114970234D01*
X210313008Y-113654036D01*
X210334586Y-113762520D01*
X210402430Y-113926310D01*
X210500924Y-114073717D01*
X210626283Y-114199076D01*
X210773690Y-114297570D01*
X210937480Y-114365414D01*
X211111358Y-114400000D01*
X211288642Y-114400000D01*
X211462520Y-114365414D01*
X211538831Y-114333805D01*
X212309311Y-115104286D01*
X212332790Y-115132895D01*
X212445019Y-115225000D01*
X191458884Y-115225000D01*
X191563653Y-115120231D01*
X191622183Y-115048912D01*
X191680218Y-114940335D01*
X191715956Y-114822522D01*
X191723622Y-114744687D01*
X191723548Y-114855000D01*
X191729340Y-114913810D01*
X191746495Y-114970361D01*
X191774352Y-115022478D01*
X191811841Y-115068159D01*
X191857522Y-115105648D01*
X191909639Y-115133505D01*
X191966190Y-115150660D01*
X192025000Y-115156452D01*
X193400000Y-115155000D01*
X193475000Y-115080000D01*
X193475000Y-114576399D01*
X193491577Y-114521315D01*
X193499935Y-114434495D01*
X193508942Y-114523925D01*
X193525000Y-114576443D01*
X193525000Y-115080000D01*
X193600000Y-115155000D01*
X194975000Y-115156452D01*
X195033810Y-115150660D01*
X195090361Y-115133505D01*
X195142478Y-115105648D01*
X195188159Y-115068159D01*
X195225648Y-115022478D01*
X195253505Y-114970361D01*
X195270660Y-114913810D01*
X195276452Y-114855000D01*
X195275000Y-112705000D01*
X195200000Y-112630000D01*
X194271399Y-112630000D01*
X194216315Y-112613423D01*
X194098669Y-112602098D01*
X193981075Y-112613942D01*
X193928557Y-112630000D01*
X193525000Y-112630000D01*
X193525000Y-113033601D01*
X193508423Y-113088685D01*
X193500065Y-113175505D01*
X193491058Y-113086075D01*
X193475000Y-113033557D01*
X193475000Y-112630000D01*
X193071399Y-112630000D01*
X193016315Y-112613423D01*
X192898669Y-112602098D01*
X192781075Y-112613942D01*
X192728557Y-112630000D01*
X191800000Y-112630000D01*
X191725000Y-112705000D01*
X191723682Y-114655922D01*
X191715956Y-114577478D01*
X191680218Y-114459665D01*
X191622183Y-114351088D01*
X191544080Y-114255920D01*
X191448912Y-114177817D01*
X191340335Y-114119782D01*
X191222522Y-114084044D01*
X191100000Y-114071976D01*
X190977478Y-114084044D01*
X190859665Y-114119782D01*
X190751088Y-114177817D01*
X190679769Y-114236347D01*
X190316116Y-114600001D01*
X190197741Y-114600001D01*
X190200000Y-114588642D01*
X190200000Y-114411358D01*
X190165414Y-114237480D01*
X190097570Y-114073690D01*
X190076316Y-114041881D01*
X191724925Y-112393274D01*
X191725000Y-112505000D01*
X191800000Y-112580000D01*
X193475000Y-112580000D01*
X193475000Y-112560000D01*
X193525000Y-112560000D01*
X193525000Y-112580000D01*
X195200000Y-112580000D01*
X195275000Y-112505000D01*
X195276452Y-110355000D01*
X195273497Y-110324999D01*
X195875000Y-110324999D01*
X195875000Y-110940494D01*
X195875000Y-110940494D01*
G37*
X195875000Y-110940494D02*
X195871977Y-110971188D01*
X195875000Y-111001882D01*
X195875000Y-111001891D01*
X195884043Y-111093708D01*
X195919781Y-111211521D01*
X195977817Y-111320098D01*
X196055920Y-111415268D01*
X196079776Y-111434846D01*
X199615173Y-114970245D01*
X199634742Y-114994090D01*
X199658587Y-115013659D01*
X199658591Y-115013663D01*
X199729910Y-115072193D01*
X199744926Y-115080219D01*
X199838488Y-115130229D01*
X199956301Y-115165967D01*
X200048118Y-115175010D01*
X200048120Y-115175010D01*
X200078822Y-115178034D01*
X200109524Y-115175010D01*
X208502457Y-115175010D01*
X208533151Y-115178033D01*
X208563845Y-115175010D01*
X208563855Y-115175010D01*
X208655672Y-115165967D01*
X208773485Y-115130229D01*
X208882062Y-115072193D01*
X208977231Y-114994090D01*
X208996809Y-114970234D01*
X210313008Y-113654036D01*
X210334586Y-113762520D01*
X210402430Y-113926310D01*
X210500924Y-114073717D01*
X210626283Y-114199076D01*
X210773690Y-114297570D01*
X210937480Y-114365414D01*
X211111358Y-114400000D01*
X211288642Y-114400000D01*
X211462520Y-114365414D01*
X211538831Y-114333805D01*
X212309311Y-115104286D01*
X212332790Y-115132895D01*
X212445019Y-115225000D01*
X191458884Y-115225000D01*
X191563653Y-115120231D01*
X191622183Y-115048912D01*
X191680218Y-114940335D01*
X191715956Y-114822522D01*
X191723622Y-114744687D01*
X191723548Y-114855000D01*
X191729340Y-114913810D01*
X191746495Y-114970361D01*
X191774352Y-115022478D01*
X191811841Y-115068159D01*
X191857522Y-115105648D01*
X191909639Y-115133505D01*
X191966190Y-115150660D01*
X192025000Y-115156452D01*
X193400000Y-115155000D01*
X193475000Y-115080000D01*
X193475000Y-114576399D01*
X193491577Y-114521315D01*
X193499935Y-114434495D01*
X193508942Y-114523925D01*
X193525000Y-114576443D01*
X193525000Y-115080000D01*
X193600000Y-115155000D01*
X194975000Y-115156452D01*
X195033810Y-115150660D01*
X195090361Y-115133505D01*
X195142478Y-115105648D01*
X195188159Y-115068159D01*
X195225648Y-115022478D01*
X195253505Y-114970361D01*
X195270660Y-114913810D01*
X195276452Y-114855000D01*
X195275000Y-112705000D01*
X195200000Y-112630000D01*
X194271399Y-112630000D01*
X194216315Y-112613423D01*
X194098669Y-112602098D01*
X193981075Y-112613942D01*
X193928557Y-112630000D01*
X193525000Y-112630000D01*
X193525000Y-113033601D01*
X193508423Y-113088685D01*
X193500065Y-113175505D01*
X193491058Y-113086075D01*
X193475000Y-113033557D01*
X193475000Y-112630000D01*
X193071399Y-112630000D01*
X193016315Y-112613423D01*
X192898669Y-112602098D01*
X192781075Y-112613942D01*
X192728557Y-112630000D01*
X191800000Y-112630000D01*
X191725000Y-112705000D01*
X191723682Y-114655922D01*
X191715956Y-114577478D01*
X191680218Y-114459665D01*
X191622183Y-114351088D01*
X191544080Y-114255920D01*
X191448912Y-114177817D01*
X191340335Y-114119782D01*
X191222522Y-114084044D01*
X191100000Y-114071976D01*
X190977478Y-114084044D01*
X190859665Y-114119782D01*
X190751088Y-114177817D01*
X190679769Y-114236347D01*
X190316116Y-114600001D01*
X190197741Y-114600001D01*
X190200000Y-114588642D01*
X190200000Y-114411358D01*
X190165414Y-114237480D01*
X190097570Y-114073690D01*
X190076316Y-114041881D01*
X191724925Y-112393274D01*
X191725000Y-112505000D01*
X191800000Y-112580000D01*
X193475000Y-112580000D01*
X193475000Y-112560000D01*
X193525000Y-112560000D01*
X193525000Y-112580000D01*
X195200000Y-112580000D01*
X195275000Y-112505000D01*
X195276452Y-110355000D01*
X195273497Y-110324999D01*
X195875000Y-110324999D01*
X195875000Y-110940494D01*
G36*
X248225001Y-115225000D02*
G01*
X223270666Y-115225000D01*
X223382895Y-115132895D01*
X223406378Y-115104281D01*
X224461443Y-114049218D01*
X224525704Y-114062000D01*
X224774296Y-114062000D01*
X225018112Y-114013502D01*
X225247781Y-113918370D01*
X225454478Y-113780259D01*
X225630259Y-113604478D01*
X225650000Y-113574934D01*
X225669741Y-113604478D01*
X225845522Y-113780259D01*
X226052219Y-113918370D01*
X226281888Y-114013502D01*
X226525704Y-114062000D01*
X226774296Y-114062000D01*
X227018112Y-114013502D01*
X227247781Y-113918370D01*
X227454478Y-113780259D01*
X227630259Y-113604478D01*
X227650000Y-113574934D01*
X227669741Y-113604478D01*
X227845522Y-113780259D01*
X228052219Y-113918370D01*
X228281888Y-114013502D01*
X228525704Y-114062000D01*
X228774296Y-114062000D01*
X229018112Y-114013502D01*
X229247781Y-113918370D01*
X229454478Y-113780259D01*
X229630259Y-113604478D01*
X229768370Y-113397781D01*
X229805753Y-113307530D01*
X229814471Y-113396034D01*
X229871652Y-113584535D01*
X229964509Y-113758258D01*
X230089473Y-113910528D01*
X230241743Y-114035492D01*
X230415466Y-114128349D01*
X230603967Y-114185530D01*
X230800000Y-114204838D01*
X230996034Y-114185530D01*
X231184535Y-114128349D01*
X231358258Y-114035492D01*
X231510528Y-113910528D01*
X231635492Y-113758258D01*
X231728349Y-113584535D01*
X231785530Y-113396033D01*
X231800000Y-113249119D01*
X231800000Y-112350880D01*
X231785530Y-112203966D01*
X231728349Y-112015465D01*
X231635492Y-111841742D01*
X231527376Y-111710001D01*
X235757307Y-111710001D01*
X235788001Y-111713024D01*
X235818695Y-111710001D01*
X235818705Y-111710001D01*
X235910522Y-111700958D01*
X236028335Y-111665220D01*
X236136912Y-111607184D01*
X236232081Y-111529081D01*
X236251659Y-111505225D01*
X238656884Y-109100000D01*
X243597581Y-109100000D01*
X243597581Y-110900000D01*
X243607235Y-110998017D01*
X243635825Y-111092267D01*
X243682254Y-111179129D01*
X243744736Y-111255264D01*
X243820871Y-111317746D01*
X243907733Y-111364175D01*
X244001983Y-111392765D01*
X244100000Y-111402419D01*
X245900000Y-111402419D01*
X245998017Y-111392765D01*
X246092267Y-111364175D01*
X246179129Y-111317746D01*
X246255264Y-111255264D01*
X246317746Y-111179129D01*
X246364175Y-111092267D01*
X246392765Y-110998017D01*
X246402419Y-110900000D01*
X246402419Y-109100000D01*
X246392765Y-109001983D01*
X246364175Y-108907733D01*
X246317746Y-108820871D01*
X246255264Y-108744736D01*
X246179129Y-108682254D01*
X246092267Y-108635825D01*
X245998017Y-108607235D01*
X245900000Y-108597581D01*
X245817423Y-108597581D01*
X245892448Y-108547451D01*
X246087451Y-108352448D01*
X246240664Y-108123149D01*
X246346199Y-107868365D01*
X246400000Y-107597888D01*
X246400000Y-107322112D01*
X246346199Y-107051635D01*
X246240664Y-106796851D01*
X246087451Y-106567552D01*
X245892448Y-106372549D01*
X245663149Y-106219336D01*
X245408365Y-106113801D01*
X245137888Y-106060000D01*
X244862112Y-106060000D01*
X244591635Y-106113801D01*
X244336851Y-106219336D01*
X244107552Y-106372549D01*
X243912549Y-106567552D01*
X243759336Y-106796851D01*
X243653801Y-107051635D01*
X243600000Y-107322112D01*
X243600000Y-107597888D01*
X243653801Y-107868365D01*
X243759336Y-108123149D01*
X243912549Y-108352448D01*
X244107552Y-108547451D01*
X244182577Y-108597581D01*
X244100000Y-108597581D01*
X244001983Y-108607235D01*
X243907733Y-108635825D01*
X243820871Y-108682254D01*
X243744736Y-108744736D01*
X243682254Y-108820871D01*
X243635825Y-108907733D01*
X243607235Y-109001983D01*
X243597581Y-109100000D01*
X238656884Y-109100000D01*
X240945230Y-106811655D01*
X240969081Y-106792081D01*
X241005199Y-106748071D01*
X241047184Y-106696913D01*
X241085622Y-106625000D01*
X241105220Y-106588335D01*
X241140958Y-106470522D01*
X241150001Y-106378705D01*
X241150001Y-106378703D01*
X241153025Y-106348001D01*
X241150001Y-106317299D01*
X241150001Y-104555694D01*
X241153024Y-104525000D01*
X241150001Y-104494306D01*
X241150001Y-104494297D01*
X241140958Y-104402480D01*
X241105220Y-104284667D01*
X241047184Y-104176090D01*
X240969081Y-104080921D01*
X240945226Y-104061344D01*
X240713658Y-103829776D01*
X240694080Y-103805920D01*
X240598911Y-103727817D01*
X240490334Y-103669781D01*
X240372521Y-103634043D01*
X240280704Y-103625000D01*
X240280694Y-103625000D01*
X240250000Y-103621977D01*
X240219306Y-103625000D01*
X239122793Y-103625000D01*
X239048717Y-103550924D01*
X238901310Y-103452430D01*
X238737520Y-103384586D01*
X238563642Y-103350000D01*
X238386358Y-103350000D01*
X238212480Y-103384586D01*
X238048690Y-103452430D01*
X237901283Y-103550924D01*
X237775924Y-103676283D01*
X237677430Y-103823690D01*
X237609586Y-103987480D01*
X237575000Y-104161358D01*
X237575000Y-104338642D01*
X237609586Y-104512520D01*
X237677430Y-104676310D01*
X237775924Y-104823717D01*
X237901283Y-104949076D01*
X238048690Y-105047570D01*
X238212480Y-105115414D01*
X238386358Y-105150000D01*
X238563642Y-105150000D01*
X238737520Y-105115414D01*
X238901310Y-105047570D01*
X239048717Y-104949076D01*
X239122793Y-104875000D01*
X239900001Y-104875000D01*
X239900001Y-105102259D01*
X239888642Y-105100000D01*
X239711358Y-105100000D01*
X239537480Y-105134586D01*
X239373690Y-105202430D01*
X239226283Y-105300924D01*
X239152207Y-105375000D01*
X235060088Y-105375000D01*
X235173717Y-105299076D01*
X235299076Y-105173717D01*
X235397570Y-105026310D01*
X235465414Y-104862520D01*
X235500000Y-104688642D01*
X235500000Y-104511358D01*
X235465414Y-104337480D01*
X235397570Y-104173690D01*
X235299076Y-104026283D01*
X235173717Y-103900924D01*
X235026310Y-103802430D01*
X234862520Y-103734586D01*
X234688642Y-103700000D01*
X234583883Y-103700000D01*
X232563658Y-101679776D01*
X232544080Y-101655920D01*
X232506404Y-101625000D01*
X243597581Y-101625000D01*
X243597581Y-101900000D01*
X243607235Y-101998017D01*
X243635825Y-102092267D01*
X243682254Y-102179129D01*
X243744736Y-102255264D01*
X243820871Y-102317746D01*
X243907733Y-102364175D01*
X244001983Y-102392765D01*
X244100000Y-102402419D01*
X245900000Y-102402419D01*
X245998017Y-102392765D01*
X246092267Y-102364175D01*
X246179129Y-102317746D01*
X246255264Y-102255264D01*
X246317746Y-102179129D01*
X246364175Y-102092267D01*
X246392765Y-101998017D01*
X246402419Y-101900000D01*
X246402419Y-100100000D01*
X246392765Y-100001983D01*
X246364175Y-99907733D01*
X246317746Y-99820871D01*
X246255264Y-99744736D01*
X246179129Y-99682254D01*
X246092267Y-99635825D01*
X245998017Y-99607235D01*
X245900000Y-99597581D01*
X245387047Y-99597581D01*
X245440715Y-99582381D01*
X245651212Y-99474836D01*
X245688378Y-99450003D01*
X245781728Y-99277083D01*
X245000000Y-98495355D01*
X244218272Y-99277083D01*
X244311622Y-99450003D01*
X244517989Y-99565276D01*
X244617787Y-99597581D01*
X244100000Y-99597581D01*
X244001983Y-99607235D01*
X243907733Y-99635825D01*
X243820871Y-99682254D01*
X243744736Y-99744736D01*
X243682254Y-99820871D01*
X243635825Y-99907733D01*
X243607235Y-100001983D01*
X243597581Y-100100000D01*
X243597581Y-100375000D01*
X234135339Y-100375000D01*
X234223092Y-100204086D01*
X234282267Y-99996726D01*
X234224717Y-99825000D01*
X233225000Y-99825000D01*
X233225000Y-99845000D01*
X233175000Y-99845000D01*
X233175000Y-99825000D01*
X232175283Y-99825000D01*
X232117733Y-99996726D01*
X232176908Y-100204086D01*
X232264661Y-100375000D01*
X227472221Y-100375000D01*
X226700495Y-99603274D01*
X232117733Y-99603274D01*
X232175283Y-99775000D01*
X233175000Y-99775000D01*
X233175000Y-98775305D01*
X233225000Y-98775305D01*
X233225000Y-99775000D01*
X234224717Y-99775000D01*
X234282267Y-99603274D01*
X234223092Y-99395914D01*
X234124600Y-99204083D01*
X233990576Y-99035153D01*
X233826171Y-98895616D01*
X233637703Y-98790834D01*
X233432414Y-98724833D01*
X233396726Y-98717734D01*
X233225000Y-98775305D01*
X233175000Y-98775305D01*
X233003274Y-98717734D01*
X232967586Y-98724833D01*
X232762297Y-98790834D01*
X232573829Y-98895616D01*
X232409424Y-99035153D01*
X232275400Y-99204083D01*
X232176908Y-99395914D01*
X232117733Y-99603274D01*
X226700495Y-99603274D01*
X225951995Y-98854775D01*
X225932417Y-98830919D01*
X225837248Y-98752816D01*
X225777318Y-98720783D01*
X225815861Y-98713116D01*
X226037887Y-98621150D01*
X226237705Y-98487636D01*
X226287691Y-98437650D01*
X243794401Y-98437650D01*
X243813205Y-98673281D01*
X243877619Y-98900715D01*
X243985164Y-99111212D01*
X244009997Y-99148378D01*
X244182917Y-99241728D01*
X244964645Y-98460000D01*
X245035355Y-98460000D01*
X245817083Y-99241728D01*
X245990003Y-99148378D01*
X246105276Y-98942011D01*
X246178074Y-98717121D01*
X246205599Y-98482350D01*
X246186795Y-98246719D01*
X246122381Y-98019285D01*
X246014836Y-97808788D01*
X245990003Y-97771622D01*
X245817083Y-97678272D01*
X245035355Y-98460000D01*
X244964645Y-98460000D01*
X244182917Y-97678272D01*
X244009997Y-97771622D01*
X243894724Y-97977989D01*
X243821926Y-98202879D01*
X243794401Y-98437650D01*
X226287691Y-98437650D01*
X226407636Y-98317705D01*
X226541150Y-98117887D01*
X226633116Y-97895861D01*
X226680000Y-97660160D01*
X226680000Y-97642917D01*
X244218272Y-97642917D01*
X245000000Y-98424645D01*
X245781728Y-97642917D01*
X245688378Y-97469997D01*
X245482011Y-97354724D01*
X245257121Y-97281926D01*
X245022350Y-97254401D01*
X244786719Y-97273205D01*
X244559285Y-97337619D01*
X244348788Y-97445164D01*
X244311622Y-97469997D01*
X244218272Y-97642917D01*
X226680000Y-97642917D01*
X226680000Y-97419840D01*
X226633116Y-97184139D01*
X226541150Y-96962113D01*
X226407636Y-96762295D01*
X226237705Y-96592364D01*
X226037887Y-96458850D01*
X225815861Y-96366884D01*
X225580160Y-96320000D01*
X225339840Y-96320000D01*
X225104139Y-96366884D01*
X224882113Y-96458850D01*
X224682295Y-96592364D01*
X224512364Y-96762295D01*
X224378850Y-96962113D01*
X224286884Y-97184139D01*
X224240000Y-97419840D01*
X224240000Y-97660160D01*
X224286884Y-97895861D01*
X224378850Y-98117887D01*
X224512364Y-98317705D01*
X224682295Y-98487636D01*
X224882113Y-98621150D01*
X224951761Y-98649999D01*
X215671399Y-98649999D01*
X215640698Y-98646975D01*
X215609996Y-98649999D01*
X215609994Y-98649999D01*
X215518177Y-98659042D01*
X215400364Y-98694780D01*
X215291787Y-98752816D01*
X215196618Y-98830919D01*
X215177044Y-98854770D01*
X212225001Y-101806814D01*
X212225001Y-101182700D01*
X212228025Y-101151999D01*
X212223616Y-101107235D01*
X212215958Y-101029478D01*
X212180220Y-100911665D01*
X212122184Y-100803088D01*
X212044081Y-100707919D01*
X212020230Y-100688345D01*
X208911660Y-97579776D01*
X208892082Y-97555920D01*
X208796913Y-97477817D01*
X208688336Y-97419781D01*
X208570523Y-97384043D01*
X208478706Y-97375000D01*
X208478696Y-97375000D01*
X208448002Y-97371977D01*
X208417308Y-97375000D01*
X197768295Y-97375000D01*
X194579653Y-94186358D01*
X198500000Y-94186358D01*
X198500000Y-94363642D01*
X198534586Y-94537520D01*
X198602430Y-94701310D01*
X198700924Y-94848717D01*
X198826283Y-94974076D01*
X198973690Y-95072570D01*
X199137480Y-95140414D01*
X199311358Y-95175000D01*
X199488642Y-95175000D01*
X199662520Y-95140414D01*
X199826310Y-95072570D01*
X199897504Y-95025000D01*
X205059251Y-95025000D01*
X205053172Y-95029062D01*
X204879062Y-95203172D01*
X204742265Y-95407903D01*
X204648037Y-95635389D01*
X204600000Y-95876886D01*
X204600000Y-96123114D01*
X204648037Y-96364611D01*
X204742265Y-96592097D01*
X204879062Y-96796828D01*
X205053172Y-96970938D01*
X205257903Y-97107735D01*
X205485389Y-97201963D01*
X205726886Y-97250000D01*
X205973114Y-97250000D01*
X206214611Y-97201963D01*
X206442097Y-97107735D01*
X206646828Y-96970938D01*
X206820938Y-96796828D01*
X206957735Y-96592097D01*
X207051963Y-96364611D01*
X207100000Y-96123114D01*
X207100000Y-95876886D01*
X207051963Y-95635389D01*
X206957735Y-95407903D01*
X206820938Y-95203172D01*
X206646828Y-95029062D01*
X206640749Y-95025000D01*
X209959251Y-95025000D01*
X209953172Y-95029062D01*
X209779062Y-95203172D01*
X209642265Y-95407903D01*
X209548037Y-95635389D01*
X209500000Y-95876886D01*
X209500000Y-96123114D01*
X209548037Y-96364611D01*
X209642265Y-96592097D01*
X209779062Y-96796828D01*
X209953172Y-96970938D01*
X210157903Y-97107735D01*
X210385389Y-97201963D01*
X210626886Y-97250000D01*
X210873114Y-97250000D01*
X211114611Y-97201963D01*
X211342097Y-97107735D01*
X211546828Y-96970938D01*
X211575000Y-96942766D01*
X211575000Y-97013642D01*
X211609586Y-97187520D01*
X211677430Y-97351310D01*
X211775924Y-97498717D01*
X211901283Y-97624076D01*
X212048690Y-97722570D01*
X212212480Y-97790414D01*
X212386358Y-97825000D01*
X212563642Y-97825000D01*
X212737520Y-97790414D01*
X212901310Y-97722570D01*
X213048717Y-97624076D01*
X213174076Y-97498717D01*
X213272570Y-97351310D01*
X213340414Y-97187520D01*
X213375000Y-97013642D01*
X213375000Y-96836358D01*
X213340414Y-96662480D01*
X213272570Y-96498690D01*
X213225000Y-96427496D01*
X213225000Y-95985826D01*
X213228627Y-95948998D01*
X213225000Y-95912170D01*
X213225000Y-95912163D01*
X213214147Y-95801972D01*
X213179923Y-95689151D01*
X222266205Y-95689151D01*
X222337963Y-95843638D01*
X222513733Y-95940977D01*
X222705114Y-96002156D01*
X222904754Y-96024822D01*
X223104980Y-96008104D01*
X223298097Y-95952647D01*
X223476684Y-95860579D01*
X223502037Y-95843638D01*
X223573795Y-95689151D01*
X222920000Y-95035355D01*
X222266205Y-95689151D01*
X213179923Y-95689151D01*
X213171261Y-95660597D01*
X213101619Y-95530305D01*
X213074754Y-95497570D01*
X213031376Y-95444714D01*
X213031374Y-95444712D01*
X213007895Y-95416103D01*
X212979286Y-95392624D01*
X212571416Y-94984754D01*
X221895178Y-94984754D01*
X221911896Y-95184980D01*
X221967353Y-95378097D01*
X222059421Y-95556684D01*
X222076362Y-95582037D01*
X222230849Y-95653795D01*
X222884645Y-95000000D01*
X222955355Y-95000000D01*
X223609151Y-95653795D01*
X223763638Y-95582037D01*
X223860977Y-95406267D01*
X223922156Y-95214886D01*
X223944822Y-95015246D01*
X223933517Y-94879840D01*
X226780000Y-94879840D01*
X226780000Y-95120160D01*
X226826884Y-95355861D01*
X226918850Y-95577887D01*
X227052364Y-95777705D01*
X227222295Y-95947636D01*
X227422113Y-96081150D01*
X227644139Y-96173116D01*
X227879840Y-96220000D01*
X228120160Y-96220000D01*
X228355861Y-96173116D01*
X228577887Y-96081150D01*
X228777705Y-95947636D01*
X228947636Y-95777705D01*
X229081150Y-95577887D01*
X229092336Y-95550880D01*
X229850000Y-95550880D01*
X229850000Y-96449119D01*
X229864470Y-96596033D01*
X229921651Y-96784534D01*
X230014508Y-96958258D01*
X230139472Y-97110528D01*
X230291742Y-97235492D01*
X230465465Y-97328349D01*
X230653966Y-97385530D01*
X230850000Y-97404838D01*
X231046033Y-97385530D01*
X231234534Y-97328349D01*
X231408258Y-97235492D01*
X231560528Y-97110528D01*
X231685492Y-96958258D01*
X231778349Y-96784535D01*
X231835530Y-96596034D01*
X231844247Y-96507530D01*
X231881630Y-96597781D01*
X232019741Y-96804478D01*
X232195522Y-96980259D01*
X232402219Y-97118370D01*
X232631888Y-97213502D01*
X232875704Y-97262000D01*
X233124296Y-97262000D01*
X233368112Y-97213502D01*
X233597781Y-97118370D01*
X233804478Y-96980259D01*
X233980259Y-96804478D01*
X234000000Y-96774934D01*
X234019741Y-96804478D01*
X234195522Y-96980259D01*
X234402219Y-97118370D01*
X234631888Y-97213502D01*
X234875704Y-97262000D01*
X235124296Y-97262000D01*
X235368112Y-97213502D01*
X235597781Y-97118370D01*
X235804478Y-96980259D01*
X235980259Y-96804478D01*
X236000000Y-96774934D01*
X236019741Y-96804478D01*
X236195522Y-96980259D01*
X236402219Y-97118370D01*
X236631888Y-97213502D01*
X236875704Y-97262000D01*
X237124296Y-97262000D01*
X237368112Y-97213502D01*
X237597781Y-97118370D01*
X237804478Y-96980259D01*
X237980259Y-96804478D01*
X238118370Y-96597781D01*
X238155753Y-96507530D01*
X238164470Y-96596033D01*
X238221651Y-96784534D01*
X238314508Y-96958258D01*
X238439472Y-97110528D01*
X238591742Y-97235492D01*
X238765465Y-97328349D01*
X238953966Y-97385530D01*
X239150000Y-97404838D01*
X239346033Y-97385530D01*
X239534534Y-97328349D01*
X239708258Y-97235492D01*
X239860528Y-97110528D01*
X239985492Y-96958258D01*
X240078349Y-96784535D01*
X240135530Y-96596034D01*
X240150000Y-96449120D01*
X240150000Y-95550881D01*
X240135530Y-95403967D01*
X240078349Y-95215465D01*
X239985492Y-95041742D01*
X239860528Y-94889472D01*
X239708258Y-94764508D01*
X239534535Y-94671651D01*
X239346034Y-94614470D01*
X239150000Y-94595162D01*
X238953967Y-94614470D01*
X238765466Y-94671651D01*
X238591743Y-94764508D01*
X238439473Y-94889472D01*
X238314509Y-95041742D01*
X238221652Y-95215465D01*
X238164471Y-95403966D01*
X238155753Y-95492470D01*
X238118370Y-95402219D01*
X237980259Y-95195522D01*
X237804478Y-95019741D01*
X237597781Y-94881630D01*
X237368112Y-94786498D01*
X237124296Y-94738000D01*
X236875704Y-94738000D01*
X236631888Y-94786498D01*
X236402219Y-94881630D01*
X236195522Y-95019741D01*
X236019741Y-95195522D01*
X236000000Y-95225066D01*
X235980259Y-95195522D01*
X235804478Y-95019741D01*
X235597781Y-94881630D01*
X235368112Y-94786498D01*
X235124296Y-94738000D01*
X234875704Y-94738000D01*
X234631888Y-94786498D01*
X234402219Y-94881630D01*
X234195522Y-95019741D01*
X234019741Y-95195522D01*
X234000000Y-95225066D01*
X233980259Y-95195522D01*
X233804478Y-95019741D01*
X233597781Y-94881630D01*
X233368112Y-94786498D01*
X233124296Y-94738000D01*
X232875704Y-94738000D01*
X232631888Y-94786498D01*
X232402219Y-94881630D01*
X232195522Y-95019741D01*
X232019741Y-95195522D01*
X231881630Y-95402219D01*
X231844247Y-95492470D01*
X231835530Y-95403967D01*
X231778349Y-95215465D01*
X231685492Y-95041742D01*
X231560528Y-94889472D01*
X231408258Y-94764508D01*
X231234535Y-94671651D01*
X231046034Y-94614470D01*
X230850000Y-94595162D01*
X230653967Y-94614470D01*
X230465466Y-94671651D01*
X230291743Y-94764508D01*
X230139473Y-94889472D01*
X230014509Y-95041742D01*
X229921652Y-95215465D01*
X229864471Y-95403966D01*
X229850000Y-95550880D01*
X229092336Y-95550880D01*
X229173116Y-95355861D01*
X229220000Y-95120160D01*
X229220000Y-94879840D01*
X229173116Y-94644139D01*
X229081150Y-94422113D01*
X228947636Y-94222295D01*
X228777705Y-94052364D01*
X228577887Y-93918850D01*
X228355861Y-93826884D01*
X228120160Y-93780000D01*
X227879840Y-93780000D01*
X227644139Y-93826884D01*
X227422113Y-93918850D01*
X227222295Y-94052364D01*
X227052364Y-94222295D01*
X226918850Y-94422113D01*
X226826884Y-94644139D01*
X226780000Y-94879840D01*
X223933517Y-94879840D01*
X223928104Y-94815020D01*
X223872647Y-94621903D01*
X223780579Y-94443316D01*
X223763638Y-94417963D01*
X223609151Y-94346205D01*
X222955355Y-95000000D01*
X222884645Y-95000000D01*
X222230849Y-94346205D01*
X222076362Y-94417963D01*
X221979023Y-94593733D01*
X221917844Y-94785114D01*
X221895178Y-94984754D01*
X212571416Y-94984754D01*
X211897511Y-94310849D01*
X222266205Y-94310849D01*
X222920000Y-94964645D01*
X223573795Y-94310849D01*
X223502037Y-94156362D01*
X223326267Y-94059023D01*
X223134886Y-93997844D01*
X222935246Y-93975178D01*
X222735020Y-93991896D01*
X222541903Y-94047353D01*
X222363316Y-94139421D01*
X222337963Y-94156362D01*
X222266205Y-94310849D01*
X211897511Y-94310849D01*
X211357380Y-93770719D01*
X211333897Y-93742105D01*
X211219695Y-93648381D01*
X211089403Y-93578739D01*
X210948028Y-93535853D01*
X210837837Y-93525000D01*
X210837829Y-93525000D01*
X210801002Y-93521373D01*
X210764175Y-93525000D01*
X199897504Y-93525000D01*
X199826310Y-93477430D01*
X199662520Y-93409586D01*
X199488642Y-93375000D01*
X199311358Y-93375000D01*
X199137480Y-93409586D01*
X198973690Y-93477430D01*
X198826283Y-93575924D01*
X198700924Y-93701283D01*
X198602430Y-93848690D01*
X198534586Y-94012480D01*
X198500000Y-94186358D01*
X194579653Y-94186358D01*
X193668294Y-93275000D01*
X248225000Y-93275000D01*
X248225001Y-115225000D01*
X248225001Y-115225000D01*
G37*
X248225001Y-115225000D02*
X223270666Y-115225000D01*
X223382895Y-115132895D01*
X223406378Y-115104281D01*
X224461443Y-114049218D01*
X224525704Y-114062000D01*
X224774296Y-114062000D01*
X225018112Y-114013502D01*
X225247781Y-113918370D01*
X225454478Y-113780259D01*
X225630259Y-113604478D01*
X225650000Y-113574934D01*
X225669741Y-113604478D01*
X225845522Y-113780259D01*
X226052219Y-113918370D01*
X226281888Y-114013502D01*
X226525704Y-114062000D01*
X226774296Y-114062000D01*
X227018112Y-114013502D01*
X227247781Y-113918370D01*
X227454478Y-113780259D01*
X227630259Y-113604478D01*
X227650000Y-113574934D01*
X227669741Y-113604478D01*
X227845522Y-113780259D01*
X228052219Y-113918370D01*
X228281888Y-114013502D01*
X228525704Y-114062000D01*
X228774296Y-114062000D01*
X229018112Y-114013502D01*
X229247781Y-113918370D01*
X229454478Y-113780259D01*
X229630259Y-113604478D01*
X229768370Y-113397781D01*
X229805753Y-113307530D01*
X229814471Y-113396034D01*
X229871652Y-113584535D01*
X229964509Y-113758258D01*
X230089473Y-113910528D01*
X230241743Y-114035492D01*
X230415466Y-114128349D01*
X230603967Y-114185530D01*
X230800000Y-114204838D01*
X230996034Y-114185530D01*
X231184535Y-114128349D01*
X231358258Y-114035492D01*
X231510528Y-113910528D01*
X231635492Y-113758258D01*
X231728349Y-113584535D01*
X231785530Y-113396033D01*
X231800000Y-113249119D01*
X231800000Y-112350880D01*
X231785530Y-112203966D01*
X231728349Y-112015465D01*
X231635492Y-111841742D01*
X231527376Y-111710001D01*
X235757307Y-111710001D01*
X235788001Y-111713024D01*
X235818695Y-111710001D01*
X235818705Y-111710001D01*
X235910522Y-111700958D01*
X236028335Y-111665220D01*
X236136912Y-111607184D01*
X236232081Y-111529081D01*
X236251659Y-111505225D01*
X238656884Y-109100000D01*
X243597581Y-109100000D01*
X243597581Y-110900000D01*
X243607235Y-110998017D01*
X243635825Y-111092267D01*
X243682254Y-111179129D01*
X243744736Y-111255264D01*
X243820871Y-111317746D01*
X243907733Y-111364175D01*
X244001983Y-111392765D01*
X244100000Y-111402419D01*
X245900000Y-111402419D01*
X245998017Y-111392765D01*
X246092267Y-111364175D01*
X246179129Y-111317746D01*
X246255264Y-111255264D01*
X246317746Y-111179129D01*
X246364175Y-111092267D01*
X246392765Y-110998017D01*
X246402419Y-110900000D01*
X246402419Y-109100000D01*
X246392765Y-109001983D01*
X246364175Y-108907733D01*
X246317746Y-108820871D01*
X246255264Y-108744736D01*
X246179129Y-108682254D01*
X246092267Y-108635825D01*
X245998017Y-108607235D01*
X245900000Y-108597581D01*
X245817423Y-108597581D01*
X245892448Y-108547451D01*
X246087451Y-108352448D01*
X246240664Y-108123149D01*
X246346199Y-107868365D01*
X246400000Y-107597888D01*
X246400000Y-107322112D01*
X246346199Y-107051635D01*
X246240664Y-106796851D01*
X246087451Y-106567552D01*
X245892448Y-106372549D01*
X245663149Y-106219336D01*
X245408365Y-106113801D01*
X245137888Y-106060000D01*
X244862112Y-106060000D01*
X244591635Y-106113801D01*
X244336851Y-106219336D01*
X244107552Y-106372549D01*
X243912549Y-106567552D01*
X243759336Y-106796851D01*
X243653801Y-107051635D01*
X243600000Y-107322112D01*
X243600000Y-107597888D01*
X243653801Y-107868365D01*
X243759336Y-108123149D01*
X243912549Y-108352448D01*
X244107552Y-108547451D01*
X244182577Y-108597581D01*
X244100000Y-108597581D01*
X244001983Y-108607235D01*
X243907733Y-108635825D01*
X243820871Y-108682254D01*
X243744736Y-108744736D01*
X243682254Y-108820871D01*
X243635825Y-108907733D01*
X243607235Y-109001983D01*
X243597581Y-109100000D01*
X238656884Y-109100000D01*
X240945230Y-106811655D01*
X240969081Y-106792081D01*
X241005199Y-106748071D01*
X241047184Y-106696913D01*
X241085622Y-106625000D01*
X241105220Y-106588335D01*
X241140958Y-106470522D01*
X241150001Y-106378705D01*
X241150001Y-106378703D01*
X241153025Y-106348001D01*
X241150001Y-106317299D01*
X241150001Y-104555694D01*
X241153024Y-104525000D01*
X241150001Y-104494306D01*
X241150001Y-104494297D01*
X241140958Y-104402480D01*
X241105220Y-104284667D01*
X241047184Y-104176090D01*
X240969081Y-104080921D01*
X240945226Y-104061344D01*
X240713658Y-103829776D01*
X240694080Y-103805920D01*
X240598911Y-103727817D01*
X240490334Y-103669781D01*
X240372521Y-103634043D01*
X240280704Y-103625000D01*
X240280694Y-103625000D01*
X240250000Y-103621977D01*
X240219306Y-103625000D01*
X239122793Y-103625000D01*
X239048717Y-103550924D01*
X238901310Y-103452430D01*
X238737520Y-103384586D01*
X238563642Y-103350000D01*
X238386358Y-103350000D01*
X238212480Y-103384586D01*
X238048690Y-103452430D01*
X237901283Y-103550924D01*
X237775924Y-103676283D01*
X237677430Y-103823690D01*
X237609586Y-103987480D01*
X237575000Y-104161358D01*
X237575000Y-104338642D01*
X237609586Y-104512520D01*
X237677430Y-104676310D01*
X237775924Y-104823717D01*
X237901283Y-104949076D01*
X238048690Y-105047570D01*
X238212480Y-105115414D01*
X238386358Y-105150000D01*
X238563642Y-105150000D01*
X238737520Y-105115414D01*
X238901310Y-105047570D01*
X239048717Y-104949076D01*
X239122793Y-104875000D01*
X239900001Y-104875000D01*
X239900001Y-105102259D01*
X239888642Y-105100000D01*
X239711358Y-105100000D01*
X239537480Y-105134586D01*
X239373690Y-105202430D01*
X239226283Y-105300924D01*
X239152207Y-105375000D01*
X235060088Y-105375000D01*
X235173717Y-105299076D01*
X235299076Y-105173717D01*
X235397570Y-105026310D01*
X235465414Y-104862520D01*
X235500000Y-104688642D01*
X235500000Y-104511358D01*
X235465414Y-104337480D01*
X235397570Y-104173690D01*
X235299076Y-104026283D01*
X235173717Y-103900924D01*
X235026310Y-103802430D01*
X234862520Y-103734586D01*
X234688642Y-103700000D01*
X234583883Y-103700000D01*
X232563658Y-101679776D01*
X232544080Y-101655920D01*
X232506404Y-101625000D01*
X243597581Y-101625000D01*
X243597581Y-101900000D01*
X243607235Y-101998017D01*
X243635825Y-102092267D01*
X243682254Y-102179129D01*
X243744736Y-102255264D01*
X243820871Y-102317746D01*
X243907733Y-102364175D01*
X244001983Y-102392765D01*
X244100000Y-102402419D01*
X245900000Y-102402419D01*
X245998017Y-102392765D01*
X246092267Y-102364175D01*
X246179129Y-102317746D01*
X246255264Y-102255264D01*
X246317746Y-102179129D01*
X246364175Y-102092267D01*
X246392765Y-101998017D01*
X246402419Y-101900000D01*
X246402419Y-100100000D01*
X246392765Y-100001983D01*
X246364175Y-99907733D01*
X246317746Y-99820871D01*
X246255264Y-99744736D01*
X246179129Y-99682254D01*
X246092267Y-99635825D01*
X245998017Y-99607235D01*
X245900000Y-99597581D01*
X245387047Y-99597581D01*
X245440715Y-99582381D01*
X245651212Y-99474836D01*
X245688378Y-99450003D01*
X245781728Y-99277083D01*
X245000000Y-98495355D01*
X244218272Y-99277083D01*
X244311622Y-99450003D01*
X244517989Y-99565276D01*
X244617787Y-99597581D01*
X244100000Y-99597581D01*
X244001983Y-99607235D01*
X243907733Y-99635825D01*
X243820871Y-99682254D01*
X243744736Y-99744736D01*
X243682254Y-99820871D01*
X243635825Y-99907733D01*
X243607235Y-100001983D01*
X243597581Y-100100000D01*
X243597581Y-100375000D01*
X234135339Y-100375000D01*
X234223092Y-100204086D01*
X234282267Y-99996726D01*
X234224717Y-99825000D01*
X233225000Y-99825000D01*
X233225000Y-99845000D01*
X233175000Y-99845000D01*
X233175000Y-99825000D01*
X232175283Y-99825000D01*
X232117733Y-99996726D01*
X232176908Y-100204086D01*
X232264661Y-100375000D01*
X227472221Y-100375000D01*
X226700495Y-99603274D01*
X232117733Y-99603274D01*
X232175283Y-99775000D01*
X233175000Y-99775000D01*
X233175000Y-98775305D01*
X233225000Y-98775305D01*
X233225000Y-99775000D01*
X234224717Y-99775000D01*
X234282267Y-99603274D01*
X234223092Y-99395914D01*
X234124600Y-99204083D01*
X233990576Y-99035153D01*
X233826171Y-98895616D01*
X233637703Y-98790834D01*
X233432414Y-98724833D01*
X233396726Y-98717734D01*
X233225000Y-98775305D01*
X233175000Y-98775305D01*
X233003274Y-98717734D01*
X232967586Y-98724833D01*
X232762297Y-98790834D01*
X232573829Y-98895616D01*
X232409424Y-99035153D01*
X232275400Y-99204083D01*
X232176908Y-99395914D01*
X232117733Y-99603274D01*
X226700495Y-99603274D01*
X225951995Y-98854775D01*
X225932417Y-98830919D01*
X225837248Y-98752816D01*
X225777318Y-98720783D01*
X225815861Y-98713116D01*
X226037887Y-98621150D01*
X226237705Y-98487636D01*
X226287691Y-98437650D01*
X243794401Y-98437650D01*
X243813205Y-98673281D01*
X243877619Y-98900715D01*
X243985164Y-99111212D01*
X244009997Y-99148378D01*
X244182917Y-99241728D01*
X244964645Y-98460000D01*
X245035355Y-98460000D01*
X245817083Y-99241728D01*
X245990003Y-99148378D01*
X246105276Y-98942011D01*
X246178074Y-98717121D01*
X246205599Y-98482350D01*
X246186795Y-98246719D01*
X246122381Y-98019285D01*
X246014836Y-97808788D01*
X245990003Y-97771622D01*
X245817083Y-97678272D01*
X245035355Y-98460000D01*
X244964645Y-98460000D01*
X244182917Y-97678272D01*
X244009997Y-97771622D01*
X243894724Y-97977989D01*
X243821926Y-98202879D01*
X243794401Y-98437650D01*
X226287691Y-98437650D01*
X226407636Y-98317705D01*
X226541150Y-98117887D01*
X226633116Y-97895861D01*
X226680000Y-97660160D01*
X226680000Y-97642917D01*
X244218272Y-97642917D01*
X245000000Y-98424645D01*
X245781728Y-97642917D01*
X245688378Y-97469997D01*
X245482011Y-97354724D01*
X245257121Y-97281926D01*
X245022350Y-97254401D01*
X244786719Y-97273205D01*
X244559285Y-97337619D01*
X244348788Y-97445164D01*
X244311622Y-97469997D01*
X244218272Y-97642917D01*
X226680000Y-97642917D01*
X226680000Y-97419840D01*
X226633116Y-97184139D01*
X226541150Y-96962113D01*
X226407636Y-96762295D01*
X226237705Y-96592364D01*
X226037887Y-96458850D01*
X225815861Y-96366884D01*
X225580160Y-96320000D01*
X225339840Y-96320000D01*
X225104139Y-96366884D01*
X224882113Y-96458850D01*
X224682295Y-96592364D01*
X224512364Y-96762295D01*
X224378850Y-96962113D01*
X224286884Y-97184139D01*
X224240000Y-97419840D01*
X224240000Y-97660160D01*
X224286884Y-97895861D01*
X224378850Y-98117887D01*
X224512364Y-98317705D01*
X224682295Y-98487636D01*
X224882113Y-98621150D01*
X224951761Y-98649999D01*
X215671399Y-98649999D01*
X215640698Y-98646975D01*
X215609996Y-98649999D01*
X215609994Y-98649999D01*
X215518177Y-98659042D01*
X215400364Y-98694780D01*
X215291787Y-98752816D01*
X215196618Y-98830919D01*
X215177044Y-98854770D01*
X212225001Y-101806814D01*
X212225001Y-101182700D01*
X212228025Y-101151999D01*
X212223616Y-101107235D01*
X212215958Y-101029478D01*
X212180220Y-100911665D01*
X212122184Y-100803088D01*
X212044081Y-100707919D01*
X212020230Y-100688345D01*
X208911660Y-97579776D01*
X208892082Y-97555920D01*
X208796913Y-97477817D01*
X208688336Y-97419781D01*
X208570523Y-97384043D01*
X208478706Y-97375000D01*
X208478696Y-97375000D01*
X208448002Y-97371977D01*
X208417308Y-97375000D01*
X197768295Y-97375000D01*
X194579653Y-94186358D01*
X198500000Y-94186358D01*
X198500000Y-94363642D01*
X198534586Y-94537520D01*
X198602430Y-94701310D01*
X198700924Y-94848717D01*
X198826283Y-94974076D01*
X198973690Y-95072570D01*
X199137480Y-95140414D01*
X199311358Y-95175000D01*
X199488642Y-95175000D01*
X199662520Y-95140414D01*
X199826310Y-95072570D01*
X199897504Y-95025000D01*
X205059251Y-95025000D01*
X205053172Y-95029062D01*
X204879062Y-95203172D01*
X204742265Y-95407903D01*
X204648037Y-95635389D01*
X204600000Y-95876886D01*
X204600000Y-96123114D01*
X204648037Y-96364611D01*
X204742265Y-96592097D01*
X204879062Y-96796828D01*
X205053172Y-96970938D01*
X205257903Y-97107735D01*
X205485389Y-97201963D01*
X205726886Y-97250000D01*
X205973114Y-97250000D01*
X206214611Y-97201963D01*
X206442097Y-97107735D01*
X206646828Y-96970938D01*
X206820938Y-96796828D01*
X206957735Y-96592097D01*
X207051963Y-96364611D01*
X207100000Y-96123114D01*
X207100000Y-95876886D01*
X207051963Y-95635389D01*
X206957735Y-95407903D01*
X206820938Y-95203172D01*
X206646828Y-95029062D01*
X206640749Y-95025000D01*
X209959251Y-95025000D01*
X209953172Y-95029062D01*
X209779062Y-95203172D01*
X209642265Y-95407903D01*
X209548037Y-95635389D01*
X209500000Y-95876886D01*
X209500000Y-96123114D01*
X209548037Y-96364611D01*
X209642265Y-96592097D01*
X209779062Y-96796828D01*
X209953172Y-96970938D01*
X210157903Y-97107735D01*
X210385389Y-97201963D01*
X210626886Y-97250000D01*
X210873114Y-97250000D01*
X211114611Y-97201963D01*
X211342097Y-97107735D01*
X211546828Y-96970938D01*
X211575000Y-96942766D01*
X211575000Y-97013642D01*
X211609586Y-97187520D01*
X211677430Y-97351310D01*
X211775924Y-97498717D01*
X211901283Y-97624076D01*
X212048690Y-97722570D01*
X212212480Y-97790414D01*
X212386358Y-97825000D01*
X212563642Y-97825000D01*
X212737520Y-97790414D01*
X212901310Y-97722570D01*
X213048717Y-97624076D01*
X213174076Y-97498717D01*
X213272570Y-97351310D01*
X213340414Y-97187520D01*
X213375000Y-97013642D01*
X213375000Y-96836358D01*
X213340414Y-96662480D01*
X213272570Y-96498690D01*
X213225000Y-96427496D01*
X213225000Y-95985826D01*
X213228627Y-95948998D01*
X213225000Y-95912170D01*
X213225000Y-95912163D01*
X213214147Y-95801972D01*
X213179923Y-95689151D01*
X222266205Y-95689151D01*
X222337963Y-95843638D01*
X222513733Y-95940977D01*
X222705114Y-96002156D01*
X222904754Y-96024822D01*
X223104980Y-96008104D01*
X223298097Y-95952647D01*
X223476684Y-95860579D01*
X223502037Y-95843638D01*
X223573795Y-95689151D01*
X222920000Y-95035355D01*
X222266205Y-95689151D01*
X213179923Y-95689151D01*
X213171261Y-95660597D01*
X213101619Y-95530305D01*
X213074754Y-95497570D01*
X213031376Y-95444714D01*
X213031374Y-95444712D01*
X213007895Y-95416103D01*
X212979286Y-95392624D01*
X212571416Y-94984754D01*
X221895178Y-94984754D01*
X221911896Y-95184980D01*
X221967353Y-95378097D01*
X222059421Y-95556684D01*
X222076362Y-95582037D01*
X222230849Y-95653795D01*
X222884645Y-95000000D01*
X222955355Y-95000000D01*
X223609151Y-95653795D01*
X223763638Y-95582037D01*
X223860977Y-95406267D01*
X223922156Y-95214886D01*
X223944822Y-95015246D01*
X223933517Y-94879840D01*
X226780000Y-94879840D01*
X226780000Y-95120160D01*
X226826884Y-95355861D01*
X226918850Y-95577887D01*
X227052364Y-95777705D01*
X227222295Y-95947636D01*
X227422113Y-96081150D01*
X227644139Y-96173116D01*
X227879840Y-96220000D01*
X228120160Y-96220000D01*
X228355861Y-96173116D01*
X228577887Y-96081150D01*
X228777705Y-95947636D01*
X228947636Y-95777705D01*
X229081150Y-95577887D01*
X229092336Y-95550880D01*
X229850000Y-95550880D01*
X229850000Y-96449119D01*
X229864470Y-96596033D01*
X229921651Y-96784534D01*
X230014508Y-96958258D01*
X230139472Y-97110528D01*
X230291742Y-97235492D01*
X230465465Y-97328349D01*
X230653966Y-97385530D01*
X230850000Y-97404838D01*
X231046033Y-97385530D01*
X231234534Y-97328349D01*
X231408258Y-97235492D01*
X231560528Y-97110528D01*
X231685492Y-96958258D01*
X231778349Y-96784535D01*
X231835530Y-96596034D01*
X231844247Y-96507530D01*
X231881630Y-96597781D01*
X232019741Y-96804478D01*
X232195522Y-96980259D01*
X232402219Y-97118370D01*
X232631888Y-97213502D01*
X232875704Y-97262000D01*
X233124296Y-97262000D01*
X233368112Y-97213502D01*
X233597781Y-97118370D01*
X233804478Y-96980259D01*
X233980259Y-96804478D01*
X234000000Y-96774934D01*
X234019741Y-96804478D01*
X234195522Y-96980259D01*
X234402219Y-97118370D01*
X234631888Y-97213502D01*
X234875704Y-97262000D01*
X235124296Y-97262000D01*
X235368112Y-97213502D01*
X235597781Y-97118370D01*
X235804478Y-96980259D01*
X235980259Y-96804478D01*
X236000000Y-96774934D01*
X236019741Y-96804478D01*
X236195522Y-96980259D01*
X236402219Y-97118370D01*
X236631888Y-97213502D01*
X236875704Y-97262000D01*
X237124296Y-97262000D01*
X237368112Y-97213502D01*
X237597781Y-97118370D01*
X237804478Y-96980259D01*
X237980259Y-96804478D01*
X238118370Y-96597781D01*
X238155753Y-96507530D01*
X238164470Y-96596033D01*
X238221651Y-96784534D01*
X238314508Y-96958258D01*
X238439472Y-97110528D01*
X238591742Y-97235492D01*
X238765465Y-97328349D01*
X238953966Y-97385530D01*
X239150000Y-97404838D01*
X239346033Y-97385530D01*
X239534534Y-97328349D01*
X239708258Y-97235492D01*
X239860528Y-97110528D01*
X239985492Y-96958258D01*
X240078349Y-96784535D01*
X240135530Y-96596034D01*
X240150000Y-96449120D01*
X240150000Y-95550881D01*
X240135530Y-95403967D01*
X240078349Y-95215465D01*
X239985492Y-95041742D01*
X239860528Y-94889472D01*
X239708258Y-94764508D01*
X239534535Y-94671651D01*
X239346034Y-94614470D01*
X239150000Y-94595162D01*
X238953967Y-94614470D01*
X238765466Y-94671651D01*
X238591743Y-94764508D01*
X238439473Y-94889472D01*
X238314509Y-95041742D01*
X238221652Y-95215465D01*
X238164471Y-95403966D01*
X238155753Y-95492470D01*
X238118370Y-95402219D01*
X237980259Y-95195522D01*
X237804478Y-95019741D01*
X237597781Y-94881630D01*
X237368112Y-94786498D01*
X237124296Y-94738000D01*
X236875704Y-94738000D01*
X236631888Y-94786498D01*
X236402219Y-94881630D01*
X236195522Y-95019741D01*
X236019741Y-95195522D01*
X236000000Y-95225066D01*
X235980259Y-95195522D01*
X235804478Y-95019741D01*
X235597781Y-94881630D01*
X235368112Y-94786498D01*
X235124296Y-94738000D01*
X234875704Y-94738000D01*
X234631888Y-94786498D01*
X234402219Y-94881630D01*
X234195522Y-95019741D01*
X234019741Y-95195522D01*
X234000000Y-95225066D01*
X233980259Y-95195522D01*
X233804478Y-95019741D01*
X233597781Y-94881630D01*
X233368112Y-94786498D01*
X233124296Y-94738000D01*
X232875704Y-94738000D01*
X232631888Y-94786498D01*
X232402219Y-94881630D01*
X232195522Y-95019741D01*
X232019741Y-95195522D01*
X231881630Y-95402219D01*
X231844247Y-95492470D01*
X231835530Y-95403967D01*
X231778349Y-95215465D01*
X231685492Y-95041742D01*
X231560528Y-94889472D01*
X231408258Y-94764508D01*
X231234535Y-94671651D01*
X231046034Y-94614470D01*
X230850000Y-94595162D01*
X230653967Y-94614470D01*
X230465466Y-94671651D01*
X230291743Y-94764508D01*
X230139473Y-94889472D01*
X230014509Y-95041742D01*
X229921652Y-95215465D01*
X229864471Y-95403966D01*
X229850000Y-95550880D01*
X229092336Y-95550880D01*
X229173116Y-95355861D01*
X229220000Y-95120160D01*
X229220000Y-94879840D01*
X229173116Y-94644139D01*
X229081150Y-94422113D01*
X228947636Y-94222295D01*
X228777705Y-94052364D01*
X228577887Y-93918850D01*
X228355861Y-93826884D01*
X228120160Y-93780000D01*
X227879840Y-93780000D01*
X227644139Y-93826884D01*
X227422113Y-93918850D01*
X227222295Y-94052364D01*
X227052364Y-94222295D01*
X226918850Y-94422113D01*
X226826884Y-94644139D01*
X226780000Y-94879840D01*
X223933517Y-94879840D01*
X223928104Y-94815020D01*
X223872647Y-94621903D01*
X223780579Y-94443316D01*
X223763638Y-94417963D01*
X223609151Y-94346205D01*
X222955355Y-95000000D01*
X222884645Y-95000000D01*
X222230849Y-94346205D01*
X222076362Y-94417963D01*
X221979023Y-94593733D01*
X221917844Y-94785114D01*
X221895178Y-94984754D01*
X212571416Y-94984754D01*
X211897511Y-94310849D01*
X222266205Y-94310849D01*
X222920000Y-94964645D01*
X223573795Y-94310849D01*
X223502037Y-94156362D01*
X223326267Y-94059023D01*
X223134886Y-93997844D01*
X222935246Y-93975178D01*
X222735020Y-93991896D01*
X222541903Y-94047353D01*
X222363316Y-94139421D01*
X222337963Y-94156362D01*
X222266205Y-94310849D01*
X211897511Y-94310849D01*
X211357380Y-93770719D01*
X211333897Y-93742105D01*
X211219695Y-93648381D01*
X211089403Y-93578739D01*
X210948028Y-93535853D01*
X210837837Y-93525000D01*
X210837829Y-93525000D01*
X210801002Y-93521373D01*
X210764175Y-93525000D01*
X199897504Y-93525000D01*
X199826310Y-93477430D01*
X199662520Y-93409586D01*
X199488642Y-93375000D01*
X199311358Y-93375000D01*
X199137480Y-93409586D01*
X198973690Y-93477430D01*
X198826283Y-93575924D01*
X198700924Y-93701283D01*
X198602430Y-93848690D01*
X198534586Y-94012480D01*
X198500000Y-94186358D01*
X194579653Y-94186358D01*
X193668294Y-93275000D01*
X248225000Y-93275000D01*
X248225001Y-115225000D01*
G36*
X190824999Y-109538164D02*
G01*
X190821371Y-109574999D01*
X190835852Y-109722025D01*
X190878738Y-109863400D01*
X190948380Y-109993692D01*
X190950000Y-109995666D01*
X190949999Y-111400432D01*
X189750000Y-112600432D01*
X189750000Y-112511358D01*
X189715414Y-112337480D01*
X189647570Y-112173690D01*
X189621628Y-112134865D01*
X189651310Y-112122570D01*
X189798717Y-112024076D01*
X189924076Y-111898717D01*
X190022570Y-111751310D01*
X190090414Y-111587520D01*
X190125000Y-111413642D01*
X190125000Y-111236358D01*
X190090414Y-111062480D01*
X190022570Y-110898690D01*
X189924076Y-110751283D01*
X189798717Y-110625924D01*
X189651310Y-110527430D01*
X189487520Y-110459586D01*
X189313642Y-110425000D01*
X189136358Y-110425000D01*
X188962480Y-110459586D01*
X188798690Y-110527430D01*
X188651283Y-110625924D01*
X188577207Y-110700000D01*
X187698881Y-110700000D01*
X186949575Y-109950695D01*
X187500000Y-109950000D01*
X187575000Y-109875000D01*
X187575000Y-108675000D01*
X187625000Y-108675000D01*
X187625000Y-109875000D01*
X187700000Y-109950000D01*
X188850000Y-109951452D01*
X188908810Y-109945660D01*
X188965361Y-109928505D01*
X189017478Y-109900648D01*
X189063159Y-109863159D01*
X189100648Y-109817478D01*
X189128505Y-109765361D01*
X189145660Y-109708810D01*
X189151452Y-109650000D01*
X189150000Y-108750000D01*
X189075000Y-108675000D01*
X187625000Y-108675000D01*
X187575000Y-108675000D01*
X187555000Y-108675000D01*
X187555000Y-108625000D01*
X187575000Y-108625000D01*
X187575000Y-107425000D01*
X187625000Y-107425000D01*
X187625000Y-108625000D01*
X189075000Y-108625000D01*
X189150000Y-108550000D01*
X189151452Y-107650000D01*
X189145660Y-107591190D01*
X189128505Y-107534639D01*
X189100648Y-107482522D01*
X189063159Y-107436841D01*
X189017478Y-107399352D01*
X188965361Y-107371495D01*
X188908810Y-107354340D01*
X188850000Y-107348548D01*
X187700000Y-107350000D01*
X187625000Y-107425000D01*
X187575000Y-107425000D01*
X187500000Y-107350000D01*
X186475000Y-107348706D01*
X186475000Y-106552419D01*
X188750000Y-106552419D01*
X188774560Y-106550000D01*
X189921175Y-106550000D01*
X189958002Y-106553627D01*
X189994829Y-106550000D01*
X189994837Y-106550000D01*
X190105028Y-106539147D01*
X190246403Y-106496261D01*
X190376695Y-106426619D01*
X190490897Y-106332895D01*
X190514380Y-106304281D01*
X190824999Y-105993662D01*
X190824999Y-109538164D01*
X190824999Y-109538164D01*
G37*
X190824999Y-109538164D02*
X190821371Y-109574999D01*
X190835852Y-109722025D01*
X190878738Y-109863400D01*
X190948380Y-109993692D01*
X190950000Y-109995666D01*
X190949999Y-111400432D01*
X189750000Y-112600432D01*
X189750000Y-112511358D01*
X189715414Y-112337480D01*
X189647570Y-112173690D01*
X189621628Y-112134865D01*
X189651310Y-112122570D01*
X189798717Y-112024076D01*
X189924076Y-111898717D01*
X190022570Y-111751310D01*
X190090414Y-111587520D01*
X190125000Y-111413642D01*
X190125000Y-111236358D01*
X190090414Y-111062480D01*
X190022570Y-110898690D01*
X189924076Y-110751283D01*
X189798717Y-110625924D01*
X189651310Y-110527430D01*
X189487520Y-110459586D01*
X189313642Y-110425000D01*
X189136358Y-110425000D01*
X188962480Y-110459586D01*
X188798690Y-110527430D01*
X188651283Y-110625924D01*
X188577207Y-110700000D01*
X187698881Y-110700000D01*
X186949575Y-109950695D01*
X187500000Y-109950000D01*
X187575000Y-109875000D01*
X187575000Y-108675000D01*
X187625000Y-108675000D01*
X187625000Y-109875000D01*
X187700000Y-109950000D01*
X188850000Y-109951452D01*
X188908810Y-109945660D01*
X188965361Y-109928505D01*
X189017478Y-109900648D01*
X189063159Y-109863159D01*
X189100648Y-109817478D01*
X189128505Y-109765361D01*
X189145660Y-109708810D01*
X189151452Y-109650000D01*
X189150000Y-108750000D01*
X189075000Y-108675000D01*
X187625000Y-108675000D01*
X187575000Y-108675000D01*
X187555000Y-108675000D01*
X187555000Y-108625000D01*
X187575000Y-108625000D01*
X187575000Y-107425000D01*
X187625000Y-107425000D01*
X187625000Y-108625000D01*
X189075000Y-108625000D01*
X189150000Y-108550000D01*
X189151452Y-107650000D01*
X189145660Y-107591190D01*
X189128505Y-107534639D01*
X189100648Y-107482522D01*
X189063159Y-107436841D01*
X189017478Y-107399352D01*
X188965361Y-107371495D01*
X188908810Y-107354340D01*
X188850000Y-107348548D01*
X187700000Y-107350000D01*
X187625000Y-107425000D01*
X187575000Y-107425000D01*
X187500000Y-107350000D01*
X186475000Y-107348706D01*
X186475000Y-106552419D01*
X188750000Y-106552419D01*
X188774560Y-106550000D01*
X189921175Y-106550000D01*
X189958002Y-106553627D01*
X189994829Y-106550000D01*
X189994837Y-106550000D01*
X190105028Y-106539147D01*
X190246403Y-106496261D01*
X190376695Y-106426619D01*
X190490897Y-106332895D01*
X190514380Y-106304281D01*
X190824999Y-105993662D01*
X190824999Y-109538164D01*
G36*
X199909353Y-101920235D02*
G01*
X199928922Y-101944080D01*
X199952767Y-101963649D01*
X199952770Y-101963652D01*
X200024089Y-102022182D01*
X200078170Y-102051089D01*
X200132668Y-102080219D01*
X200250481Y-102115957D01*
X200342298Y-102125000D01*
X200342307Y-102125000D01*
X200373001Y-102128023D01*
X200403695Y-102125000D01*
X201389755Y-102125000D01*
X201384586Y-102137480D01*
X201350000Y-102311358D01*
X201350000Y-102488642D01*
X201384586Y-102662520D01*
X201452430Y-102826310D01*
X201550924Y-102973717D01*
X201676283Y-103099076D01*
X201823690Y-103197570D01*
X201987480Y-103265414D01*
X202161358Y-103300000D01*
X202266118Y-103300000D01*
X202588698Y-103622581D01*
X202175000Y-103622581D01*
X202076983Y-103632235D01*
X201982733Y-103660825D01*
X201895871Y-103707254D01*
X201819736Y-103769736D01*
X201757254Y-103845871D01*
X201710825Y-103932733D01*
X201682235Y-104026983D01*
X201672581Y-104125000D01*
X201672581Y-104332978D01*
X201612915Y-104221351D01*
X201444213Y-104015787D01*
X201238649Y-103847085D01*
X201004122Y-103721728D01*
X200749646Y-103644533D01*
X200551321Y-103625000D01*
X200418679Y-103625000D01*
X200220354Y-103644533D01*
X199965878Y-103721728D01*
X199731351Y-103847085D01*
X199525787Y-104015787D01*
X199357085Y-104221351D01*
X199231728Y-104455878D01*
X199154533Y-104710354D01*
X199128468Y-104975000D01*
X199154533Y-105239646D01*
X199231728Y-105494122D01*
X199357085Y-105728649D01*
X199525787Y-105934213D01*
X199731351Y-106102915D01*
X199965878Y-106228272D01*
X200021022Y-106245000D01*
X199965878Y-106261728D01*
X199731351Y-106387085D01*
X199525787Y-106555787D01*
X199357085Y-106761351D01*
X199231728Y-106995878D01*
X199154533Y-107250354D01*
X199128468Y-107515000D01*
X199154533Y-107779646D01*
X199231728Y-108034122D01*
X199357085Y-108268649D01*
X199525787Y-108474213D01*
X199731351Y-108642915D01*
X199965878Y-108768272D01*
X200220354Y-108845467D01*
X200418679Y-108865000D01*
X200551321Y-108865000D01*
X200749646Y-108845467D01*
X201004122Y-108768272D01*
X201238649Y-108642915D01*
X201444213Y-108474213D01*
X201612915Y-108268649D01*
X201738272Y-108034122D01*
X201755000Y-107978978D01*
X201771728Y-108034122D01*
X201897085Y-108268649D01*
X202065787Y-108474213D01*
X202271351Y-108642915D01*
X202505878Y-108768272D01*
X202561022Y-108785000D01*
X202505878Y-108801728D01*
X202271351Y-108927085D01*
X202065787Y-109095787D01*
X201897085Y-109301351D01*
X201771728Y-109535878D01*
X201694533Y-109790354D01*
X201668468Y-110055000D01*
X201694533Y-110319646D01*
X201771728Y-110574122D01*
X201897085Y-110808649D01*
X202065787Y-111014213D01*
X202271351Y-111182915D01*
X202443630Y-111275000D01*
X200147793Y-111275000D01*
X200073717Y-111200924D01*
X199926310Y-111102430D01*
X199762520Y-111034586D01*
X199588642Y-111000000D01*
X199411358Y-111000000D01*
X199399999Y-111002259D01*
X199399999Y-110528813D01*
X199403625Y-110491996D01*
X199399999Y-110455179D01*
X199399999Y-110455162D01*
X199394922Y-110403616D01*
X199430416Y-110513643D01*
X199540156Y-110710569D01*
X199686206Y-110882302D01*
X199862953Y-111022243D01*
X200063605Y-111125013D01*
X200280451Y-111186663D01*
X200460000Y-111129729D01*
X200460000Y-110080000D01*
X200510000Y-110080000D01*
X200510000Y-111129729D01*
X200689549Y-111186663D01*
X200906395Y-111125013D01*
X201107047Y-111022243D01*
X201283794Y-110882302D01*
X201429844Y-110710569D01*
X201539584Y-110513643D01*
X201608797Y-110299091D01*
X201616662Y-110259549D01*
X201559709Y-110080000D01*
X200510000Y-110080000D01*
X200460000Y-110080000D01*
X199410291Y-110080000D01*
X199358396Y-110243603D01*
X199346260Y-110203596D01*
X199276618Y-110073304D01*
X199251883Y-110043164D01*
X199206375Y-109987712D01*
X199206368Y-109987705D01*
X199182894Y-109959102D01*
X199154291Y-109935628D01*
X199069114Y-109850451D01*
X199353338Y-109850451D01*
X199410291Y-110030000D01*
X200460000Y-110030000D01*
X200460000Y-108980271D01*
X200510000Y-108980271D01*
X200510000Y-110030000D01*
X201559709Y-110030000D01*
X201616662Y-109850451D01*
X201608797Y-109810909D01*
X201539584Y-109596357D01*
X201429844Y-109399431D01*
X201283794Y-109227698D01*
X201107047Y-109087757D01*
X200906395Y-108984987D01*
X200689549Y-108923337D01*
X200510000Y-108980271D01*
X200460000Y-108980271D01*
X200280451Y-108923337D01*
X200063605Y-108984987D01*
X199862953Y-109087757D01*
X199686206Y-109227698D01*
X199540156Y-109399431D01*
X199430416Y-109596357D01*
X199361203Y-109810909D01*
X199353338Y-109850451D01*
X199069114Y-109850451D01*
X197339380Y-108120719D01*
X197315897Y-108092105D01*
X197201695Y-107998381D01*
X197071403Y-107928739D01*
X196930028Y-107885853D01*
X196819837Y-107875000D01*
X196819829Y-107875000D01*
X196783002Y-107871373D01*
X196746175Y-107875000D01*
X192972504Y-107875000D01*
X192901310Y-107827430D01*
X192737520Y-107759586D01*
X192563642Y-107725000D01*
X192386358Y-107725000D01*
X192324999Y-107737205D01*
X192324999Y-95935660D01*
X192678541Y-95582118D01*
X192762520Y-95565414D01*
X192926310Y-95497570D01*
X193073717Y-95399076D01*
X193199076Y-95273717D01*
X193224615Y-95235495D01*
X199909353Y-101920235D01*
X199909353Y-101920235D01*
G37*
X199909353Y-101920235D02*
X199928922Y-101944080D01*
X199952767Y-101963649D01*
X199952770Y-101963652D01*
X200024089Y-102022182D01*
X200078170Y-102051089D01*
X200132668Y-102080219D01*
X200250481Y-102115957D01*
X200342298Y-102125000D01*
X200342307Y-102125000D01*
X200373001Y-102128023D01*
X200403695Y-102125000D01*
X201389755Y-102125000D01*
X201384586Y-102137480D01*
X201350000Y-102311358D01*
X201350000Y-102488642D01*
X201384586Y-102662520D01*
X201452430Y-102826310D01*
X201550924Y-102973717D01*
X201676283Y-103099076D01*
X201823690Y-103197570D01*
X201987480Y-103265414D01*
X202161358Y-103300000D01*
X202266118Y-103300000D01*
X202588698Y-103622581D01*
X202175000Y-103622581D01*
X202076983Y-103632235D01*
X201982733Y-103660825D01*
X201895871Y-103707254D01*
X201819736Y-103769736D01*
X201757254Y-103845871D01*
X201710825Y-103932733D01*
X201682235Y-104026983D01*
X201672581Y-104125000D01*
X201672581Y-104332978D01*
X201612915Y-104221351D01*
X201444213Y-104015787D01*
X201238649Y-103847085D01*
X201004122Y-103721728D01*
X200749646Y-103644533D01*
X200551321Y-103625000D01*
X200418679Y-103625000D01*
X200220354Y-103644533D01*
X199965878Y-103721728D01*
X199731351Y-103847085D01*
X199525787Y-104015787D01*
X199357085Y-104221351D01*
X199231728Y-104455878D01*
X199154533Y-104710354D01*
X199128468Y-104975000D01*
X199154533Y-105239646D01*
X199231728Y-105494122D01*
X199357085Y-105728649D01*
X199525787Y-105934213D01*
X199731351Y-106102915D01*
X199965878Y-106228272D01*
X200021022Y-106245000D01*
X199965878Y-106261728D01*
X199731351Y-106387085D01*
X199525787Y-106555787D01*
X199357085Y-106761351D01*
X199231728Y-106995878D01*
X199154533Y-107250354D01*
X199128468Y-107515000D01*
X199154533Y-107779646D01*
X199231728Y-108034122D01*
X199357085Y-108268649D01*
X199525787Y-108474213D01*
X199731351Y-108642915D01*
X199965878Y-108768272D01*
X200220354Y-108845467D01*
X200418679Y-108865000D01*
X200551321Y-108865000D01*
X200749646Y-108845467D01*
X201004122Y-108768272D01*
X201238649Y-108642915D01*
X201444213Y-108474213D01*
X201612915Y-108268649D01*
X201738272Y-108034122D01*
X201755000Y-107978978D01*
X201771728Y-108034122D01*
X201897085Y-108268649D01*
X202065787Y-108474213D01*
X202271351Y-108642915D01*
X202505878Y-108768272D01*
X202561022Y-108785000D01*
X202505878Y-108801728D01*
X202271351Y-108927085D01*
X202065787Y-109095787D01*
X201897085Y-109301351D01*
X201771728Y-109535878D01*
X201694533Y-109790354D01*
X201668468Y-110055000D01*
X201694533Y-110319646D01*
X201771728Y-110574122D01*
X201897085Y-110808649D01*
X202065787Y-111014213D01*
X202271351Y-111182915D01*
X202443630Y-111275000D01*
X200147793Y-111275000D01*
X200073717Y-111200924D01*
X199926310Y-111102430D01*
X199762520Y-111034586D01*
X199588642Y-111000000D01*
X199411358Y-111000000D01*
X199399999Y-111002259D01*
X199399999Y-110528813D01*
X199403625Y-110491996D01*
X199399999Y-110455179D01*
X199399999Y-110455162D01*
X199394922Y-110403616D01*
X199430416Y-110513643D01*
X199540156Y-110710569D01*
X199686206Y-110882302D01*
X199862953Y-111022243D01*
X200063605Y-111125013D01*
X200280451Y-111186663D01*
X200460000Y-111129729D01*
X200460000Y-110080000D01*
X200510000Y-110080000D01*
X200510000Y-111129729D01*
X200689549Y-111186663D01*
X200906395Y-111125013D01*
X201107047Y-111022243D01*
X201283794Y-110882302D01*
X201429844Y-110710569D01*
X201539584Y-110513643D01*
X201608797Y-110299091D01*
X201616662Y-110259549D01*
X201559709Y-110080000D01*
X200510000Y-110080000D01*
X200460000Y-110080000D01*
X199410291Y-110080000D01*
X199358396Y-110243603D01*
X199346260Y-110203596D01*
X199276618Y-110073304D01*
X199251883Y-110043164D01*
X199206375Y-109987712D01*
X199206368Y-109987705D01*
X199182894Y-109959102D01*
X199154291Y-109935628D01*
X199069114Y-109850451D01*
X199353338Y-109850451D01*
X199410291Y-110030000D01*
X200460000Y-110030000D01*
X200460000Y-108980271D01*
X200510000Y-108980271D01*
X200510000Y-110030000D01*
X201559709Y-110030000D01*
X201616662Y-109850451D01*
X201608797Y-109810909D01*
X201539584Y-109596357D01*
X201429844Y-109399431D01*
X201283794Y-109227698D01*
X201107047Y-109087757D01*
X200906395Y-108984987D01*
X200689549Y-108923337D01*
X200510000Y-108980271D01*
X200460000Y-108980271D01*
X200280451Y-108923337D01*
X200063605Y-108984987D01*
X199862953Y-109087757D01*
X199686206Y-109227698D01*
X199540156Y-109399431D01*
X199430416Y-109596357D01*
X199361203Y-109810909D01*
X199353338Y-109850451D01*
X199069114Y-109850451D01*
X197339380Y-108120719D01*
X197315897Y-108092105D01*
X197201695Y-107998381D01*
X197071403Y-107928739D01*
X196930028Y-107885853D01*
X196819837Y-107875000D01*
X196819829Y-107875000D01*
X196783002Y-107871373D01*
X196746175Y-107875000D01*
X192972504Y-107875000D01*
X192901310Y-107827430D01*
X192737520Y-107759586D01*
X192563642Y-107725000D01*
X192386358Y-107725000D01*
X192324999Y-107737205D01*
X192324999Y-95935660D01*
X192678541Y-95582118D01*
X192762520Y-95565414D01*
X192926310Y-95497570D01*
X193073717Y-95399076D01*
X193199076Y-95273717D01*
X193224615Y-95235495D01*
X199909353Y-101920235D01*
G36*
X217650000Y-100400000D02*
G01*
X217725000Y-100475000D01*
X218775000Y-100475000D01*
X218775000Y-100455000D01*
X218825000Y-100455000D01*
X218825000Y-100475000D01*
X219875000Y-100475000D01*
X219950000Y-100400000D01*
X219950968Y-99899999D01*
X223102259Y-99899999D01*
X223100000Y-99911358D01*
X223100000Y-100088642D01*
X223134586Y-100262520D01*
X223202430Y-100426310D01*
X223300924Y-100573717D01*
X223426283Y-100699076D01*
X223573690Y-100797570D01*
X223737480Y-100865414D01*
X223911358Y-100900000D01*
X224016117Y-100900000D01*
X224336346Y-101220229D01*
X224347581Y-101233919D01*
X224347581Y-101300000D01*
X224357235Y-101398017D01*
X224373004Y-101450000D01*
X224357235Y-101501983D01*
X224347581Y-101600000D01*
X224347581Y-102100000D01*
X224349989Y-102124448D01*
X224349989Y-102149009D01*
X224359643Y-102247026D01*
X224378765Y-102343159D01*
X224407354Y-102437407D01*
X224444863Y-102527963D01*
X224491293Y-102614827D01*
X224545749Y-102696326D01*
X224608231Y-102772461D01*
X224677539Y-102841769D01*
X224753674Y-102904251D01*
X224835173Y-102958707D01*
X224922037Y-103005137D01*
X225012593Y-103042646D01*
X225106841Y-103071235D01*
X225202974Y-103090357D01*
X225300991Y-103100011D01*
X225325552Y-103100011D01*
X225350000Y-103102419D01*
X225850000Y-103102419D01*
X225874448Y-103100011D01*
X225899009Y-103100011D01*
X225997026Y-103090357D01*
X226093159Y-103071235D01*
X226187407Y-103042646D01*
X226277963Y-103005137D01*
X226364827Y-102958707D01*
X226446326Y-102904251D01*
X226522461Y-102841769D01*
X226591769Y-102772461D01*
X226630719Y-102725000D01*
X231841118Y-102725000D01*
X233700000Y-104583883D01*
X233700000Y-104688642D01*
X233734586Y-104862520D01*
X233802430Y-105026310D01*
X233900924Y-105173717D01*
X234026283Y-105299076D01*
X234139912Y-105375000D01*
X221258883Y-105375000D01*
X219815053Y-103931171D01*
X219927915Y-103793649D01*
X220053272Y-103559122D01*
X220130467Y-103304646D01*
X220156532Y-103040000D01*
X220130467Y-102775354D01*
X220053272Y-102520878D01*
X219927915Y-102286351D01*
X219759213Y-102080787D01*
X219553649Y-101912085D01*
X219319122Y-101786728D01*
X219064646Y-101709533D01*
X218866321Y-101690000D01*
X218733679Y-101690000D01*
X218535354Y-101709533D01*
X218280878Y-101786728D01*
X218046351Y-101912085D01*
X217840787Y-102080787D01*
X217672085Y-102286351D01*
X217546728Y-102520878D01*
X217518573Y-102613693D01*
X217425000Y-102520120D01*
X217425000Y-102447793D01*
X217499076Y-102373717D01*
X217597570Y-102226310D01*
X217665414Y-102062520D01*
X217700000Y-101888642D01*
X217700000Y-101711358D01*
X217665414Y-101537480D01*
X217597570Y-101373690D01*
X217581741Y-101350000D01*
X217648548Y-101350000D01*
X217654340Y-101408810D01*
X217671495Y-101465361D01*
X217699352Y-101517478D01*
X217736841Y-101563159D01*
X217782522Y-101600648D01*
X217834639Y-101628505D01*
X217891190Y-101645660D01*
X217950000Y-101651452D01*
X218700000Y-101650000D01*
X218775000Y-101575000D01*
X218775000Y-100525000D01*
X218825000Y-100525000D01*
X218825000Y-101575000D01*
X218900000Y-101650000D01*
X219650000Y-101651452D01*
X219708810Y-101645660D01*
X219765361Y-101628505D01*
X219817478Y-101600648D01*
X219863159Y-101563159D01*
X219900648Y-101517478D01*
X219928505Y-101465361D01*
X219945660Y-101408810D01*
X219951452Y-101350000D01*
X219950000Y-100600000D01*
X219875000Y-100525000D01*
X218825000Y-100525000D01*
X218775000Y-100525000D01*
X217725000Y-100525000D01*
X217650000Y-100600000D01*
X217648548Y-101350000D01*
X217581741Y-101350000D01*
X217499076Y-101226283D01*
X217373717Y-101100924D01*
X217226310Y-101002430D01*
X217062520Y-100934586D01*
X216888642Y-100900000D01*
X216711358Y-100900000D01*
X216537480Y-100934586D01*
X216373690Y-101002430D01*
X216226283Y-101100924D01*
X216100924Y-101226283D01*
X216002430Y-101373690D01*
X215934586Y-101537480D01*
X215900000Y-101711358D01*
X215900000Y-101888642D01*
X215934586Y-102062520D01*
X216002430Y-102226310D01*
X216100924Y-102373717D01*
X216175000Y-102447793D01*
X216175000Y-102748308D01*
X216171977Y-102779002D01*
X216175000Y-102809696D01*
X216175000Y-102809705D01*
X216184043Y-102901522D01*
X216219781Y-103019335D01*
X216277817Y-103127912D01*
X216355920Y-103223082D01*
X216379776Y-103242660D01*
X217772345Y-104635230D01*
X217791919Y-104659081D01*
X217802341Y-104667634D01*
X217672085Y-104826351D01*
X217546728Y-105060878D01*
X217469533Y-105315354D01*
X217443468Y-105580000D01*
X217469533Y-105844646D01*
X217546728Y-106099122D01*
X217672085Y-106333649D01*
X217840787Y-106539213D01*
X218046351Y-106707915D01*
X218280878Y-106833272D01*
X218336022Y-106850000D01*
X218280878Y-106866728D01*
X218046351Y-106992085D01*
X217840787Y-107160787D01*
X217672085Y-107366351D01*
X217546728Y-107600878D01*
X217469533Y-107855354D01*
X217443468Y-108120000D01*
X217469533Y-108384646D01*
X217546728Y-108639122D01*
X217659444Y-108850000D01*
X217628695Y-108850000D01*
X217598001Y-108846977D01*
X217567307Y-108850000D01*
X217567298Y-108850000D01*
X217475481Y-108859043D01*
X217357668Y-108894781D01*
X217249091Y-108952817D01*
X217228239Y-108969929D01*
X217199076Y-108926283D01*
X217073717Y-108800924D01*
X216926310Y-108702430D01*
X216762520Y-108634586D01*
X216588642Y-108600000D01*
X216411358Y-108600000D01*
X216237480Y-108634586D01*
X216073690Y-108702430D01*
X215926283Y-108800924D01*
X215852207Y-108875000D01*
X208242512Y-108875000D01*
X208211810Y-108871976D01*
X208181108Y-108875000D01*
X208181106Y-108875000D01*
X208089289Y-108884043D01*
X207971476Y-108919781D01*
X207920934Y-108946796D01*
X207862898Y-108977817D01*
X207791579Y-109036347D01*
X207791575Y-109036351D01*
X207767730Y-109055920D01*
X207748161Y-109079765D01*
X205552928Y-111275000D01*
X203606370Y-111275000D01*
X203778649Y-111182915D01*
X203984213Y-111014213D01*
X204152915Y-110808649D01*
X204278272Y-110574122D01*
X204355467Y-110319646D01*
X204381532Y-110055000D01*
X204355467Y-109790354D01*
X204278272Y-109535878D01*
X204152915Y-109301351D01*
X203984213Y-109095787D01*
X203778649Y-108927085D01*
X203544122Y-108801728D01*
X203488978Y-108785000D01*
X203544122Y-108768272D01*
X203778649Y-108642915D01*
X203984213Y-108474213D01*
X204152915Y-108268649D01*
X204278272Y-108034122D01*
X204355467Y-107779646D01*
X204381532Y-107515000D01*
X204355467Y-107250354D01*
X204278272Y-106995878D01*
X204152915Y-106761351D01*
X203984213Y-106555787D01*
X203778649Y-106387085D01*
X203667022Y-106327419D01*
X203875000Y-106327419D01*
X203973017Y-106317765D01*
X204067267Y-106289175D01*
X204154129Y-106242746D01*
X204230264Y-106180264D01*
X204292746Y-106104129D01*
X204339175Y-106017267D01*
X204367765Y-105923017D01*
X204377419Y-105825000D01*
X204377419Y-104425000D01*
X212552207Y-104425000D01*
X212626283Y-104499076D01*
X212773690Y-104597570D01*
X212937480Y-104665414D01*
X213111358Y-104700000D01*
X213288642Y-104700000D01*
X213462520Y-104665414D01*
X213626310Y-104597570D01*
X213773717Y-104499076D01*
X213899076Y-104373717D01*
X213997570Y-104226310D01*
X214065414Y-104062520D01*
X214100000Y-103888642D01*
X214100000Y-103711358D01*
X214065414Y-103537480D01*
X213997570Y-103373690D01*
X213899076Y-103226283D01*
X213773717Y-103100924D01*
X213626310Y-103002430D01*
X213462520Y-102934586D01*
X213288642Y-102900000D01*
X213111358Y-102900000D01*
X212937480Y-102934586D01*
X212813737Y-102985842D01*
X215899581Y-99899999D01*
X217649032Y-99899999D01*
X217650000Y-100400000D01*
X217650000Y-100400000D01*
G37*
X217650000Y-100400000D02*
X217725000Y-100475000D01*
X218775000Y-100475000D01*
X218775000Y-100455000D01*
X218825000Y-100455000D01*
X218825000Y-100475000D01*
X219875000Y-100475000D01*
X219950000Y-100400000D01*
X219950968Y-99899999D01*
X223102259Y-99899999D01*
X223100000Y-99911358D01*
X223100000Y-100088642D01*
X223134586Y-100262520D01*
X223202430Y-100426310D01*
X223300924Y-100573717D01*
X223426283Y-100699076D01*
X223573690Y-100797570D01*
X223737480Y-100865414D01*
X223911358Y-100900000D01*
X224016117Y-100900000D01*
X224336346Y-101220229D01*
X224347581Y-101233919D01*
X224347581Y-101300000D01*
X224357235Y-101398017D01*
X224373004Y-101450000D01*
X224357235Y-101501983D01*
X224347581Y-101600000D01*
X224347581Y-102100000D01*
X224349989Y-102124448D01*
X224349989Y-102149009D01*
X224359643Y-102247026D01*
X224378765Y-102343159D01*
X224407354Y-102437407D01*
X224444863Y-102527963D01*
X224491293Y-102614827D01*
X224545749Y-102696326D01*
X224608231Y-102772461D01*
X224677539Y-102841769D01*
X224753674Y-102904251D01*
X224835173Y-102958707D01*
X224922037Y-103005137D01*
X225012593Y-103042646D01*
X225106841Y-103071235D01*
X225202974Y-103090357D01*
X225300991Y-103100011D01*
X225325552Y-103100011D01*
X225350000Y-103102419D01*
X225850000Y-103102419D01*
X225874448Y-103100011D01*
X225899009Y-103100011D01*
X225997026Y-103090357D01*
X226093159Y-103071235D01*
X226187407Y-103042646D01*
X226277963Y-103005137D01*
X226364827Y-102958707D01*
X226446326Y-102904251D01*
X226522461Y-102841769D01*
X226591769Y-102772461D01*
X226630719Y-102725000D01*
X231841118Y-102725000D01*
X233700000Y-104583883D01*
X233700000Y-104688642D01*
X233734586Y-104862520D01*
X233802430Y-105026310D01*
X233900924Y-105173717D01*
X234026283Y-105299076D01*
X234139912Y-105375000D01*
X221258883Y-105375000D01*
X219815053Y-103931171D01*
X219927915Y-103793649D01*
X220053272Y-103559122D01*
X220130467Y-103304646D01*
X220156532Y-103040000D01*
X220130467Y-102775354D01*
X220053272Y-102520878D01*
X219927915Y-102286351D01*
X219759213Y-102080787D01*
X219553649Y-101912085D01*
X219319122Y-101786728D01*
X219064646Y-101709533D01*
X218866321Y-101690000D01*
X218733679Y-101690000D01*
X218535354Y-101709533D01*
X218280878Y-101786728D01*
X218046351Y-101912085D01*
X217840787Y-102080787D01*
X217672085Y-102286351D01*
X217546728Y-102520878D01*
X217518573Y-102613693D01*
X217425000Y-102520120D01*
X217425000Y-102447793D01*
X217499076Y-102373717D01*
X217597570Y-102226310D01*
X217665414Y-102062520D01*
X217700000Y-101888642D01*
X217700000Y-101711358D01*
X217665414Y-101537480D01*
X217597570Y-101373690D01*
X217581741Y-101350000D01*
X217648548Y-101350000D01*
X217654340Y-101408810D01*
X217671495Y-101465361D01*
X217699352Y-101517478D01*
X217736841Y-101563159D01*
X217782522Y-101600648D01*
X217834639Y-101628505D01*
X217891190Y-101645660D01*
X217950000Y-101651452D01*
X218700000Y-101650000D01*
X218775000Y-101575000D01*
X218775000Y-100525000D01*
X218825000Y-100525000D01*
X218825000Y-101575000D01*
X218900000Y-101650000D01*
X219650000Y-101651452D01*
X219708810Y-101645660D01*
X219765361Y-101628505D01*
X219817478Y-101600648D01*
X219863159Y-101563159D01*
X219900648Y-101517478D01*
X219928505Y-101465361D01*
X219945660Y-101408810D01*
X219951452Y-101350000D01*
X219950000Y-100600000D01*
X219875000Y-100525000D01*
X218825000Y-100525000D01*
X218775000Y-100525000D01*
X217725000Y-100525000D01*
X217650000Y-100600000D01*
X217648548Y-101350000D01*
X217581741Y-101350000D01*
X217499076Y-101226283D01*
X217373717Y-101100924D01*
X217226310Y-101002430D01*
X217062520Y-100934586D01*
X216888642Y-100900000D01*
X216711358Y-100900000D01*
X216537480Y-100934586D01*
X216373690Y-101002430D01*
X216226283Y-101100924D01*
X216100924Y-101226283D01*
X216002430Y-101373690D01*
X215934586Y-101537480D01*
X215900000Y-101711358D01*
X215900000Y-101888642D01*
X215934586Y-102062520D01*
X216002430Y-102226310D01*
X216100924Y-102373717D01*
X216175000Y-102447793D01*
X216175000Y-102748308D01*
X216171977Y-102779002D01*
X216175000Y-102809696D01*
X216175000Y-102809705D01*
X216184043Y-102901522D01*
X216219781Y-103019335D01*
X216277817Y-103127912D01*
X216355920Y-103223082D01*
X216379776Y-103242660D01*
X217772345Y-104635230D01*
X217791919Y-104659081D01*
X217802341Y-104667634D01*
X217672085Y-104826351D01*
X217546728Y-105060878D01*
X217469533Y-105315354D01*
X217443468Y-105580000D01*
X217469533Y-105844646D01*
X217546728Y-106099122D01*
X217672085Y-106333649D01*
X217840787Y-106539213D01*
X218046351Y-106707915D01*
X218280878Y-106833272D01*
X218336022Y-106850000D01*
X218280878Y-106866728D01*
X218046351Y-106992085D01*
X217840787Y-107160787D01*
X217672085Y-107366351D01*
X217546728Y-107600878D01*
X217469533Y-107855354D01*
X217443468Y-108120000D01*
X217469533Y-108384646D01*
X217546728Y-108639122D01*
X217659444Y-108850000D01*
X217628695Y-108850000D01*
X217598001Y-108846977D01*
X217567307Y-108850000D01*
X217567298Y-108850000D01*
X217475481Y-108859043D01*
X217357668Y-108894781D01*
X217249091Y-108952817D01*
X217228239Y-108969929D01*
X217199076Y-108926283D01*
X217073717Y-108800924D01*
X216926310Y-108702430D01*
X216762520Y-108634586D01*
X216588642Y-108600000D01*
X216411358Y-108600000D01*
X216237480Y-108634586D01*
X216073690Y-108702430D01*
X215926283Y-108800924D01*
X215852207Y-108875000D01*
X208242512Y-108875000D01*
X208211810Y-108871976D01*
X208181108Y-108875000D01*
X208181106Y-108875000D01*
X208089289Y-108884043D01*
X207971476Y-108919781D01*
X207920934Y-108946796D01*
X207862898Y-108977817D01*
X207791579Y-109036347D01*
X207791575Y-109036351D01*
X207767730Y-109055920D01*
X207748161Y-109079765D01*
X205552928Y-111275000D01*
X203606370Y-111275000D01*
X203778649Y-111182915D01*
X203984213Y-111014213D01*
X204152915Y-110808649D01*
X204278272Y-110574122D01*
X204355467Y-110319646D01*
X204381532Y-110055000D01*
X204355467Y-109790354D01*
X204278272Y-109535878D01*
X204152915Y-109301351D01*
X203984213Y-109095787D01*
X203778649Y-108927085D01*
X203544122Y-108801728D01*
X203488978Y-108785000D01*
X203544122Y-108768272D01*
X203778649Y-108642915D01*
X203984213Y-108474213D01*
X204152915Y-108268649D01*
X204278272Y-108034122D01*
X204355467Y-107779646D01*
X204381532Y-107515000D01*
X204355467Y-107250354D01*
X204278272Y-106995878D01*
X204152915Y-106761351D01*
X203984213Y-106555787D01*
X203778649Y-106387085D01*
X203667022Y-106327419D01*
X203875000Y-106327419D01*
X203973017Y-106317765D01*
X204067267Y-106289175D01*
X204154129Y-106242746D01*
X204230264Y-106180264D01*
X204292746Y-106104129D01*
X204339175Y-106017267D01*
X204367765Y-105923017D01*
X204377419Y-105825000D01*
X204377419Y-104425000D01*
X212552207Y-104425000D01*
X212626283Y-104499076D01*
X212773690Y-104597570D01*
X212937480Y-104665414D01*
X213111358Y-104700000D01*
X213288642Y-104700000D01*
X213462520Y-104665414D01*
X213626310Y-104597570D01*
X213773717Y-104499076D01*
X213899076Y-104373717D01*
X213997570Y-104226310D01*
X214065414Y-104062520D01*
X214100000Y-103888642D01*
X214100000Y-103711358D01*
X214065414Y-103537480D01*
X213997570Y-103373690D01*
X213899076Y-103226283D01*
X213773717Y-103100924D01*
X213626310Y-103002430D01*
X213462520Y-102934586D01*
X213288642Y-102900000D01*
X213111358Y-102900000D01*
X212937480Y-102934586D01*
X212813737Y-102985842D01*
X215899581Y-99899999D01*
X217649032Y-99899999D01*
X217650000Y-100400000D01*
G36*
X189804882Y-102877450D02*
G01*
X189793523Y-102875191D01*
X189616239Y-102875191D01*
X189442361Y-102909777D01*
X189278571Y-102977621D01*
X189230044Y-103010046D01*
X189214175Y-102957733D01*
X189167746Y-102870871D01*
X189105264Y-102794736D01*
X189050482Y-102749778D01*
X189050000Y-102700000D01*
X188975000Y-102625000D01*
X187625000Y-102625000D01*
X187625000Y-102645000D01*
X187575000Y-102645000D01*
X187575000Y-102625000D01*
X187555000Y-102625000D01*
X187555000Y-102575000D01*
X187575000Y-102575000D01*
X187575000Y-102555000D01*
X187625000Y-102555000D01*
X187625000Y-102575000D01*
X188975000Y-102575000D01*
X189050000Y-102500000D01*
X189051210Y-102375001D01*
X189549179Y-102375001D01*
X189579873Y-102378024D01*
X189610567Y-102375001D01*
X189610577Y-102375001D01*
X189702394Y-102365958D01*
X189804882Y-102334869D01*
X189804882Y-102877450D01*
X189804882Y-102877450D01*
G37*
X189804882Y-102877450D02*
X189793523Y-102875191D01*
X189616239Y-102875191D01*
X189442361Y-102909777D01*
X189278571Y-102977621D01*
X189230044Y-103010046D01*
X189214175Y-102957733D01*
X189167746Y-102870871D01*
X189105264Y-102794736D01*
X189050482Y-102749778D01*
X189050000Y-102700000D01*
X188975000Y-102625000D01*
X187625000Y-102625000D01*
X187625000Y-102645000D01*
X187575000Y-102645000D01*
X187575000Y-102625000D01*
X187555000Y-102625000D01*
X187555000Y-102575000D01*
X187575000Y-102575000D01*
X187575000Y-102555000D01*
X187625000Y-102555000D01*
X187625000Y-102575000D01*
X188975000Y-102575000D01*
X189050000Y-102500000D01*
X189051210Y-102375001D01*
X189549179Y-102375001D01*
X189579873Y-102378024D01*
X189610567Y-102375001D01*
X189610577Y-102375001D01*
X189702394Y-102365958D01*
X189804882Y-102334869D01*
X189804882Y-102877450D01*
G36*
X189354873Y-99111759D02*
G01*
X189354872Y-101091120D01*
X189320991Y-101125001D01*
X187822877Y-101125001D01*
X187815414Y-101087482D01*
X187799941Y-101050126D01*
X188850000Y-101051452D01*
X188908810Y-101045660D01*
X188965361Y-101028505D01*
X189017478Y-101000648D01*
X189063159Y-100963159D01*
X189100648Y-100917478D01*
X189128505Y-100865361D01*
X189145660Y-100808810D01*
X189151452Y-100750000D01*
X189150000Y-99850000D01*
X189075000Y-99775000D01*
X187625000Y-99775000D01*
X187625000Y-99795000D01*
X187575000Y-99795000D01*
X187575000Y-99775000D01*
X187555000Y-99775000D01*
X187555000Y-99725000D01*
X187575000Y-99725000D01*
X187575000Y-99705000D01*
X187625000Y-99705000D01*
X187625000Y-99725000D01*
X189075000Y-99725000D01*
X189150000Y-99650000D01*
X189151197Y-98908083D01*
X189354873Y-99111759D01*
X189354873Y-99111759D01*
G37*
X189354873Y-99111759D02*
X189354872Y-101091120D01*
X189320991Y-101125001D01*
X187822877Y-101125001D01*
X187815414Y-101087482D01*
X187799941Y-101050126D01*
X188850000Y-101051452D01*
X188908810Y-101045660D01*
X188965361Y-101028505D01*
X189017478Y-101000648D01*
X189063159Y-100963159D01*
X189100648Y-100917478D01*
X189128505Y-100865361D01*
X189145660Y-100808810D01*
X189151452Y-100750000D01*
X189150000Y-99850000D01*
X189075000Y-99775000D01*
X187625000Y-99775000D01*
X187625000Y-99795000D01*
X187575000Y-99795000D01*
X187575000Y-99775000D01*
X187555000Y-99775000D01*
X187555000Y-99725000D01*
X187575000Y-99725000D01*
X187575000Y-99705000D01*
X187625000Y-99705000D01*
X187625000Y-99725000D01*
X189075000Y-99725000D01*
X189150000Y-99650000D01*
X189151197Y-98908083D01*
X189354873Y-99111759D01*
G36*
X188691863Y-98448748D02*
G01*
X188098668Y-98449497D01*
X188147570Y-98376310D01*
X188215414Y-98212520D01*
X188250000Y-98038642D01*
X188250000Y-98006885D01*
X188691863Y-98448748D01*
X188691863Y-98448748D01*
G37*
X188691863Y-98448748D02*
X188098668Y-98449497D01*
X188147570Y-98376310D01*
X188215414Y-98212520D01*
X188250000Y-98038642D01*
X188250000Y-98006885D01*
X188691863Y-98448748D01*
M02*
