G04 #@! TF.GenerationSoftware,KiCad,Pcbnew,(5.1.4)-1*
G04 #@! TF.CreationDate,2020-09-16T20:01:53+02:00*
G04 #@! TF.ProjectId,RPM,52504d2e-6b69-4636-9164-5f7063625858,rev?*
G04 #@! TF.SameCoordinates,Original*
G04 #@! TF.FileFunction,Legend,Bot*
G04 #@! TF.FilePolarity,Positive*
%FSLAX46Y46*%
G04 Gerber Fmt 4.6, Leading zero omitted, Abs format (unit mm)*
G04 Created by KiCad (PCBNEW (5.1.4)-1) date 2020-09-16 20:01:53*
%MOMM*%
%LPD*%
G04 APERTURE LIST*
%ADD10C,0.150000*%
%ADD11C,0.225000*%
%ADD12C,0.010000*%
%ADD13C,0.120000*%
G04 APERTURE END LIST*
D10*
X247609523Y-115133333D02*
X247657142Y-115085714D01*
X247752380Y-114942857D01*
X247800000Y-114847619D01*
X247847619Y-114704761D01*
X247895238Y-114466666D01*
X247895238Y-114276190D01*
X247847619Y-114038095D01*
X247800000Y-113895238D01*
X247752380Y-113800000D01*
X247657142Y-113657142D01*
X247609523Y-113609523D01*
X246800000Y-114704761D02*
X246895238Y-114752380D01*
X247085714Y-114752380D01*
X247180952Y-114704761D01*
X247228571Y-114657142D01*
X247276190Y-114561904D01*
X247276190Y-114276190D01*
X247228571Y-114180952D01*
X247180952Y-114133333D01*
X247085714Y-114085714D01*
X246895238Y-114085714D01*
X246800000Y-114133333D01*
X246466666Y-115133333D02*
X246419047Y-115085714D01*
X246323809Y-114942857D01*
X246276190Y-114847619D01*
X246228571Y-114704761D01*
X246180952Y-114466666D01*
X246180952Y-114276190D01*
X246228571Y-114038095D01*
X246276190Y-113895238D01*
X246323809Y-113800000D01*
X246419047Y-113657142D01*
X246466666Y-113609523D01*
X244990476Y-113847619D02*
X244942857Y-113800000D01*
X244847619Y-113752380D01*
X244609523Y-113752380D01*
X244514285Y-113800000D01*
X244466666Y-113847619D01*
X244419047Y-113942857D01*
X244419047Y-114038095D01*
X244466666Y-114180952D01*
X245038095Y-114752380D01*
X244419047Y-114752380D01*
X243800000Y-113752380D02*
X243704761Y-113752380D01*
X243609523Y-113800000D01*
X243561904Y-113847619D01*
X243514285Y-113942857D01*
X243466666Y-114133333D01*
X243466666Y-114371428D01*
X243514285Y-114561904D01*
X243561904Y-114657142D01*
X243609523Y-114704761D01*
X243704761Y-114752380D01*
X243800000Y-114752380D01*
X243895238Y-114704761D01*
X243942857Y-114657142D01*
X243990476Y-114561904D01*
X244038095Y-114371428D01*
X244038095Y-114133333D01*
X243990476Y-113942857D01*
X243942857Y-113847619D01*
X243895238Y-113800000D01*
X243800000Y-113752380D01*
X243085714Y-113847619D02*
X243038095Y-113800000D01*
X242942857Y-113752380D01*
X242704761Y-113752380D01*
X242609523Y-113800000D01*
X242561904Y-113847619D01*
X242514285Y-113942857D01*
X242514285Y-114038095D01*
X242561904Y-114180952D01*
X243133333Y-114752380D01*
X242514285Y-114752380D01*
X241895238Y-113752380D02*
X241800000Y-113752380D01*
X241704761Y-113800000D01*
X241657142Y-113847619D01*
X241609523Y-113942857D01*
X241561904Y-114133333D01*
X241561904Y-114371428D01*
X241609523Y-114561904D01*
X241657142Y-114657142D01*
X241704761Y-114704761D01*
X241800000Y-114752380D01*
X241895238Y-114752380D01*
X241990476Y-114704761D01*
X242038095Y-114657142D01*
X242085714Y-114561904D01*
X242133333Y-114371428D01*
X242133333Y-114133333D01*
X242085714Y-113942857D01*
X242038095Y-113847619D01*
X241990476Y-113800000D01*
X241895238Y-113752380D01*
X240371428Y-114752380D02*
X240371428Y-113752380D01*
X240038095Y-114466666D01*
X239704761Y-113752380D01*
X239704761Y-114752380D01*
X239228571Y-114752380D02*
X239228571Y-114085714D01*
X239228571Y-113752380D02*
X239276190Y-113800000D01*
X239228571Y-113847619D01*
X239180952Y-113800000D01*
X239228571Y-113752380D01*
X239228571Y-113847619D01*
X238323809Y-114752380D02*
X238323809Y-113752380D01*
X238323809Y-114704761D02*
X238419047Y-114752380D01*
X238609523Y-114752380D01*
X238704761Y-114704761D01*
X238752380Y-114657142D01*
X238800000Y-114561904D01*
X238800000Y-114276190D01*
X238752380Y-114180952D01*
X238704761Y-114133333D01*
X238609523Y-114085714D01*
X238419047Y-114085714D01*
X238323809Y-114133333D01*
X237419047Y-114752380D02*
X237419047Y-114228571D01*
X237466666Y-114133333D01*
X237561904Y-114085714D01*
X237752380Y-114085714D01*
X237847619Y-114133333D01*
X237419047Y-114704761D02*
X237514285Y-114752380D01*
X237752380Y-114752380D01*
X237847619Y-114704761D01*
X237895238Y-114609523D01*
X237895238Y-114514285D01*
X237847619Y-114419047D01*
X237752380Y-114371428D01*
X237514285Y-114371428D01*
X237419047Y-114323809D01*
X236990476Y-114704761D02*
X236895238Y-114752380D01*
X236704761Y-114752380D01*
X236609523Y-114704761D01*
X236561904Y-114609523D01*
X236561904Y-114561904D01*
X236609523Y-114466666D01*
X236704761Y-114419047D01*
X236847619Y-114419047D01*
X236942857Y-114371428D01*
X236990476Y-114276190D01*
X236990476Y-114228571D01*
X236942857Y-114133333D01*
X236847619Y-114085714D01*
X236704761Y-114085714D01*
X236609523Y-114133333D01*
X234847619Y-113800000D02*
X234942857Y-113752380D01*
X235085714Y-113752380D01*
X235228571Y-113800000D01*
X235323809Y-113895238D01*
X235371428Y-113990476D01*
X235419047Y-114180952D01*
X235419047Y-114323809D01*
X235371428Y-114514285D01*
X235323809Y-114609523D01*
X235228571Y-114704761D01*
X235085714Y-114752380D01*
X234990476Y-114752380D01*
X234847619Y-114704761D01*
X234800000Y-114657142D01*
X234800000Y-114323809D01*
X234990476Y-114323809D01*
X234228571Y-114752380D02*
X234323809Y-114704761D01*
X234371428Y-114657142D01*
X234419047Y-114561904D01*
X234419047Y-114276190D01*
X234371428Y-114180952D01*
X234323809Y-114133333D01*
X234228571Y-114085714D01*
X234085714Y-114085714D01*
X233990476Y-114133333D01*
X233942857Y-114180952D01*
X233895238Y-114276190D01*
X233895238Y-114561904D01*
X233942857Y-114657142D01*
X233990476Y-114704761D01*
X234085714Y-114752380D01*
X234228571Y-114752380D01*
X233514285Y-114704761D02*
X233419047Y-114752380D01*
X233228571Y-114752380D01*
X233133333Y-114704761D01*
X233085714Y-114609523D01*
X233085714Y-114561904D01*
X233133333Y-114466666D01*
X233228571Y-114419047D01*
X233371428Y-114419047D01*
X233466666Y-114371428D01*
X233514285Y-114276190D01*
X233514285Y-114228571D01*
X233466666Y-114133333D01*
X233371428Y-114085714D01*
X233228571Y-114085714D01*
X233133333Y-114133333D01*
X232704761Y-114704761D02*
X232609523Y-114752380D01*
X232419047Y-114752380D01*
X232323809Y-114704761D01*
X232276190Y-114609523D01*
X232276190Y-114561904D01*
X232323809Y-114466666D01*
X232419047Y-114419047D01*
X232561904Y-114419047D01*
X232657142Y-114371428D01*
X232704761Y-114276190D01*
X232704761Y-114228571D01*
X232657142Y-114133333D01*
X232561904Y-114085714D01*
X232419047Y-114085714D01*
X232323809Y-114133333D01*
X231942857Y-114085714D02*
X231704761Y-114752380D01*
X231466666Y-114085714D02*
X231704761Y-114752380D01*
X231800000Y-114990476D01*
X231847619Y-115038095D01*
X231942857Y-115085714D01*
X230704761Y-114704761D02*
X230800000Y-114752380D01*
X230990476Y-114752380D01*
X231085714Y-114704761D01*
X231133333Y-114609523D01*
X231133333Y-114228571D01*
X231085714Y-114133333D01*
X230990476Y-114085714D01*
X230800000Y-114085714D01*
X230704761Y-114133333D01*
X230657142Y-114228571D01*
X230657142Y-114323809D01*
X231133333Y-114419047D01*
X228271428Y-99504761D02*
X228128571Y-99552380D01*
X227890476Y-99552380D01*
X227795238Y-99504761D01*
X227747619Y-99457142D01*
X227700000Y-99361904D01*
X227700000Y-99266666D01*
X227747619Y-99171428D01*
X227795238Y-99123809D01*
X227890476Y-99076190D01*
X228080952Y-99028571D01*
X228176190Y-98980952D01*
X228223809Y-98933333D01*
X228271428Y-98838095D01*
X228271428Y-98742857D01*
X228223809Y-98647619D01*
X228176190Y-98600000D01*
X228080952Y-98552380D01*
X227842857Y-98552380D01*
X227700000Y-98600000D01*
X226890476Y-99504761D02*
X226985714Y-99552380D01*
X227176190Y-99552380D01*
X227271428Y-99504761D01*
X227319047Y-99409523D01*
X227319047Y-99028571D01*
X227271428Y-98933333D01*
X227176190Y-98885714D01*
X226985714Y-98885714D01*
X226890476Y-98933333D01*
X226842857Y-99028571D01*
X226842857Y-99123809D01*
X227319047Y-99219047D01*
X226414285Y-98885714D02*
X226414285Y-99552380D01*
X226414285Y-98980952D02*
X226366666Y-98933333D01*
X226271428Y-98885714D01*
X226128571Y-98885714D01*
X226033333Y-98933333D01*
X225985714Y-99028571D01*
X225985714Y-99552380D01*
X225557142Y-99504761D02*
X225461904Y-99552380D01*
X225271428Y-99552380D01*
X225176190Y-99504761D01*
X225128571Y-99409523D01*
X225128571Y-99361904D01*
X225176190Y-99266666D01*
X225271428Y-99219047D01*
X225414285Y-99219047D01*
X225509523Y-99171428D01*
X225557142Y-99076190D01*
X225557142Y-99028571D01*
X225509523Y-98933333D01*
X225414285Y-98885714D01*
X225271428Y-98885714D01*
X225176190Y-98933333D01*
X223985714Y-99266666D02*
X223509523Y-99266666D01*
X224080952Y-99552380D02*
X223747619Y-98552380D01*
X223414285Y-99552380D01*
X222652380Y-99552380D02*
X222652380Y-98552380D01*
X222652380Y-99504761D02*
X222747619Y-99552380D01*
X222938095Y-99552380D01*
X223033333Y-99504761D01*
X223080952Y-99457142D01*
X223128571Y-99361904D01*
X223128571Y-99076190D01*
X223080952Y-98980952D01*
X223033333Y-98933333D01*
X222938095Y-98885714D01*
X222747619Y-98885714D01*
X222652380Y-98933333D01*
X222176190Y-98885714D02*
X222176190Y-99742857D01*
X222223809Y-99838095D01*
X222319047Y-99885714D01*
X222366666Y-99885714D01*
X222176190Y-98552380D02*
X222223809Y-98600000D01*
X222176190Y-98647619D01*
X222128571Y-98600000D01*
X222176190Y-98552380D01*
X222176190Y-98647619D01*
X238571428Y-97966666D02*
X238095238Y-97966666D01*
X238666666Y-98252380D02*
X238333333Y-97252380D01*
X237999999Y-98252380D01*
X237238095Y-97585714D02*
X237238095Y-98252380D01*
X237666666Y-97585714D02*
X237666666Y-98109523D01*
X237619047Y-98204761D01*
X237523809Y-98252380D01*
X237380952Y-98252380D01*
X237285714Y-98204761D01*
X237238095Y-98157142D01*
X236904761Y-97585714D02*
X236523809Y-97585714D01*
X236761904Y-97252380D02*
X236761904Y-98109523D01*
X236714285Y-98204761D01*
X236619047Y-98252380D01*
X236523809Y-98252380D01*
X236047619Y-98252380D02*
X236142857Y-98204761D01*
X236190476Y-98157142D01*
X236238095Y-98061904D01*
X236238095Y-97776190D01*
X236190476Y-97680952D01*
X236142857Y-97633333D01*
X236047619Y-97585714D01*
X235904761Y-97585714D01*
X235809523Y-97633333D01*
X235761904Y-97680952D01*
X235714285Y-97776190D01*
X235714285Y-98061904D01*
X235761904Y-98157142D01*
X235809523Y-98204761D01*
X235904761Y-98252380D01*
X236047619Y-98252380D01*
X234571428Y-98204761D02*
X234428571Y-98252380D01*
X234190476Y-98252380D01*
X234095238Y-98204761D01*
X234047619Y-98157142D01*
X233999999Y-98061904D01*
X233999999Y-97966666D01*
X234047619Y-97871428D01*
X234095238Y-97823809D01*
X234190476Y-97776190D01*
X234380952Y-97728571D01*
X234476190Y-97680952D01*
X234523809Y-97633333D01*
X234571428Y-97538095D01*
X234571428Y-97442857D01*
X234523809Y-97347619D01*
X234476190Y-97300000D01*
X234380952Y-97252380D01*
X234142857Y-97252380D01*
X233999999Y-97300000D01*
X233190476Y-98204761D02*
X233285714Y-98252380D01*
X233476190Y-98252380D01*
X233571428Y-98204761D01*
X233619047Y-98109523D01*
X233619047Y-97728571D01*
X233571428Y-97633333D01*
X233476190Y-97585714D01*
X233285714Y-97585714D01*
X233190476Y-97633333D01*
X233142857Y-97728571D01*
X233142857Y-97823809D01*
X233619047Y-97919047D01*
X232714285Y-97585714D02*
X232714285Y-98252380D01*
X232714285Y-97680952D02*
X232666666Y-97633333D01*
X232571428Y-97585714D01*
X232428571Y-97585714D01*
X232333333Y-97633333D01*
X232285714Y-97728571D01*
X232285714Y-98252380D01*
X231857142Y-98204761D02*
X231761904Y-98252380D01*
X231571428Y-98252380D01*
X231476190Y-98204761D01*
X231428571Y-98109523D01*
X231428571Y-98061904D01*
X231476190Y-97966666D01*
X231571428Y-97919047D01*
X231714285Y-97919047D01*
X231809523Y-97871428D01*
X231857142Y-97776190D01*
X231857142Y-97728571D01*
X231809523Y-97633333D01*
X231714285Y-97585714D01*
X231571428Y-97585714D01*
X231476190Y-97633333D01*
X229023809Y-109952380D02*
X228833333Y-109952380D01*
X228738095Y-110000000D01*
X228642857Y-110095238D01*
X228595238Y-110285714D01*
X228595238Y-110619047D01*
X228642857Y-110809523D01*
X228738095Y-110904761D01*
X228833333Y-110952380D01*
X229023809Y-110952380D01*
X229119047Y-110904761D01*
X229214285Y-110809523D01*
X229261904Y-110619047D01*
X229261904Y-110285714D01*
X229214285Y-110095238D01*
X229119047Y-110000000D01*
X229023809Y-109952380D01*
X227833333Y-110428571D02*
X228166666Y-110428571D01*
X228166666Y-110952380D02*
X228166666Y-109952380D01*
X227690476Y-109952380D01*
X226976190Y-110428571D02*
X227309523Y-110428571D01*
X227309523Y-110952380D02*
X227309523Y-109952380D01*
X226833333Y-109952380D01*
X225738095Y-109904761D02*
X226595238Y-111190476D01*
X225214285Y-109952380D02*
X225023809Y-109952380D01*
X224928571Y-110000000D01*
X224833333Y-110095238D01*
X224785714Y-110285714D01*
X224785714Y-110619047D01*
X224833333Y-110809523D01*
X224928571Y-110904761D01*
X225023809Y-110952380D01*
X225214285Y-110952380D01*
X225309523Y-110904761D01*
X225404761Y-110809523D01*
X225452380Y-110619047D01*
X225452380Y-110285714D01*
X225404761Y-110095238D01*
X225309523Y-110000000D01*
X225214285Y-109952380D01*
X224357142Y-110952380D02*
X224357142Y-109952380D01*
X223785714Y-110952380D01*
X223785714Y-109952380D01*
D11*
X220442857Y-94878571D02*
X220942857Y-94164285D01*
X221300000Y-94878571D02*
X221300000Y-93378571D01*
X220728571Y-93378571D01*
X220585714Y-93450000D01*
X220514285Y-93521428D01*
X220442857Y-93664285D01*
X220442857Y-93878571D01*
X220514285Y-94021428D01*
X220585714Y-94092857D01*
X220728571Y-94164285D01*
X221300000Y-94164285D01*
X219800000Y-94878571D02*
X219800000Y-93378571D01*
X219228571Y-93378571D01*
X219085714Y-93450000D01*
X219014285Y-93521428D01*
X218942857Y-93664285D01*
X218942857Y-93878571D01*
X219014285Y-94021428D01*
X219085714Y-94092857D01*
X219228571Y-94164285D01*
X219800000Y-94164285D01*
X218300000Y-94878571D02*
X218300000Y-93378571D01*
X217800000Y-94450000D01*
X217300000Y-93378571D01*
X217300000Y-94878571D01*
X215514285Y-94807142D02*
X215371428Y-94878571D01*
X215085714Y-94878571D01*
X214942857Y-94807142D01*
X214871428Y-94664285D01*
X214871428Y-94592857D01*
X214942857Y-94450000D01*
X215085714Y-94378571D01*
X215300000Y-94378571D01*
X215442857Y-94307142D01*
X215514285Y-94164285D01*
X215514285Y-94092857D01*
X215442857Y-93950000D01*
X215300000Y-93878571D01*
X215085714Y-93878571D01*
X214942857Y-93950000D01*
X213657142Y-94807142D02*
X213800000Y-94878571D01*
X214085714Y-94878571D01*
X214228571Y-94807142D01*
X214300000Y-94664285D01*
X214300000Y-94092857D01*
X214228571Y-93950000D01*
X214085714Y-93878571D01*
X213800000Y-93878571D01*
X213657142Y-93950000D01*
X213585714Y-94092857D01*
X213585714Y-94235714D01*
X214300000Y-94378571D01*
X212942857Y-93878571D02*
X212942857Y-94878571D01*
X212942857Y-94021428D02*
X212871428Y-93950000D01*
X212728571Y-93878571D01*
X212514285Y-93878571D01*
X212371428Y-93950000D01*
X212300000Y-94092857D01*
X212300000Y-94878571D01*
X211657142Y-94807142D02*
X211514285Y-94878571D01*
X211228571Y-94878571D01*
X211085714Y-94807142D01*
X211014285Y-94664285D01*
X211014285Y-94592857D01*
X211085714Y-94450000D01*
X211228571Y-94378571D01*
X211442857Y-94378571D01*
X211585714Y-94307142D01*
X211657142Y-94164285D01*
X211657142Y-94092857D01*
X211585714Y-93950000D01*
X211442857Y-93878571D01*
X211228571Y-93878571D01*
X211085714Y-93950000D01*
X210157142Y-94878571D02*
X210300000Y-94807142D01*
X210371428Y-94735714D01*
X210442857Y-94592857D01*
X210442857Y-94164285D01*
X210371428Y-94021428D01*
X210300000Y-93950000D01*
X210157142Y-93878571D01*
X209942857Y-93878571D01*
X209800000Y-93950000D01*
X209728571Y-94021428D01*
X209657142Y-94164285D01*
X209657142Y-94592857D01*
X209728571Y-94735714D01*
X209800000Y-94807142D01*
X209942857Y-94878571D01*
X210157142Y-94878571D01*
X209014285Y-94878571D02*
X209014285Y-93878571D01*
X209014285Y-94164285D02*
X208942857Y-94021428D01*
X208871428Y-93950000D01*
X208728571Y-93878571D01*
X208585714Y-93878571D01*
X206942857Y-94878571D02*
X206942857Y-93378571D01*
X206942857Y-93950000D02*
X206800000Y-93878571D01*
X206514285Y-93878571D01*
X206371428Y-93950000D01*
X206300000Y-94021428D01*
X206228571Y-94164285D01*
X206228571Y-94592857D01*
X206300000Y-94735714D01*
X206371428Y-94807142D01*
X206514285Y-94878571D01*
X206800000Y-94878571D01*
X206942857Y-94807142D01*
X205371428Y-94878571D02*
X205514285Y-94807142D01*
X205585714Y-94735714D01*
X205657142Y-94592857D01*
X205657142Y-94164285D01*
X205585714Y-94021428D01*
X205514285Y-93950000D01*
X205371428Y-93878571D01*
X205157142Y-93878571D01*
X205014285Y-93950000D01*
X204942857Y-94021428D01*
X204871428Y-94164285D01*
X204871428Y-94592857D01*
X204942857Y-94735714D01*
X205014285Y-94807142D01*
X205157142Y-94878571D01*
X205371428Y-94878571D01*
X203585714Y-94878571D02*
X203585714Y-94092857D01*
X203657142Y-93950000D01*
X203800000Y-93878571D01*
X204085714Y-93878571D01*
X204228571Y-93950000D01*
X203585714Y-94807142D02*
X203728571Y-94878571D01*
X204085714Y-94878571D01*
X204228571Y-94807142D01*
X204300000Y-94664285D01*
X204300000Y-94521428D01*
X204228571Y-94378571D01*
X204085714Y-94307142D01*
X203728571Y-94307142D01*
X203585714Y-94235714D01*
X202871428Y-94878571D02*
X202871428Y-93878571D01*
X202871428Y-94164285D02*
X202800000Y-94021428D01*
X202728571Y-93950000D01*
X202585714Y-93878571D01*
X202442857Y-93878571D01*
X201300000Y-94878571D02*
X201300000Y-93378571D01*
X201300000Y-94807142D02*
X201442857Y-94878571D01*
X201728571Y-94878571D01*
X201871428Y-94807142D01*
X201942857Y-94735714D01*
X202014285Y-94592857D01*
X202014285Y-94164285D01*
X201942857Y-94021428D01*
X201871428Y-93950000D01*
X201728571Y-93878571D01*
X201442857Y-93878571D01*
X201300000Y-93950000D01*
D10*
X206547619Y-110552380D02*
X206880952Y-110076190D01*
X207119047Y-110552380D02*
X207119047Y-109552380D01*
X206738095Y-109552380D01*
X206642857Y-109600000D01*
X206595238Y-109647619D01*
X206547619Y-109742857D01*
X206547619Y-109885714D01*
X206595238Y-109980952D01*
X206642857Y-110028571D01*
X206738095Y-110076190D01*
X207119047Y-110076190D01*
X206166666Y-110504761D02*
X206023809Y-110552380D01*
X205785714Y-110552380D01*
X205690476Y-110504761D01*
X205642857Y-110457142D01*
X205595238Y-110361904D01*
X205595238Y-110266666D01*
X205642857Y-110171428D01*
X205690476Y-110123809D01*
X205785714Y-110076190D01*
X205976190Y-110028571D01*
X206071428Y-109980952D01*
X206119047Y-109933333D01*
X206166666Y-109838095D01*
X206166666Y-109742857D01*
X206119047Y-109647619D01*
X206071428Y-109600000D01*
X205976190Y-109552380D01*
X205738095Y-109552380D01*
X205595238Y-109600000D01*
X205309523Y-109552380D02*
X204738095Y-109552380D01*
X205023809Y-110552380D02*
X205023809Y-109552380D01*
X198771428Y-107852380D02*
X198771428Y-106852380D01*
X198438095Y-107566666D01*
X198104761Y-106852380D01*
X198104761Y-107852380D01*
X197438095Y-106852380D02*
X197247619Y-106852380D01*
X197152380Y-106900000D01*
X197057142Y-106995238D01*
X197009523Y-107185714D01*
X197009523Y-107519047D01*
X197057142Y-107709523D01*
X197152380Y-107804761D01*
X197247619Y-107852380D01*
X197438095Y-107852380D01*
X197533333Y-107804761D01*
X197628571Y-107709523D01*
X197676190Y-107519047D01*
X197676190Y-107185714D01*
X197628571Y-106995238D01*
X197533333Y-106900000D01*
X197438095Y-106852380D01*
X196628571Y-107804761D02*
X196485714Y-107852380D01*
X196247619Y-107852380D01*
X196152380Y-107804761D01*
X196104761Y-107757142D01*
X196057142Y-107661904D01*
X196057142Y-107566666D01*
X196104761Y-107471428D01*
X196152380Y-107423809D01*
X196247619Y-107376190D01*
X196438095Y-107328571D01*
X196533333Y-107280952D01*
X196580952Y-107233333D01*
X196628571Y-107138095D01*
X196628571Y-107042857D01*
X196580952Y-106947619D01*
X196533333Y-106900000D01*
X196438095Y-106852380D01*
X196200000Y-106852380D01*
X196057142Y-106900000D01*
X195628571Y-107852380D02*
X195628571Y-106852380D01*
X198685714Y-104871428D02*
X197923809Y-104871428D01*
X198304761Y-105252380D02*
X198304761Y-104490476D01*
X196971428Y-104252380D02*
X197447619Y-104252380D01*
X197495238Y-104728571D01*
X197447619Y-104680952D01*
X197352380Y-104633333D01*
X197114285Y-104633333D01*
X197019047Y-104680952D01*
X196971428Y-104728571D01*
X196923809Y-104823809D01*
X196923809Y-105061904D01*
X196971428Y-105157142D01*
X197019047Y-105204761D01*
X197114285Y-105252380D01*
X197352380Y-105252380D01*
X197447619Y-105204761D01*
X197495238Y-105157142D01*
X196638095Y-104252380D02*
X196304761Y-105252380D01*
X195971428Y-104252380D01*
X207285714Y-107904761D02*
X207142857Y-107952380D01*
X206904761Y-107952380D01*
X206809523Y-107904761D01*
X206761904Y-107857142D01*
X206714285Y-107761904D01*
X206714285Y-107666666D01*
X206761904Y-107571428D01*
X206809523Y-107523809D01*
X206904761Y-107476190D01*
X207095238Y-107428571D01*
X207190476Y-107380952D01*
X207238095Y-107333333D01*
X207285714Y-107238095D01*
X207285714Y-107142857D01*
X207238095Y-107047619D01*
X207190476Y-107000000D01*
X207095238Y-106952380D01*
X206857142Y-106952380D01*
X206714285Y-107000000D01*
X205714285Y-107857142D02*
X205761904Y-107904761D01*
X205904761Y-107952380D01*
X206000000Y-107952380D01*
X206142857Y-107904761D01*
X206238095Y-107809523D01*
X206285714Y-107714285D01*
X206333333Y-107523809D01*
X206333333Y-107380952D01*
X206285714Y-107190476D01*
X206238095Y-107095238D01*
X206142857Y-107000000D01*
X206000000Y-106952380D01*
X205904761Y-106952380D01*
X205761904Y-107000000D01*
X205714285Y-107047619D01*
X205285714Y-107952380D02*
X205285714Y-106952380D01*
X204714285Y-107952380D02*
X205142857Y-107380952D01*
X204714285Y-106952380D02*
X205285714Y-107523809D01*
X207871428Y-105452380D02*
X207871428Y-104452380D01*
X207538095Y-105166666D01*
X207204761Y-104452380D01*
X207204761Y-105452380D01*
X206728571Y-105452380D02*
X206728571Y-104452380D01*
X206300000Y-105404761D02*
X206157142Y-105452380D01*
X205919047Y-105452380D01*
X205823809Y-105404761D01*
X205776190Y-105357142D01*
X205728571Y-105261904D01*
X205728571Y-105166666D01*
X205776190Y-105071428D01*
X205823809Y-105023809D01*
X205919047Y-104976190D01*
X206109523Y-104928571D01*
X206204761Y-104880952D01*
X206252380Y-104833333D01*
X206300000Y-104738095D01*
X206300000Y-104642857D01*
X206252380Y-104547619D01*
X206204761Y-104500000D01*
X206109523Y-104452380D01*
X205871428Y-104452380D01*
X205728571Y-104500000D01*
X205109523Y-104452380D02*
X204919047Y-104452380D01*
X204823809Y-104500000D01*
X204728571Y-104595238D01*
X204680952Y-104785714D01*
X204680952Y-105119047D01*
X204728571Y-105309523D01*
X204823809Y-105404761D01*
X204919047Y-105452380D01*
X205109523Y-105452380D01*
X205204761Y-105404761D01*
X205300000Y-105309523D01*
X205347619Y-105119047D01*
X205347619Y-104785714D01*
X205300000Y-104595238D01*
X205204761Y-104500000D01*
X205109523Y-104452380D01*
D12*
G36*
X197390780Y-110184100D02*
G01*
X196199520Y-110184100D01*
X196199520Y-110400000D01*
X198800480Y-110400000D01*
X198800480Y-110184100D01*
X197609220Y-110184100D01*
X197609220Y-109424640D01*
X197390780Y-109424640D01*
X197390780Y-110184100D01*
X197390780Y-110184100D01*
G37*
X197390780Y-110184100D02*
X196199520Y-110184100D01*
X196199520Y-110400000D01*
X198800480Y-110400000D01*
X198800480Y-110184100D01*
X197609220Y-110184100D01*
X197609220Y-109424640D01*
X197390780Y-109424640D01*
X197390780Y-110184100D01*
G36*
X196633860Y-110834340D02*
G01*
X198366140Y-110834340D01*
X198366140Y-110615900D01*
X196633860Y-110615900D01*
X196633860Y-110834340D01*
X196633860Y-110834340D01*
G37*
X196633860Y-110834340D02*
X198366140Y-110834340D01*
X198366140Y-110615900D01*
X196633860Y-110615900D01*
X196633860Y-110834340D01*
G36*
X197065660Y-111266140D02*
G01*
X197934340Y-111266140D01*
X197934340Y-111050240D01*
X197065660Y-111050240D01*
X197065660Y-111266140D01*
X197065660Y-111266140D01*
G37*
X197065660Y-111266140D02*
X197934340Y-111266140D01*
X197934340Y-111050240D01*
X197065660Y-111050240D01*
X197065660Y-111266140D01*
D10*
X189100000Y-100450000D02*
X179850000Y-100450000D01*
X179850000Y-100450000D02*
X179850000Y-107950000D01*
X179850000Y-107950000D02*
X189100000Y-107950000D01*
X189100000Y-107950000D02*
X189100000Y-100450000D01*
D13*
X204355000Y-111385000D02*
X199155000Y-111385000D01*
X204355000Y-106245000D02*
X204355000Y-111385000D01*
X199155000Y-103645000D02*
X199155000Y-111385000D01*
X204355000Y-106245000D02*
X201755000Y-106245000D01*
X201755000Y-106245000D02*
X201755000Y-103645000D01*
X201755000Y-103645000D02*
X199155000Y-103645000D01*
X204355000Y-104975000D02*
X204355000Y-103645000D01*
X204355000Y-103645000D02*
X203025000Y-103645000D01*
X226600000Y-102150000D02*
X226600000Y-100750000D01*
X225900000Y-100050000D02*
X225300000Y-100050000D01*
X224600000Y-100750000D02*
X224600000Y-102150000D01*
X225300000Y-102850000D02*
X225900000Y-102850000D01*
X225900000Y-102850000D02*
G75*
G03X226600000Y-102150000I0J700000D01*
G01*
X224600000Y-102150000D02*
G75*
G03X225300000Y-102850000I700000J0D01*
G01*
X225300000Y-100050000D02*
G75*
G03X224600000Y-100750000I0J-700000D01*
G01*
X226600000Y-100750000D02*
G75*
G03X225900000Y-100050000I-700000J0D01*
G01*
D10*
X185033333Y-109352380D02*
X185033333Y-110066666D01*
X185080952Y-110209523D01*
X185176190Y-110304761D01*
X185319047Y-110352380D01*
X185414285Y-110352380D01*
X184033333Y-110352380D02*
X184604761Y-110352380D01*
X184319047Y-110352380D02*
X184319047Y-109352380D01*
X184414285Y-109495238D01*
X184509523Y-109590476D01*
X184604761Y-109638095D01*
X202088333Y-102097380D02*
X202088333Y-102811666D01*
X202135952Y-102954523D01*
X202231190Y-103049761D01*
X202374047Y-103097380D01*
X202469285Y-103097380D01*
X201707380Y-102097380D02*
X201088333Y-102097380D01*
X201421666Y-102478333D01*
X201278809Y-102478333D01*
X201183571Y-102525952D01*
X201135952Y-102573571D01*
X201088333Y-102668809D01*
X201088333Y-102906904D01*
X201135952Y-103002142D01*
X201183571Y-103049761D01*
X201278809Y-103097380D01*
X201564523Y-103097380D01*
X201659761Y-103049761D01*
X201707380Y-103002142D01*
X226852380Y-100616666D02*
X227566666Y-100616666D01*
X227709523Y-100569047D01*
X227804761Y-100473809D01*
X227852380Y-100330952D01*
X227852380Y-100235714D01*
X227852380Y-101092857D02*
X226852380Y-101092857D01*
X226852380Y-101473809D01*
X226900000Y-101569047D01*
X226947619Y-101616666D01*
X227042857Y-101664285D01*
X227185714Y-101664285D01*
X227280952Y-101616666D01*
X227328571Y-101569047D01*
X227376190Y-101473809D01*
X227376190Y-101092857D01*
X226947619Y-102045238D02*
X226900000Y-102092857D01*
X226852380Y-102188095D01*
X226852380Y-102426190D01*
X226900000Y-102521428D01*
X226947619Y-102569047D01*
X227042857Y-102616666D01*
X227138095Y-102616666D01*
X227280952Y-102569047D01*
X227852380Y-101997619D01*
X227852380Y-102616666D01*
M02*
