M48
; DRILL file {KiCad (5.1.4)-1} date 16/09/2020 20:02:24
; FORMAT={-:-/ absolute / inch / decimal}
; #@! TF.CreationDate,2020-09-16T20:02:24+02:00
; #@! TF.GenerationSoftware,Kicad,Pcbnew,(5.1.4)-1
; #@! TF.FileFunction,Plated,1,2,PTH
FMAT,2
INCH
T1C0.0118
T2C0.0157
T3C0.0256
T4C0.0295
T5C0.0315
T6C0.0354
T7C0.0394
%
G90
G05
T1
X7.5945Y-4.3624
X7.5945Y-4.4057
X7.5945Y-4.4569
X7.5945Y-4.5041
X7.6417Y-4.3624
X7.6417Y-4.4057
X7.6417Y-4.4569
X7.6417Y-4.5041
T2
X7.1486Y-3.7372
X7.1506Y-3.8228
X7.1772Y-4.063
X7.1772Y-4.1299
X7.3583Y-4.2165
X7.3602Y-3.9902
X7.376Y-3.8563
X7.4173Y-3.878
X7.435Y-3.8051
X7.435Y-4.4331
X7.4498Y-4.3829
X7.4528Y-4.5079
X7.4606Y-4.0394
X7.4675Y-4.127
X7.4687Y-4.0856
X7.5079Y-4.3031
X7.5778Y-4.2766
X7.5787Y-3.7283
X7.6654Y-3.8937
X7.7126Y-3.7165
X7.7126Y-3.7165
X7.7362Y-4.315
X7.811Y-4.5236
X7.8504Y-3.7116
X7.8543Y-4.4055
X7.9626Y-4.0315
X8.0945Y-4.3465
X8.2756Y-4.1732
X8.2864Y-4.0463
X8.3022Y-3.9961
X8.315Y-4.4685
X8.3425Y-4.0557
X8.3652Y-3.8159
X8.3937Y-4.0866
X8.5236Y-4.311
X8.5354Y-4.0079
X8.6063Y-4.3386
X8.6673Y-4.1949
X8.8189Y-3.937
X9.0512Y-4.3386
X9.1457Y-4.122
X9.2362Y-4.1181
X9.3888Y-4.1043
X9.4409Y-4.1732
X9.5276Y-4.2165
T3
X9.1732Y-3.7795
X9.252Y-3.7795
X9.3307Y-3.7795
X8.8445Y-4.4409
X8.9232Y-4.4409
X9.002Y-4.4409
T4
X8.1614Y-4.4173
X8.2402Y-4.4173
T5
X8.1043Y-3.7795
X8.2972Y-3.7795
X9.1811Y-3.9291
X9.1811Y-4.3291
X8.7764Y-3.7402
X8.8764Y-3.8402
X8.9764Y-3.7402
T6
X9.6457Y-3.8764
X9.6457Y-3.9764
X9.6457Y-4.2307
X9.6457Y-4.3307
T7
X8.6142Y-3.9567
X8.6142Y-4.0567
X8.6142Y-4.1567
X8.6142Y-4.2567
X7.8931Y-4.1329
X7.8931Y-4.2329
X7.8931Y-4.3329
X7.9931Y-4.1329
X7.9931Y-4.2329
X7.9931Y-4.3329
T0
M30
