G04 #@! TF.GenerationSoftware,KiCad,Pcbnew,(5.1.4)-1*
G04 #@! TF.CreationDate,2020-09-16T20:01:53+02:00*
G04 #@! TF.ProjectId,RPM,52504d2e-6b69-4636-9164-5f7063625858,rev?*
G04 #@! TF.SameCoordinates,Original*
G04 #@! TF.FileFunction,Soldermask,Bot*
G04 #@! TF.FilePolarity,Negative*
%FSLAX46Y46*%
G04 Gerber Fmt 4.6, Leading zero omitted, Abs format (unit mm)*
G04 Created by KiCad (PCBNEW (5.1.4)-1) date 2020-09-16 20:01:53*
%MOMM*%
%LPD*%
G04 APERTURE LIST*
%ADD10C,0.100000*%
G04 APERTURE END LIST*
D10*
G36*
X222607816Y-111857957D02*
G01*
X222711494Y-111889408D01*
X222796116Y-111934639D01*
X222807042Y-111940479D01*
X222828857Y-111958383D01*
X222890791Y-112009209D01*
X222941617Y-112071143D01*
X222959521Y-112092958D01*
X222959522Y-112092960D01*
X223010592Y-112188505D01*
X223042043Y-112292183D01*
X223050000Y-112372976D01*
X223050000Y-113227024D01*
X223042043Y-113307817D01*
X223010592Y-113411495D01*
X223010591Y-113411496D01*
X222959521Y-113507042D01*
X222949228Y-113519584D01*
X222890791Y-113590791D01*
X222828857Y-113641617D01*
X222807042Y-113659521D01*
X222807040Y-113659522D01*
X222711495Y-113710592D01*
X222607817Y-113742043D01*
X222500000Y-113752662D01*
X222392184Y-113742043D01*
X222288506Y-113710592D01*
X222192961Y-113659522D01*
X222192959Y-113659521D01*
X222171144Y-113641617D01*
X222109210Y-113590791D01*
X222050773Y-113519584D01*
X222040480Y-113507042D01*
X221989409Y-113411494D01*
X221957958Y-113307819D01*
X221957958Y-113307817D01*
X221957957Y-113307815D01*
X221950000Y-113227024D01*
X221950000Y-112372977D01*
X221957957Y-112292184D01*
X221989408Y-112188506D01*
X222040478Y-112092960D01*
X222040479Y-112092958D01*
X222058383Y-112071143D01*
X222109209Y-112009209D01*
X222171143Y-111958383D01*
X222192958Y-111940479D01*
X222203886Y-111934638D01*
X222288505Y-111889408D01*
X222392183Y-111857957D01*
X222500000Y-111847338D01*
X222607816Y-111857957D01*
X222607816Y-111857957D01*
G37*
G36*
X230907816Y-111857957D02*
G01*
X231011494Y-111889408D01*
X231096116Y-111934639D01*
X231107042Y-111940479D01*
X231128857Y-111958383D01*
X231190791Y-112009209D01*
X231241617Y-112071143D01*
X231259521Y-112092958D01*
X231259522Y-112092960D01*
X231310592Y-112188505D01*
X231342043Y-112292183D01*
X231350000Y-112372976D01*
X231350000Y-113227024D01*
X231342043Y-113307817D01*
X231310592Y-113411495D01*
X231310591Y-113411496D01*
X231259521Y-113507042D01*
X231249228Y-113519584D01*
X231190791Y-113590791D01*
X231128857Y-113641617D01*
X231107042Y-113659521D01*
X231107040Y-113659522D01*
X231011495Y-113710592D01*
X230907817Y-113742043D01*
X230800000Y-113752662D01*
X230692184Y-113742043D01*
X230588506Y-113710592D01*
X230492961Y-113659522D01*
X230492959Y-113659521D01*
X230471144Y-113641617D01*
X230409210Y-113590791D01*
X230350773Y-113519584D01*
X230340480Y-113507042D01*
X230289409Y-113411494D01*
X230257958Y-113307819D01*
X230257958Y-113307817D01*
X230257957Y-113307815D01*
X230250000Y-113227024D01*
X230250000Y-112372977D01*
X230257957Y-112292184D01*
X230289408Y-112188506D01*
X230340478Y-112092960D01*
X230340479Y-112092958D01*
X230358383Y-112071143D01*
X230409209Y-112009209D01*
X230471143Y-111958383D01*
X230492958Y-111940479D01*
X230503886Y-111934638D01*
X230588505Y-111889408D01*
X230692183Y-111857957D01*
X230800000Y-111847338D01*
X230907816Y-111857957D01*
X230907816Y-111857957D01*
G37*
G36*
X224808414Y-112003603D02*
G01*
X224886854Y-112019205D01*
X225034628Y-112080416D01*
X225167619Y-112169277D01*
X225280722Y-112282380D01*
X225369584Y-112415372D01*
X225430795Y-112563146D01*
X225430795Y-112563148D01*
X225462000Y-112720025D01*
X225462000Y-112879975D01*
X225450688Y-112936843D01*
X225430795Y-113036854D01*
X225369584Y-113184628D01*
X225280723Y-113317619D01*
X225167619Y-113430723D01*
X225034628Y-113519584D01*
X224886854Y-113580795D01*
X224808414Y-113596397D01*
X224729975Y-113612000D01*
X224570025Y-113612000D01*
X224491586Y-113596397D01*
X224413146Y-113580795D01*
X224265372Y-113519584D01*
X224132381Y-113430723D01*
X224019277Y-113317619D01*
X223930416Y-113184628D01*
X223869205Y-113036854D01*
X223849312Y-112936843D01*
X223838000Y-112879975D01*
X223838000Y-112720025D01*
X223869205Y-112563148D01*
X223869205Y-112563146D01*
X223930416Y-112415372D01*
X224019278Y-112282380D01*
X224132381Y-112169277D01*
X224265372Y-112080416D01*
X224413146Y-112019205D01*
X224491586Y-112003603D01*
X224570025Y-111988000D01*
X224729975Y-111988000D01*
X224808414Y-112003603D01*
X224808414Y-112003603D01*
G37*
G36*
X228808414Y-112003603D02*
G01*
X228886854Y-112019205D01*
X229034628Y-112080416D01*
X229167619Y-112169277D01*
X229280722Y-112282380D01*
X229369584Y-112415372D01*
X229430795Y-112563146D01*
X229430795Y-112563148D01*
X229462000Y-112720025D01*
X229462000Y-112879975D01*
X229450688Y-112936843D01*
X229430795Y-113036854D01*
X229369584Y-113184628D01*
X229280723Y-113317619D01*
X229167619Y-113430723D01*
X229034628Y-113519584D01*
X228886854Y-113580795D01*
X228808414Y-113596397D01*
X228729975Y-113612000D01*
X228570025Y-113612000D01*
X228491586Y-113596397D01*
X228413146Y-113580795D01*
X228265372Y-113519584D01*
X228132381Y-113430723D01*
X228019277Y-113317619D01*
X227930416Y-113184628D01*
X227869205Y-113036854D01*
X227849312Y-112936843D01*
X227838000Y-112879975D01*
X227838000Y-112720025D01*
X227869205Y-112563148D01*
X227869205Y-112563146D01*
X227930416Y-112415372D01*
X228019278Y-112282380D01*
X228132381Y-112169277D01*
X228265372Y-112080416D01*
X228413146Y-112019205D01*
X228491586Y-112003603D01*
X228570025Y-111988000D01*
X228729975Y-111988000D01*
X228808414Y-112003603D01*
X228808414Y-112003603D01*
G37*
G36*
X226808414Y-112003603D02*
G01*
X226886854Y-112019205D01*
X227034628Y-112080416D01*
X227167619Y-112169277D01*
X227280722Y-112282380D01*
X227369584Y-112415372D01*
X227430795Y-112563146D01*
X227430795Y-112563148D01*
X227462000Y-112720025D01*
X227462000Y-112879975D01*
X227450688Y-112936843D01*
X227430795Y-113036854D01*
X227369584Y-113184628D01*
X227280723Y-113317619D01*
X227167619Y-113430723D01*
X227034628Y-113519584D01*
X226886854Y-113580795D01*
X226808414Y-113596397D01*
X226729975Y-113612000D01*
X226570025Y-113612000D01*
X226491586Y-113596397D01*
X226413146Y-113580795D01*
X226265372Y-113519584D01*
X226132381Y-113430723D01*
X226019277Y-113317619D01*
X225930416Y-113184628D01*
X225869205Y-113036854D01*
X225849312Y-112936843D01*
X225838000Y-112879975D01*
X225838000Y-112720025D01*
X225869205Y-112563148D01*
X225869205Y-112563146D01*
X225930416Y-112415372D01*
X226019278Y-112282380D01*
X226132381Y-112169277D01*
X226265372Y-112080416D01*
X226413146Y-112019205D01*
X226491586Y-112003603D01*
X226570025Y-111988000D01*
X226729975Y-111988000D01*
X226808414Y-112003603D01*
X226808414Y-112003603D01*
G37*
G36*
X209427421Y-111284405D02*
G01*
X209530488Y-111315670D01*
X209549948Y-111321573D01*
X209579898Y-111337582D01*
X209662867Y-111381930D01*
X209761843Y-111463157D01*
X209843070Y-111562132D01*
X209843071Y-111562134D01*
X209903427Y-111675051D01*
X209909330Y-111694511D01*
X209940595Y-111797578D01*
X209950000Y-111893068D01*
X209950000Y-112506932D01*
X209940595Y-112602422D01*
X209909330Y-112705489D01*
X209903427Y-112724949D01*
X209849974Y-112824952D01*
X209843070Y-112837868D01*
X209761843Y-112936843D01*
X209662868Y-113018070D01*
X209662866Y-113018071D01*
X209549949Y-113078427D01*
X209530489Y-113084330D01*
X209427422Y-113115595D01*
X209300000Y-113128145D01*
X209172579Y-113115595D01*
X209069512Y-113084330D01*
X209050052Y-113078427D01*
X208937135Y-113018071D01*
X208937133Y-113018070D01*
X208838158Y-112936843D01*
X208756930Y-112837868D01*
X208696573Y-112724948D01*
X208659405Y-112602422D01*
X208650000Y-112506932D01*
X208650000Y-111893069D01*
X208659405Y-111797579D01*
X208696573Y-111675053D01*
X208696573Y-111675052D01*
X208756929Y-111562135D01*
X208756930Y-111562133D01*
X208838157Y-111463157D01*
X208937132Y-111381930D01*
X209020101Y-111337582D01*
X209050051Y-111321573D01*
X209069511Y-111315670D01*
X209172578Y-111284405D01*
X209300000Y-111271855D01*
X209427421Y-111284405D01*
X209427421Y-111284405D01*
G37*
G36*
X207778861Y-111279557D02*
G01*
X207818636Y-111291623D01*
X207855292Y-111311216D01*
X207887418Y-111337582D01*
X207913784Y-111369708D01*
X207933377Y-111406364D01*
X207945443Y-111446139D01*
X207950000Y-111492408D01*
X207950000Y-112907592D01*
X207945443Y-112953861D01*
X207933377Y-112993636D01*
X207913784Y-113030292D01*
X207887418Y-113062418D01*
X207855292Y-113088784D01*
X207818636Y-113108377D01*
X207778861Y-113120443D01*
X207732592Y-113125000D01*
X206867408Y-113125000D01*
X206821139Y-113120443D01*
X206781364Y-113108377D01*
X206744708Y-113088784D01*
X206712582Y-113062418D01*
X206686216Y-113030292D01*
X206666623Y-112993636D01*
X206654557Y-112953861D01*
X206650000Y-112907592D01*
X206650000Y-111492408D01*
X206654557Y-111446139D01*
X206666623Y-111406364D01*
X206686216Y-111369708D01*
X206712582Y-111337582D01*
X206744708Y-111311216D01*
X206781364Y-111291623D01*
X206821139Y-111279557D01*
X206867408Y-111275000D01*
X207732592Y-111275000D01*
X207778861Y-111279557D01*
X207778861Y-111279557D01*
G37*
G36*
X200661429Y-109168022D02*
G01*
X200831082Y-109219486D01*
X200987432Y-109303057D01*
X201124475Y-109415525D01*
X201236943Y-109552568D01*
X201320514Y-109708918D01*
X201371978Y-109878571D01*
X201389355Y-110055000D01*
X201371978Y-110231429D01*
X201320514Y-110401082D01*
X201236943Y-110557432D01*
X201124475Y-110694475D01*
X200987432Y-110806943D01*
X200831082Y-110890514D01*
X200661429Y-110941978D01*
X200529212Y-110955000D01*
X200440788Y-110955000D01*
X200308571Y-110941978D01*
X200138918Y-110890514D01*
X199982568Y-110806943D01*
X199845525Y-110694475D01*
X199733057Y-110557432D01*
X199649486Y-110401082D01*
X199598022Y-110231429D01*
X199580645Y-110055000D01*
X199598022Y-109878571D01*
X199649486Y-109708918D01*
X199733057Y-109552568D01*
X199845525Y-109415525D01*
X199982568Y-109303057D01*
X200138918Y-109219486D01*
X200308571Y-109168022D01*
X200440788Y-109155000D01*
X200529212Y-109155000D01*
X200661429Y-109168022D01*
X200661429Y-109168022D01*
G37*
G36*
X203201429Y-109168022D02*
G01*
X203371082Y-109219486D01*
X203527432Y-109303057D01*
X203664475Y-109415525D01*
X203776943Y-109552568D01*
X203860514Y-109708918D01*
X203911978Y-109878571D01*
X203929355Y-110055000D01*
X203911978Y-110231429D01*
X203860514Y-110401082D01*
X203776943Y-110557432D01*
X203664475Y-110694475D01*
X203527432Y-110806943D01*
X203371082Y-110890514D01*
X203201429Y-110941978D01*
X203069212Y-110955000D01*
X202980788Y-110955000D01*
X202848571Y-110941978D01*
X202678918Y-110890514D01*
X202522568Y-110806943D01*
X202385525Y-110694475D01*
X202273057Y-110557432D01*
X202189486Y-110401082D01*
X202138022Y-110231429D01*
X202120645Y-110055000D01*
X202138022Y-109878571D01*
X202189486Y-109708918D01*
X202273057Y-109552568D01*
X202385525Y-109415525D01*
X202522568Y-109303057D01*
X202678918Y-109219486D01*
X202848571Y-109168022D01*
X202980788Y-109155000D01*
X203069212Y-109155000D01*
X203201429Y-109168022D01*
X203201429Y-109168022D01*
G37*
G36*
X245950000Y-110950000D02*
G01*
X244050000Y-110950000D01*
X244050000Y-109050000D01*
X245950000Y-109050000D01*
X245950000Y-110950000D01*
X245950000Y-110950000D01*
G37*
G36*
X233447936Y-109142665D02*
G01*
X233447938Y-109142666D01*
X233447939Y-109142666D01*
X233602628Y-109206740D01*
X233741842Y-109299760D01*
X233860240Y-109418158D01*
X233953260Y-109557372D01*
X234017334Y-109712061D01*
X234017335Y-109712064D01*
X234050000Y-109876282D01*
X234050000Y-110043718D01*
X234047756Y-110055000D01*
X234017334Y-110207939D01*
X233953260Y-110362628D01*
X233860240Y-110501842D01*
X233741842Y-110620240D01*
X233602628Y-110713260D01*
X233447939Y-110777334D01*
X233447938Y-110777334D01*
X233447936Y-110777335D01*
X233283718Y-110810000D01*
X233116282Y-110810000D01*
X232952064Y-110777335D01*
X232952062Y-110777334D01*
X232952061Y-110777334D01*
X232797372Y-110713260D01*
X232658158Y-110620240D01*
X232539760Y-110501842D01*
X232446740Y-110362628D01*
X232382666Y-110207939D01*
X232352245Y-110055000D01*
X232350000Y-110043718D01*
X232350000Y-109876282D01*
X232382665Y-109712064D01*
X232382666Y-109712061D01*
X232446740Y-109557372D01*
X232539760Y-109418158D01*
X232658158Y-109299760D01*
X232797372Y-109206740D01*
X232952061Y-109142666D01*
X232952062Y-109142666D01*
X232952064Y-109142665D01*
X233116282Y-109110000D01*
X233283718Y-109110000D01*
X233447936Y-109142665D01*
X233447936Y-109142665D01*
G37*
G36*
X188900000Y-109700000D02*
G01*
X186300000Y-109700000D01*
X186300000Y-107600000D01*
X188900000Y-107600000D01*
X188900000Y-109700000D01*
X188900000Y-109700000D01*
G37*
G36*
X183400000Y-109700000D02*
G01*
X180800000Y-109700000D01*
X180800000Y-107600000D01*
X183400000Y-107600000D01*
X183400000Y-109700000D01*
X183400000Y-109700000D01*
G37*
G36*
X218976429Y-107233022D02*
G01*
X219146082Y-107284486D01*
X219302432Y-107368057D01*
X219439475Y-107480525D01*
X219551943Y-107617568D01*
X219635514Y-107773918D01*
X219686978Y-107943571D01*
X219704355Y-108120000D01*
X219686978Y-108296429D01*
X219635514Y-108466082D01*
X219551943Y-108622432D01*
X219439475Y-108759475D01*
X219302432Y-108871943D01*
X219146082Y-108955514D01*
X218976429Y-109006978D01*
X218844212Y-109020000D01*
X218755788Y-109020000D01*
X218623571Y-109006978D01*
X218453918Y-108955514D01*
X218297568Y-108871943D01*
X218160525Y-108759475D01*
X218048057Y-108622432D01*
X217964486Y-108466082D01*
X217913022Y-108296429D01*
X217895645Y-108120000D01*
X217913022Y-107943571D01*
X217964486Y-107773918D01*
X218048057Y-107617568D01*
X218160525Y-107480525D01*
X218297568Y-107368057D01*
X218453918Y-107284486D01*
X218623571Y-107233022D01*
X218755788Y-107220000D01*
X218844212Y-107220000D01*
X218976429Y-107233022D01*
X218976429Y-107233022D01*
G37*
G36*
X200661429Y-106628022D02*
G01*
X200831082Y-106679486D01*
X200987432Y-106763057D01*
X201124475Y-106875525D01*
X201236943Y-107012568D01*
X201320514Y-107168918D01*
X201371978Y-107338571D01*
X201389355Y-107515000D01*
X201371978Y-107691429D01*
X201320514Y-107861082D01*
X201236943Y-108017432D01*
X201124475Y-108154475D01*
X200987432Y-108266943D01*
X200831082Y-108350514D01*
X200661429Y-108401978D01*
X200529212Y-108415000D01*
X200440788Y-108415000D01*
X200308571Y-108401978D01*
X200138918Y-108350514D01*
X199982568Y-108266943D01*
X199845525Y-108154475D01*
X199733057Y-108017432D01*
X199649486Y-107861082D01*
X199598022Y-107691429D01*
X199580645Y-107515000D01*
X199598022Y-107338571D01*
X199649486Y-107168918D01*
X199733057Y-107012568D01*
X199845525Y-106875525D01*
X199982568Y-106763057D01*
X200138918Y-106679486D01*
X200308571Y-106628022D01*
X200440788Y-106615000D01*
X200529212Y-106615000D01*
X200661429Y-106628022D01*
X200661429Y-106628022D01*
G37*
G36*
X203201429Y-106628022D02*
G01*
X203371082Y-106679486D01*
X203527432Y-106763057D01*
X203664475Y-106875525D01*
X203776943Y-107012568D01*
X203860514Y-107168918D01*
X203911978Y-107338571D01*
X203929355Y-107515000D01*
X203911978Y-107691429D01*
X203860514Y-107861082D01*
X203776943Y-108017432D01*
X203664475Y-108154475D01*
X203527432Y-108266943D01*
X203371082Y-108350514D01*
X203201429Y-108401978D01*
X203069212Y-108415000D01*
X202980788Y-108415000D01*
X202848571Y-108401978D01*
X202678918Y-108350514D01*
X202522568Y-108266943D01*
X202385525Y-108154475D01*
X202273057Y-108017432D01*
X202189486Y-107861082D01*
X202138022Y-107691429D01*
X202120645Y-107515000D01*
X202138022Y-107338571D01*
X202189486Y-107168918D01*
X202273057Y-107012568D01*
X202385525Y-106875525D01*
X202522568Y-106763057D01*
X202678918Y-106679486D01*
X202848571Y-106628022D01*
X202980788Y-106615000D01*
X203069212Y-106615000D01*
X203201429Y-106628022D01*
X203201429Y-106628022D01*
G37*
G36*
X245277105Y-106546508D02*
G01*
X245449994Y-106618121D01*
X245605590Y-106722087D01*
X245737913Y-106854410D01*
X245841879Y-107010006D01*
X245913492Y-107182895D01*
X245950000Y-107366433D01*
X245950000Y-107553567D01*
X245913492Y-107737105D01*
X245841879Y-107909994D01*
X245737913Y-108065590D01*
X245605590Y-108197913D01*
X245449994Y-108301879D01*
X245277105Y-108373492D01*
X245093567Y-108410000D01*
X244906433Y-108410000D01*
X244722895Y-108373492D01*
X244550006Y-108301879D01*
X244394410Y-108197913D01*
X244262087Y-108065590D01*
X244158121Y-107909994D01*
X244086508Y-107737105D01*
X244050000Y-107553567D01*
X244050000Y-107366433D01*
X244086508Y-107182895D01*
X244158121Y-107010006D01*
X244262087Y-106854410D01*
X244394410Y-106722087D01*
X244550006Y-106618121D01*
X244722895Y-106546508D01*
X244906433Y-106510000D01*
X245093567Y-106510000D01*
X245277105Y-106546508D01*
X245277105Y-106546508D01*
G37*
G36*
X184995842Y-105919214D02*
G01*
X184995844Y-105919215D01*
X184995845Y-105919215D01*
X185012423Y-105926082D01*
X185086841Y-105956907D01*
X185168730Y-106011623D01*
X185238377Y-106081270D01*
X185293093Y-106163159D01*
X185330786Y-106254158D01*
X185350000Y-106350752D01*
X185350000Y-106449248D01*
X185330786Y-106545842D01*
X185293093Y-106636841D01*
X185238377Y-106718730D01*
X185168730Y-106788377D01*
X185086841Y-106843093D01*
X185086840Y-106843094D01*
X185086839Y-106843094D01*
X184995845Y-106880785D01*
X184995844Y-106880785D01*
X184995842Y-106880786D01*
X184899248Y-106900000D01*
X184800752Y-106900000D01*
X184704158Y-106880786D01*
X184704156Y-106880785D01*
X184704155Y-106880785D01*
X184613161Y-106843094D01*
X184613160Y-106843094D01*
X184613159Y-106843093D01*
X184531270Y-106788377D01*
X184461623Y-106718730D01*
X184406907Y-106636841D01*
X184369214Y-106545842D01*
X184350000Y-106449248D01*
X184350000Y-106350752D01*
X184369214Y-106254158D01*
X184406907Y-106163159D01*
X184461623Y-106081270D01*
X184531270Y-106011623D01*
X184613159Y-105956907D01*
X184687577Y-105926082D01*
X184704155Y-105919215D01*
X184704156Y-105919215D01*
X184704158Y-105919214D01*
X184800752Y-105900000D01*
X184899248Y-105900000D01*
X184995842Y-105919214D01*
X184995842Y-105919214D01*
G37*
G36*
X218976429Y-104693022D02*
G01*
X219146082Y-104744486D01*
X219302432Y-104828057D01*
X219439475Y-104940525D01*
X219551943Y-105077568D01*
X219635514Y-105233918D01*
X219686978Y-105403571D01*
X219704355Y-105580000D01*
X219686978Y-105756429D01*
X219635514Y-105926082D01*
X219551943Y-106082432D01*
X219439475Y-106219475D01*
X219302432Y-106331943D01*
X219146082Y-106415514D01*
X218976429Y-106466978D01*
X218844212Y-106480000D01*
X218755788Y-106480000D01*
X218623571Y-106466978D01*
X218453918Y-106415514D01*
X218297568Y-106331943D01*
X218160525Y-106219475D01*
X218048057Y-106082432D01*
X217964486Y-105926082D01*
X217913022Y-105756429D01*
X217895645Y-105580000D01*
X217913022Y-105403571D01*
X217964486Y-105233918D01*
X218048057Y-105077568D01*
X218160525Y-104940525D01*
X218297568Y-104828057D01*
X218453918Y-104744486D01*
X218623571Y-104693022D01*
X218755788Y-104680000D01*
X218844212Y-104680000D01*
X218976429Y-104693022D01*
X218976429Y-104693022D01*
G37*
G36*
X188800000Y-106100000D02*
G01*
X186400000Y-106100000D01*
X186400000Y-105500000D01*
X188800000Y-105500000D01*
X188800000Y-106100000D01*
X188800000Y-106100000D01*
G37*
G36*
X203925000Y-105875000D02*
G01*
X202125000Y-105875000D01*
X202125000Y-104075000D01*
X203925000Y-104075000D01*
X203925000Y-105875000D01*
X203925000Y-105875000D01*
G37*
G36*
X200661429Y-104088022D02*
G01*
X200831082Y-104139486D01*
X200987432Y-104223057D01*
X201124475Y-104335525D01*
X201236943Y-104472568D01*
X201320514Y-104628918D01*
X201371978Y-104798571D01*
X201389355Y-104975000D01*
X201371978Y-105151429D01*
X201320514Y-105321082D01*
X201236943Y-105477432D01*
X201124475Y-105614475D01*
X200987432Y-105726943D01*
X200831082Y-105810514D01*
X200661429Y-105861978D01*
X200529212Y-105875000D01*
X200440788Y-105875000D01*
X200308571Y-105861978D01*
X200138918Y-105810514D01*
X199982568Y-105726943D01*
X199845525Y-105614475D01*
X199733057Y-105477432D01*
X199649486Y-105321082D01*
X199598022Y-105151429D01*
X199580645Y-104975000D01*
X199598022Y-104798571D01*
X199649486Y-104628918D01*
X199733057Y-104472568D01*
X199845525Y-104335525D01*
X199982568Y-104223057D01*
X200138918Y-104139486D01*
X200308571Y-104088022D01*
X200440788Y-104075000D01*
X200529212Y-104075000D01*
X200661429Y-104088022D01*
X200661429Y-104088022D01*
G37*
G36*
X188800000Y-105300000D02*
G01*
X186400000Y-105300000D01*
X186400000Y-104700000D01*
X188800000Y-104700000D01*
X188800000Y-105300000D01*
X188800000Y-105300000D01*
G37*
G36*
X188800000Y-104500000D02*
G01*
X186400000Y-104500000D01*
X186400000Y-103900000D01*
X188800000Y-103900000D01*
X188800000Y-104500000D01*
X188800000Y-104500000D01*
G37*
G36*
X218976429Y-102153022D02*
G01*
X219146082Y-102204486D01*
X219302432Y-102288057D01*
X219439475Y-102400525D01*
X219551943Y-102537568D01*
X219635514Y-102693918D01*
X219686978Y-102863571D01*
X219704355Y-103040000D01*
X219686978Y-103216429D01*
X219635514Y-103386082D01*
X219551943Y-103542432D01*
X219439475Y-103679475D01*
X219302432Y-103791943D01*
X219146082Y-103875514D01*
X218976429Y-103926978D01*
X218844212Y-103940000D01*
X218755788Y-103940000D01*
X218623571Y-103926978D01*
X218453918Y-103875514D01*
X218297568Y-103791943D01*
X218160525Y-103679475D01*
X218048057Y-103542432D01*
X217964486Y-103386082D01*
X217913022Y-103216429D01*
X217895645Y-103040000D01*
X217913022Y-102863571D01*
X217964486Y-102693918D01*
X218048057Y-102537568D01*
X218160525Y-102400525D01*
X218297568Y-102288057D01*
X218453918Y-102204486D01*
X218623571Y-102153022D01*
X218755788Y-102140000D01*
X218844212Y-102140000D01*
X218976429Y-102153022D01*
X218976429Y-102153022D01*
G37*
G36*
X188800000Y-103700000D02*
G01*
X186400000Y-103700000D01*
X186400000Y-103100000D01*
X188800000Y-103100000D01*
X188800000Y-103700000D01*
X188800000Y-103700000D01*
G37*
G36*
X188800000Y-102900000D02*
G01*
X186400000Y-102900000D01*
X186400000Y-102300000D01*
X188800000Y-102300000D01*
X188800000Y-102900000D01*
X188800000Y-102900000D01*
G37*
G36*
X225849997Y-100249758D02*
G01*
X225850000Y-100249758D01*
X225859802Y-100250723D01*
X225859805Y-100250724D01*
X225864649Y-100251201D01*
X225874450Y-100251682D01*
X225894092Y-100251682D01*
X225899007Y-100252166D01*
X225899009Y-100252166D01*
X225908811Y-100253131D01*
X225908814Y-100253132D01*
X225913723Y-100253615D01*
X226000223Y-100270821D01*
X226004941Y-100272252D01*
X226004944Y-100272253D01*
X226014369Y-100275112D01*
X226014376Y-100275115D01*
X226019093Y-100276546D01*
X226100569Y-100310293D01*
X226104922Y-100312620D01*
X226104925Y-100312621D01*
X226113611Y-100317264D01*
X226117964Y-100319591D01*
X226191300Y-100368593D01*
X226206538Y-100381098D01*
X226268902Y-100443462D01*
X226281407Y-100458700D01*
X226330409Y-100532036D01*
X226339707Y-100549431D01*
X226373454Y-100630907D01*
X226374885Y-100635624D01*
X226374888Y-100635631D01*
X226377747Y-100645056D01*
X226379179Y-100649777D01*
X226396385Y-100736277D01*
X226398318Y-100755908D01*
X226398318Y-100775550D01*
X226398799Y-100785351D01*
X226399276Y-100790195D01*
X226399277Y-100790198D01*
X226400242Y-100800000D01*
X226400726Y-100804917D01*
X226400726Y-101295083D01*
X226400242Y-101299997D01*
X226400242Y-101300000D01*
X226399277Y-101309802D01*
X226399276Y-101309805D01*
X226396418Y-101319227D01*
X226391774Y-101327914D01*
X226385527Y-101335527D01*
X226378596Y-101341214D01*
X226377913Y-101341775D01*
X226369227Y-101346418D01*
X226359802Y-101349277D01*
X226350000Y-101350242D01*
X226349997Y-101350242D01*
X226347560Y-101350482D01*
X226328333Y-101354307D01*
X226310222Y-101361808D01*
X226293923Y-101372699D01*
X226280061Y-101386561D01*
X226269170Y-101402860D01*
X226261668Y-101420971D01*
X226257844Y-101440198D01*
X226257843Y-101459801D01*
X226261668Y-101479028D01*
X226269169Y-101497139D01*
X226280060Y-101513438D01*
X226293922Y-101527300D01*
X226310221Y-101538191D01*
X226328332Y-101545693D01*
X226347560Y-101549518D01*
X226349997Y-101549758D01*
X226350000Y-101549758D01*
X226359802Y-101550723D01*
X226369227Y-101553582D01*
X226377913Y-101558225D01*
X226377915Y-101558226D01*
X226377914Y-101558226D01*
X226385527Y-101564473D01*
X226391214Y-101571404D01*
X226391775Y-101572087D01*
X226396418Y-101580773D01*
X226399277Y-101590198D01*
X226400242Y-101600000D01*
X226400726Y-101604917D01*
X226400726Y-102095083D01*
X226400242Y-102099997D01*
X226400242Y-102100000D01*
X226399277Y-102109802D01*
X226399276Y-102109805D01*
X226398799Y-102114649D01*
X226398318Y-102124450D01*
X226398318Y-102144092D01*
X226396385Y-102163723D01*
X226379179Y-102250223D01*
X226377748Y-102254941D01*
X226377747Y-102254944D01*
X226374888Y-102264369D01*
X226374885Y-102264376D01*
X226373454Y-102269093D01*
X226339707Y-102350569D01*
X226330409Y-102367964D01*
X226281407Y-102441300D01*
X226268902Y-102456538D01*
X226206538Y-102518902D01*
X226191300Y-102531407D01*
X226117964Y-102580409D01*
X226113613Y-102582735D01*
X226113611Y-102582736D01*
X226104925Y-102587379D01*
X226104922Y-102587380D01*
X226100569Y-102589707D01*
X226019093Y-102623454D01*
X226014376Y-102624885D01*
X226014369Y-102624888D01*
X226004944Y-102627747D01*
X226004941Y-102627748D01*
X226000223Y-102629179D01*
X225913723Y-102646385D01*
X225908814Y-102646868D01*
X225908811Y-102646869D01*
X225899009Y-102647834D01*
X225899007Y-102647834D01*
X225894092Y-102648318D01*
X225874450Y-102648318D01*
X225864649Y-102648799D01*
X225859805Y-102649276D01*
X225859802Y-102649277D01*
X225850000Y-102650242D01*
X225849997Y-102650242D01*
X225845083Y-102650726D01*
X225354917Y-102650726D01*
X225350003Y-102650242D01*
X225350000Y-102650242D01*
X225340198Y-102649277D01*
X225340195Y-102649276D01*
X225335351Y-102648799D01*
X225325550Y-102648318D01*
X225305908Y-102648318D01*
X225300993Y-102647834D01*
X225300991Y-102647834D01*
X225291189Y-102646869D01*
X225291186Y-102646868D01*
X225286277Y-102646385D01*
X225199777Y-102629179D01*
X225195059Y-102627748D01*
X225195056Y-102627747D01*
X225185631Y-102624888D01*
X225185624Y-102624885D01*
X225180907Y-102623454D01*
X225099431Y-102589707D01*
X225095078Y-102587380D01*
X225095075Y-102587379D01*
X225086389Y-102582736D01*
X225086387Y-102582735D01*
X225082036Y-102580409D01*
X225008700Y-102531407D01*
X224993462Y-102518902D01*
X224931098Y-102456538D01*
X224918593Y-102441300D01*
X224869591Y-102367964D01*
X224860293Y-102350569D01*
X224826546Y-102269093D01*
X224825115Y-102264376D01*
X224825112Y-102264369D01*
X224822253Y-102254944D01*
X224822252Y-102254941D01*
X224820821Y-102250223D01*
X224803615Y-102163723D01*
X224801682Y-102144092D01*
X224801682Y-102124450D01*
X224801201Y-102114649D01*
X224800724Y-102109805D01*
X224800723Y-102109802D01*
X224799758Y-102100000D01*
X224799758Y-102099997D01*
X224799274Y-102095083D01*
X224799274Y-101604917D01*
X224799758Y-101600000D01*
X224800723Y-101590198D01*
X224803582Y-101580773D01*
X224808225Y-101572087D01*
X224808786Y-101571404D01*
X224814473Y-101564473D01*
X224822086Y-101558226D01*
X224822085Y-101558226D01*
X224822087Y-101558225D01*
X224830773Y-101553582D01*
X224840198Y-101550723D01*
X224850000Y-101549758D01*
X224850003Y-101549758D01*
X224852440Y-101549518D01*
X224871667Y-101545693D01*
X224889778Y-101538192D01*
X224906077Y-101527301D01*
X224919939Y-101513439D01*
X224930830Y-101497140D01*
X224938332Y-101479029D01*
X224942156Y-101459802D01*
X224942157Y-101440199D01*
X224938332Y-101420972D01*
X224930831Y-101402861D01*
X224919940Y-101386562D01*
X224906078Y-101372700D01*
X224889779Y-101361809D01*
X224871668Y-101354307D01*
X224852440Y-101350482D01*
X224850003Y-101350242D01*
X224850000Y-101350242D01*
X224840198Y-101349277D01*
X224830773Y-101346418D01*
X224822087Y-101341775D01*
X224821404Y-101341214D01*
X224814473Y-101335527D01*
X224808226Y-101327914D01*
X224803582Y-101319227D01*
X224800724Y-101309805D01*
X224800723Y-101309802D01*
X224799758Y-101300000D01*
X224799758Y-101299997D01*
X224799274Y-101295083D01*
X224799274Y-100804917D01*
X224799758Y-100800000D01*
X224800723Y-100790198D01*
X224800724Y-100790195D01*
X224801201Y-100785351D01*
X224801682Y-100775550D01*
X224801682Y-100755908D01*
X224803615Y-100736277D01*
X224820821Y-100649777D01*
X224822253Y-100645056D01*
X224825112Y-100635631D01*
X224825115Y-100635624D01*
X224826546Y-100630907D01*
X224860293Y-100549431D01*
X224869591Y-100532036D01*
X224918593Y-100458700D01*
X224931098Y-100443462D01*
X224993462Y-100381098D01*
X225008700Y-100368593D01*
X225082036Y-100319591D01*
X225086389Y-100317264D01*
X225095075Y-100312621D01*
X225095078Y-100312620D01*
X225099431Y-100310293D01*
X225180907Y-100276546D01*
X225185624Y-100275115D01*
X225185631Y-100275112D01*
X225195056Y-100272253D01*
X225195059Y-100272252D01*
X225199777Y-100270821D01*
X225286277Y-100253615D01*
X225291186Y-100253132D01*
X225291189Y-100253131D01*
X225300991Y-100252166D01*
X225300993Y-100252166D01*
X225305908Y-100251682D01*
X225325550Y-100251682D01*
X225335351Y-100251201D01*
X225340195Y-100250724D01*
X225340198Y-100250723D01*
X225350000Y-100249758D01*
X225350003Y-100249758D01*
X225354917Y-100249274D01*
X225845083Y-100249274D01*
X225849997Y-100249758D01*
X225849997Y-100249758D01*
G37*
G36*
X184995842Y-101519214D02*
G01*
X184995844Y-101519215D01*
X184995845Y-101519215D01*
X185071914Y-101550724D01*
X185086841Y-101556907D01*
X185168730Y-101611623D01*
X185238377Y-101681270D01*
X185293093Y-101763159D01*
X185330786Y-101854158D01*
X185350000Y-101950752D01*
X185350000Y-102049248D01*
X185336991Y-102114649D01*
X185330785Y-102145845D01*
X185306495Y-102204486D01*
X185293093Y-102236841D01*
X185238377Y-102318730D01*
X185168730Y-102388377D01*
X185086841Y-102443093D01*
X185086840Y-102443094D01*
X185086839Y-102443094D01*
X184995845Y-102480785D01*
X184995844Y-102480785D01*
X184995842Y-102480786D01*
X184899248Y-102500000D01*
X184800752Y-102500000D01*
X184704158Y-102480786D01*
X184704156Y-102480785D01*
X184704155Y-102480785D01*
X184613161Y-102443094D01*
X184613160Y-102443094D01*
X184613159Y-102443093D01*
X184531270Y-102388377D01*
X184461623Y-102318730D01*
X184406907Y-102236841D01*
X184393505Y-102204486D01*
X184369215Y-102145845D01*
X184363010Y-102114649D01*
X184350000Y-102049248D01*
X184350000Y-101950752D01*
X184369214Y-101854158D01*
X184406907Y-101763159D01*
X184461623Y-101681270D01*
X184531270Y-101611623D01*
X184613159Y-101556907D01*
X184628086Y-101550724D01*
X184704155Y-101519215D01*
X184704156Y-101519215D01*
X184704158Y-101519214D01*
X184800752Y-101500000D01*
X184899248Y-101500000D01*
X184995842Y-101519214D01*
X184995842Y-101519214D01*
G37*
G36*
X245950000Y-101950000D02*
G01*
X244050000Y-101950000D01*
X244050000Y-100050000D01*
X245950000Y-100050000D01*
X245950000Y-101950000D01*
X245950000Y-101950000D01*
G37*
G36*
X219700000Y-101400000D02*
G01*
X217900000Y-101400000D01*
X217900000Y-99600000D01*
X219700000Y-99600000D01*
X219700000Y-101400000D01*
X219700000Y-101400000D01*
G37*
G36*
X183400000Y-100800000D02*
G01*
X180800000Y-100800000D01*
X180800000Y-98700000D01*
X183400000Y-98700000D01*
X183400000Y-100800000D01*
X183400000Y-100800000D01*
G37*
G36*
X188900000Y-100800000D02*
G01*
X186300000Y-100800000D01*
X186300000Y-98700000D01*
X188900000Y-98700000D01*
X188900000Y-100800000D01*
X188900000Y-100800000D01*
G37*
G36*
X233366627Y-98962299D02*
G01*
X233526856Y-99010903D01*
X233674519Y-99089830D01*
X233803949Y-99196051D01*
X233910170Y-99325481D01*
X233989097Y-99473144D01*
X234037702Y-99633373D01*
X234054113Y-99800000D01*
X234037702Y-99966627D01*
X233989097Y-100126856D01*
X233910170Y-100274519D01*
X233803949Y-100403949D01*
X233674519Y-100510170D01*
X233526856Y-100589097D01*
X233366627Y-100637701D01*
X233241757Y-100650000D01*
X233158243Y-100650000D01*
X233033373Y-100637701D01*
X232873144Y-100589097D01*
X232725481Y-100510170D01*
X232596051Y-100403949D01*
X232489830Y-100274519D01*
X232410903Y-100126856D01*
X232362298Y-99966627D01*
X232345887Y-99800000D01*
X232362298Y-99633373D01*
X232410903Y-99473144D01*
X232489830Y-99325481D01*
X232596051Y-99196051D01*
X232725481Y-99089830D01*
X232873144Y-99010903D01*
X233033373Y-98962299D01*
X233158243Y-98950000D01*
X233241757Y-98950000D01*
X233366627Y-98962299D01*
X233366627Y-98962299D01*
G37*
G36*
X245277105Y-97546508D02*
G01*
X245449994Y-97618121D01*
X245605590Y-97722087D01*
X245737913Y-97854410D01*
X245841879Y-98010006D01*
X245913492Y-98182895D01*
X245950000Y-98366433D01*
X245950000Y-98553567D01*
X245913492Y-98737105D01*
X245841879Y-98909994D01*
X245737913Y-99065590D01*
X245605590Y-99197913D01*
X245449994Y-99301879D01*
X245277105Y-99373492D01*
X245093567Y-99410000D01*
X244906433Y-99410000D01*
X244722895Y-99373492D01*
X244550006Y-99301879D01*
X244394410Y-99197913D01*
X244262087Y-99065590D01*
X244158121Y-98909994D01*
X244086508Y-98737105D01*
X244050000Y-98553567D01*
X244050000Y-98366433D01*
X244086508Y-98182895D01*
X244158121Y-98010006D01*
X244262087Y-97854410D01*
X244394410Y-97722087D01*
X244550006Y-97618121D01*
X244722895Y-97546508D01*
X244906433Y-97510000D01*
X245093567Y-97510000D01*
X245277105Y-97546508D01*
X245277105Y-97546508D01*
G37*
G36*
X225684601Y-96799590D02*
G01*
X225714561Y-96812000D01*
X225824731Y-96857634D01*
X225950847Y-96941902D01*
X226058098Y-97049153D01*
X226142366Y-97175269D01*
X226187260Y-97283654D01*
X226200410Y-97315399D01*
X226230000Y-97464162D01*
X226230000Y-97615838D01*
X226200410Y-97764601D01*
X226200409Y-97764603D01*
X226142366Y-97904731D01*
X226058098Y-98030847D01*
X225950847Y-98138098D01*
X225824731Y-98222366D01*
X225716346Y-98267260D01*
X225684601Y-98280410D01*
X225535838Y-98310000D01*
X225384162Y-98310000D01*
X225235399Y-98280410D01*
X225203654Y-98267260D01*
X225095269Y-98222366D01*
X224969153Y-98138098D01*
X224861902Y-98030847D01*
X224777634Y-97904731D01*
X224719591Y-97764603D01*
X224719590Y-97764601D01*
X224690000Y-97615838D01*
X224690000Y-97464162D01*
X224719590Y-97315399D01*
X224732740Y-97283654D01*
X224777634Y-97175269D01*
X224861902Y-97049153D01*
X224969153Y-96941902D01*
X225095269Y-96857634D01*
X225205439Y-96812000D01*
X225235399Y-96799590D01*
X225384162Y-96770000D01*
X225535838Y-96770000D01*
X225684601Y-96799590D01*
X225684601Y-96799590D01*
G37*
G36*
X230957817Y-95057957D02*
G01*
X231061495Y-95089408D01*
X231146114Y-95134638D01*
X231157042Y-95140479D01*
X231178857Y-95158383D01*
X231240791Y-95209209D01*
X231291617Y-95271143D01*
X231309521Y-95292958D01*
X231309522Y-95292960D01*
X231360592Y-95388505D01*
X231392043Y-95492183D01*
X231400000Y-95572976D01*
X231400000Y-96427024D01*
X231392043Y-96507817D01*
X231360592Y-96611495D01*
X231355297Y-96621401D01*
X231309521Y-96707042D01*
X231307954Y-96708951D01*
X231240791Y-96790791D01*
X231178857Y-96841617D01*
X231157042Y-96859521D01*
X231157040Y-96859522D01*
X231061494Y-96910592D01*
X230957816Y-96942043D01*
X230850000Y-96952662D01*
X230742183Y-96942043D01*
X230638505Y-96910592D01*
X230542960Y-96859522D01*
X230542958Y-96859521D01*
X230521143Y-96841617D01*
X230459209Y-96790791D01*
X230392046Y-96708951D01*
X230390479Y-96707042D01*
X230349686Y-96630723D01*
X230339408Y-96611494D01*
X230307957Y-96507816D01*
X230300000Y-96427023D01*
X230300000Y-95572976D01*
X230307957Y-95492185D01*
X230339410Y-95388504D01*
X230390479Y-95292960D01*
X230390480Y-95292958D01*
X230408384Y-95271143D01*
X230459210Y-95209209D01*
X230521144Y-95158383D01*
X230542959Y-95140479D01*
X230553887Y-95134638D01*
X230638506Y-95089408D01*
X230742184Y-95057957D01*
X230850000Y-95047338D01*
X230957817Y-95057957D01*
X230957817Y-95057957D01*
G37*
G36*
X239257817Y-95057957D02*
G01*
X239361495Y-95089408D01*
X239446114Y-95134638D01*
X239457042Y-95140479D01*
X239478857Y-95158383D01*
X239540791Y-95209209D01*
X239591617Y-95271143D01*
X239609521Y-95292958D01*
X239609522Y-95292960D01*
X239660592Y-95388505D01*
X239692043Y-95492183D01*
X239700000Y-95572976D01*
X239700000Y-96427024D01*
X239692043Y-96507817D01*
X239660592Y-96611495D01*
X239655297Y-96621401D01*
X239609521Y-96707042D01*
X239607954Y-96708951D01*
X239540791Y-96790791D01*
X239478857Y-96841617D01*
X239457042Y-96859521D01*
X239457040Y-96859522D01*
X239361494Y-96910592D01*
X239257816Y-96942043D01*
X239150000Y-96952662D01*
X239042183Y-96942043D01*
X238938505Y-96910592D01*
X238842960Y-96859522D01*
X238842958Y-96859521D01*
X238821143Y-96841617D01*
X238759209Y-96790791D01*
X238692046Y-96708951D01*
X238690479Y-96707042D01*
X238649686Y-96630723D01*
X238639408Y-96611494D01*
X238607957Y-96507816D01*
X238600000Y-96427023D01*
X238600000Y-95572976D01*
X238607957Y-95492185D01*
X238639410Y-95388504D01*
X238690479Y-95292960D01*
X238690480Y-95292958D01*
X238708384Y-95271143D01*
X238759210Y-95209209D01*
X238821144Y-95158383D01*
X238842959Y-95140479D01*
X238853887Y-95134638D01*
X238938506Y-95089408D01*
X239042184Y-95057957D01*
X239150000Y-95047338D01*
X239257817Y-95057957D01*
X239257817Y-95057957D01*
G37*
G36*
X237158414Y-95203603D02*
G01*
X237236854Y-95219205D01*
X237384628Y-95280416D01*
X237517619Y-95369277D01*
X237630722Y-95482380D01*
X237719584Y-95615372D01*
X237780795Y-95763146D01*
X237812000Y-95920027D01*
X237812000Y-96079973D01*
X237780795Y-96236854D01*
X237719584Y-96384628D01*
X237630723Y-96517619D01*
X237517619Y-96630723D01*
X237384628Y-96719584D01*
X237236854Y-96780795D01*
X237158414Y-96796397D01*
X237079975Y-96812000D01*
X236920025Y-96812000D01*
X236841587Y-96796398D01*
X236763146Y-96780795D01*
X236615372Y-96719584D01*
X236482381Y-96630723D01*
X236369277Y-96517619D01*
X236280416Y-96384628D01*
X236219205Y-96236854D01*
X236188000Y-96079973D01*
X236188000Y-95920027D01*
X236219205Y-95763146D01*
X236280416Y-95615372D01*
X236369278Y-95482380D01*
X236482381Y-95369277D01*
X236615372Y-95280416D01*
X236763146Y-95219205D01*
X236841586Y-95203603D01*
X236920025Y-95188000D01*
X237079975Y-95188000D01*
X237158414Y-95203603D01*
X237158414Y-95203603D01*
G37*
G36*
X235158414Y-95203603D02*
G01*
X235236854Y-95219205D01*
X235384628Y-95280416D01*
X235517619Y-95369277D01*
X235630722Y-95482380D01*
X235719584Y-95615372D01*
X235780795Y-95763146D01*
X235812000Y-95920027D01*
X235812000Y-96079973D01*
X235780795Y-96236854D01*
X235719584Y-96384628D01*
X235630723Y-96517619D01*
X235517619Y-96630723D01*
X235384628Y-96719584D01*
X235236854Y-96780795D01*
X235158414Y-96796397D01*
X235079975Y-96812000D01*
X234920025Y-96812000D01*
X234841587Y-96796398D01*
X234763146Y-96780795D01*
X234615372Y-96719584D01*
X234482381Y-96630723D01*
X234369277Y-96517619D01*
X234280416Y-96384628D01*
X234219205Y-96236854D01*
X234188000Y-96079973D01*
X234188000Y-95920027D01*
X234219205Y-95763146D01*
X234280416Y-95615372D01*
X234369278Y-95482380D01*
X234482381Y-95369277D01*
X234615372Y-95280416D01*
X234763146Y-95219205D01*
X234841586Y-95203603D01*
X234920025Y-95188000D01*
X235079975Y-95188000D01*
X235158414Y-95203603D01*
X235158414Y-95203603D01*
G37*
G36*
X233158414Y-95203603D02*
G01*
X233236854Y-95219205D01*
X233384628Y-95280416D01*
X233517619Y-95369277D01*
X233630722Y-95482380D01*
X233719584Y-95615372D01*
X233780795Y-95763146D01*
X233812000Y-95920027D01*
X233812000Y-96079973D01*
X233780795Y-96236854D01*
X233719584Y-96384628D01*
X233630723Y-96517619D01*
X233517619Y-96630723D01*
X233384628Y-96719584D01*
X233236854Y-96780795D01*
X233158414Y-96796397D01*
X233079975Y-96812000D01*
X232920025Y-96812000D01*
X232841587Y-96796398D01*
X232763146Y-96780795D01*
X232615372Y-96719584D01*
X232482381Y-96630723D01*
X232369277Y-96517619D01*
X232280416Y-96384628D01*
X232219205Y-96236854D01*
X232188000Y-96079973D01*
X232188000Y-95920027D01*
X232219205Y-95763146D01*
X232280416Y-95615372D01*
X232369278Y-95482380D01*
X232482381Y-95369277D01*
X232615372Y-95280416D01*
X232763146Y-95219205D01*
X232841586Y-95203603D01*
X232920025Y-95188000D01*
X233079975Y-95188000D01*
X233158414Y-95203603D01*
X233158414Y-95203603D01*
G37*
G36*
X210983351Y-95230743D02*
G01*
X210983353Y-95230744D01*
X210983354Y-95230744D01*
X211103269Y-95280415D01*
X211128942Y-95291049D01*
X211259970Y-95378599D01*
X211371401Y-95490030D01*
X211372841Y-95492185D01*
X211458951Y-95621058D01*
X211508389Y-95740410D01*
X211519257Y-95766649D01*
X211550000Y-95921207D01*
X211550000Y-96078793D01*
X211519257Y-96233351D01*
X211458951Y-96378942D01*
X211371401Y-96509970D01*
X211259970Y-96621401D01*
X211131802Y-96707040D01*
X211128942Y-96708951D01*
X210983354Y-96769256D01*
X210983353Y-96769256D01*
X210983351Y-96769257D01*
X210828793Y-96800000D01*
X210671207Y-96800000D01*
X210516649Y-96769257D01*
X210516647Y-96769256D01*
X210516646Y-96769256D01*
X210371058Y-96708951D01*
X210368198Y-96707040D01*
X210240030Y-96621401D01*
X210128599Y-96509970D01*
X210041049Y-96378942D01*
X209980743Y-96233351D01*
X209950000Y-96078793D01*
X209950000Y-95921207D01*
X209980743Y-95766649D01*
X209991612Y-95740410D01*
X210041049Y-95621058D01*
X210127159Y-95492185D01*
X210128599Y-95490030D01*
X210240030Y-95378599D01*
X210371058Y-95291049D01*
X210396731Y-95280415D01*
X210516646Y-95230744D01*
X210516647Y-95230744D01*
X210516649Y-95230743D01*
X210671207Y-95200000D01*
X210828793Y-95200000D01*
X210983351Y-95230743D01*
X210983351Y-95230743D01*
G37*
G36*
X206083351Y-95230743D02*
G01*
X206083353Y-95230744D01*
X206083354Y-95230744D01*
X206203269Y-95280415D01*
X206228942Y-95291049D01*
X206359970Y-95378599D01*
X206471401Y-95490030D01*
X206472841Y-95492185D01*
X206558951Y-95621058D01*
X206608389Y-95740410D01*
X206619257Y-95766649D01*
X206650000Y-95921207D01*
X206650000Y-96078793D01*
X206619257Y-96233351D01*
X206558951Y-96378942D01*
X206471401Y-96509970D01*
X206359970Y-96621401D01*
X206231802Y-96707040D01*
X206228942Y-96708951D01*
X206083354Y-96769256D01*
X206083353Y-96769256D01*
X206083351Y-96769257D01*
X205928793Y-96800000D01*
X205771207Y-96800000D01*
X205616649Y-96769257D01*
X205616647Y-96769256D01*
X205616646Y-96769256D01*
X205471058Y-96708951D01*
X205468198Y-96707040D01*
X205340030Y-96621401D01*
X205228599Y-96509970D01*
X205141049Y-96378942D01*
X205080743Y-96233351D01*
X205050000Y-96078793D01*
X205050000Y-95921207D01*
X205080743Y-95766649D01*
X205091612Y-95740410D01*
X205141049Y-95621058D01*
X205227159Y-95492185D01*
X205228599Y-95490030D01*
X205340030Y-95378599D01*
X205471058Y-95291049D01*
X205496731Y-95280415D01*
X205616646Y-95230744D01*
X205616647Y-95230744D01*
X205616649Y-95230743D01*
X205771207Y-95200000D01*
X205928793Y-95200000D01*
X206083351Y-95230743D01*
X206083351Y-95230743D01*
G37*
G36*
X223144601Y-94259590D02*
G01*
X223144604Y-94259591D01*
X223144603Y-94259591D01*
X223284731Y-94317634D01*
X223410847Y-94401902D01*
X223518098Y-94509153D01*
X223602366Y-94635269D01*
X223647260Y-94743654D01*
X223660410Y-94775399D01*
X223690000Y-94924162D01*
X223690000Y-95075838D01*
X223660410Y-95224601D01*
X223660409Y-95224603D01*
X223602366Y-95364731D01*
X223518098Y-95490847D01*
X223410847Y-95598098D01*
X223284731Y-95682366D01*
X223176346Y-95727260D01*
X223144601Y-95740410D01*
X222995838Y-95770000D01*
X222844162Y-95770000D01*
X222695399Y-95740410D01*
X222663654Y-95727260D01*
X222555269Y-95682366D01*
X222429153Y-95598098D01*
X222321902Y-95490847D01*
X222237634Y-95364731D01*
X222179591Y-95224603D01*
X222179590Y-95224601D01*
X222150000Y-95075838D01*
X222150000Y-94924162D01*
X222179590Y-94775399D01*
X222192740Y-94743654D01*
X222237634Y-94635269D01*
X222321902Y-94509153D01*
X222429153Y-94401902D01*
X222555269Y-94317634D01*
X222695397Y-94259591D01*
X222695396Y-94259591D01*
X222695399Y-94259590D01*
X222844162Y-94230000D01*
X222995838Y-94230000D01*
X223144601Y-94259590D01*
X223144601Y-94259590D01*
G37*
G36*
X228224601Y-94259590D02*
G01*
X228224604Y-94259591D01*
X228224603Y-94259591D01*
X228364731Y-94317634D01*
X228490847Y-94401902D01*
X228598098Y-94509153D01*
X228682366Y-94635269D01*
X228727260Y-94743654D01*
X228740410Y-94775399D01*
X228770000Y-94924162D01*
X228770000Y-95075838D01*
X228740410Y-95224601D01*
X228740409Y-95224603D01*
X228682366Y-95364731D01*
X228598098Y-95490847D01*
X228490847Y-95598098D01*
X228364731Y-95682366D01*
X228256346Y-95727260D01*
X228224601Y-95740410D01*
X228075838Y-95770000D01*
X227924162Y-95770000D01*
X227775399Y-95740410D01*
X227743654Y-95727260D01*
X227635269Y-95682366D01*
X227509153Y-95598098D01*
X227401902Y-95490847D01*
X227317634Y-95364731D01*
X227259591Y-95224603D01*
X227259590Y-95224601D01*
X227230000Y-95075838D01*
X227230000Y-94924162D01*
X227259590Y-94775399D01*
X227272740Y-94743654D01*
X227317634Y-94635269D01*
X227401902Y-94509153D01*
X227509153Y-94401902D01*
X227635269Y-94317634D01*
X227775397Y-94259591D01*
X227775396Y-94259591D01*
X227775399Y-94259590D01*
X227924162Y-94230000D01*
X228075838Y-94230000D01*
X228224601Y-94259590D01*
X228224601Y-94259590D01*
G37*
M02*
